G04 EAGLE Gerber RS-274X export*
G75*
%MOMM*%
%FSLAX34Y34*%
%LPD*%
%INSolderpaste Top*%
%IPPOS*%
%AMOC8*
5,1,8,0,0,1.08239X$1,22.5*%
G01*
G04 Define Apertures*
%ADD10R,2.000000X2.000000*%
%ADD11C,0.640000*%
%ADD12R,1.200000X1.200000*%
%ADD13R,1.000000X1.100000*%
%ADD14R,1.100000X1.000000*%
%ADD15R,10.410000X10.800000*%
%ADD16R,3.000000X1.066800*%
%ADD17R,0.800000X1.200000*%
%ADD18R,1.200000X0.800000*%
%ADD19R,1.320800X0.558800*%
D10*
X339090Y227740D03*
X339090Y183740D03*
D11*
X374040Y127170D02*
X374040Y78570D01*
X348440Y78570D01*
X348440Y127170D01*
X374040Y127170D01*
X374040Y84650D02*
X348440Y84650D01*
X348440Y90730D02*
X374040Y90730D01*
X374040Y96810D02*
X348440Y96810D01*
X348440Y102890D02*
X374040Y102890D01*
X374040Y108970D02*
X348440Y108970D01*
X348440Y115050D02*
X374040Y115050D01*
X374040Y121130D02*
X348440Y121130D01*
X439040Y127170D02*
X439040Y78570D01*
X413440Y78570D01*
X413440Y127170D01*
X439040Y127170D01*
X439040Y84650D02*
X413440Y84650D01*
X413440Y90730D02*
X439040Y90730D01*
X439040Y96810D02*
X413440Y96810D01*
X413440Y102890D02*
X439040Y102890D01*
X439040Y108970D02*
X413440Y108970D01*
X413440Y115050D02*
X439040Y115050D01*
X439040Y121130D02*
X413440Y121130D01*
D12*
X455000Y303530D03*
X434000Y303530D03*
D13*
X723900Y225670D03*
X723900Y208670D03*
X762000Y242180D03*
X762000Y225180D03*
X762000Y287900D03*
X762000Y270900D03*
D14*
X436000Y323850D03*
X453000Y323850D03*
D15*
X533240Y203200D03*
D16*
X439928Y237236D03*
X439928Y220218D03*
X439928Y203200D03*
X439928Y186182D03*
X439928Y169164D03*
D17*
X392540Y190500D03*
X374540Y190500D03*
X392540Y165100D03*
X374540Y165100D03*
X392540Y215900D03*
X374540Y215900D03*
X392540Y241300D03*
X374540Y241300D03*
D18*
X843280Y111650D03*
X843280Y129650D03*
D13*
X822960Y181220D03*
X822960Y164220D03*
D19*
X759714Y166878D03*
X759714Y157480D03*
X759714Y148082D03*
X787146Y148082D03*
X787146Y166878D03*
D14*
X1062600Y406400D03*
X1045600Y406400D03*
X1185300Y-25400D03*
X1202300Y-25400D03*
X1062600Y431800D03*
X1045600Y431800D03*
D13*
X1308100Y982100D03*
X1308100Y999100D03*
X1079500Y664600D03*
X1079500Y681600D03*
X1282700Y982100D03*
X1282700Y999100D03*
D14*
X33900Y762000D03*
X16900Y762000D03*
X211700Y596900D03*
X194700Y596900D03*
X211700Y825500D03*
X194700Y825500D03*
D13*
X774700Y1223400D03*
X774700Y1240400D03*
X812800Y1223400D03*
X812800Y1240400D03*
X850900Y1223400D03*
X850900Y1240400D03*
X889000Y1223400D03*
X889000Y1240400D03*
D14*
X194700Y635000D03*
X211700Y635000D03*
X194700Y787400D03*
X211700Y787400D03*
X1204350Y1029970D03*
X1221350Y1029970D03*
M02*
