M48
;GenerationSoftware,Autodesk,EAGLE,9.7.0*%
;CreationDate,2024-08-14T18:28:25Z*%
FMAT,2
ICI,OFF
METRIC,TZ,000.000
T10C0.350
T9C0.813
T8C1.000
T7C1.040
T6C1.300
T5C1.854
T4C2.000
T3C3.050
T2C3.200
T1C4.318
%
G90
M71
T1
X231140Y124460
X5461Y77597
X231140Y3810
T2
X9017Y123594
X226060Y25250
X226060Y58570
X9017Y90274
T3
X7620Y67310
X7620Y3810
T4
X135250Y5080
X127000Y5080
X118090Y5080
X109840Y5080
X101590Y5080
X93340Y5080
X143500Y5080
X184130Y105410
X133970Y137160
X85090Y5080
X229850Y137160
X109220Y105410
X117470Y105410
X133970Y105410
X100310Y137160
X142220Y105410
X142220Y137160
X151130Y105410
X159380Y105410
X167630Y105410
X175880Y105410
X125720Y105410
X151750Y5080
X160000Y5080
X67310Y137160
X75560Y137160
X83810Y137160
X92060Y137160
X109220Y137160
X117470Y137160
X125720Y137160
X154940Y137160
X163190Y137160
X171440Y137160
X179690Y137160
X187940Y137160
X196850Y137160
X205100Y137160
X213350Y137160
X221600Y137160
T5
X24130Y13970
X33660Y13970
X43190Y13970
X52720Y13970
X71780Y13970
X17150Y143510
X26680Y143510
X36210Y143510
X45740Y143510
X55270Y143510
X62250Y13970
X7620Y143510
T6
X77530Y46990
X77530Y41950
X62230Y26690
X58480Y26690
X65980Y26690
X65980Y52030
X65980Y46990
X65980Y41950
X58480Y52030
X58480Y46990
X58480Y41950
X20380Y26690
X27880Y26690
X27880Y52030
X27880Y46990
X27880Y41950
X20380Y52030
X20380Y46990
X20380Y41950
X161230Y52030
X20380Y90190
X27880Y90190
X176530Y26690
X172780Y26690
X180280Y26690
X180280Y52030
X180280Y46990
X180280Y41950
X172780Y52030
X172780Y46990
X172780Y41950
X157480Y26690
X153730Y26690
X161230Y26690
X161230Y46990
X161230Y41950
X153730Y52030
X27880Y115530
X27880Y110490
X27880Y105450
X20380Y115530
X20380Y110490
X20380Y105450
X195580Y26690
X191830Y26690
X199330Y26690
X199330Y52030
X199330Y46990
X199330Y41950
X191830Y52030
X191830Y46990
X191830Y41950
X46930Y52030
X46930Y46990
X46930Y41950
X39430Y52030
X39430Y46990
X39430Y41950
X153730Y46990
X153730Y41950
X138430Y26690
X134680Y26690
X142180Y26690
X24130Y26690
X142180Y52030
X43180Y26690
X39430Y26690
X46930Y26690
X142180Y41950
X134680Y52030
X134680Y46990
X134680Y41950
X119380Y26690
X115630Y26690
X123130Y26690
X123130Y52030
X123130Y46990
X123130Y41950
X24130Y90190
X142180Y46990
X115630Y52030
X115630Y46990
X115630Y41950
X100330Y26690
X96580Y26690
X104080Y26690
X104080Y52030
X104080Y46990
X104080Y41950
X96580Y52030
X96580Y46990
X96580Y41950
X81280Y26690
X77530Y26690
X85030Y26690
X85030Y52030
X85030Y46990
X85030Y41950
X77530Y52030
T7
X6200Y28650
X6200Y39700
X6200Y31420
X6200Y36960
X6200Y34160
X9040Y30020
X9040Y60400
X9040Y57660
X9040Y54890
X9040Y52120
X9040Y49380
X9040Y46610
X9040Y43840
X9040Y41100
X9040Y38330
X9040Y35560
X9040Y32790
X9040Y27280
X9040Y24510
X9040Y21740
X9040Y19000
X9040Y16230
X9040Y13460
X9040Y10720
X6200Y59030
X6200Y12090
X6200Y56260
X6200Y14860
X6200Y53520
X6200Y17600
X6200Y50750
X6200Y20370
X6200Y47980
X6200Y23140
X6200Y45240
X6200Y25880
X6200Y42470
T8
X7597Y112414
X224640Y32320
X7597Y106934
X7597Y109674
X7597Y104194
X7597Y101454
X7597Y98714
X10437Y105564
X7597Y115154
X10437Y108304
X10437Y97344
X10437Y111044
X10437Y100084
X10437Y113784
X10437Y102824
X10437Y116524
X227480Y50130
X227480Y47390
X227480Y44650
X227480Y41910
X227480Y39170
X227480Y36430
X224640Y43280
X227480Y33690
X224640Y40540
X224640Y51500
X224640Y37800
X224640Y48760
X224640Y35060
X224640Y46020
T9
X121920Y128270
X105410Y120650
X105410Y128270
X121920Y120650
X124460Y120650
X124460Y128270
X140970Y120650
X140970Y128270
X143510Y120650
X143510Y128270
X158750Y120650
X158750Y128270
X161290Y120650
X161290Y128270
X175260Y120650
X175260Y128270
X177800Y120650
X177800Y128270
X191770Y120650
X191770Y128270
T10
X184785Y123571
X137375Y62015
X134620Y10160
X137160Y59566
X137160Y61084
X168275Y123698
X167005Y123698
X149225Y123825
X130175Y123825
X128905Y123825
X95885Y123952
X94615Y123952
X80645Y123825
X79375Y123825
X65405Y123698
X64135Y123698
X27940Y49530
X105410Y121920
X24511Y59055
X112395Y123952
X111125Y123952
X35560Y127000
X35560Y116840
X31750Y109220
X36830Y104140
X17270Y67818
X35814Y66421
X41910Y65659
X39370Y15240
X109220Y64770
X115570Y68580
X58420Y88900
X109909Y121920
X72390Y124460
X71120Y120650
X139700Y115570
X138430Y120650
X138430Y123190
X77470Y118110
X77470Y115570
X105410Y49530
X77343Y55753
X113030Y49530
X49530Y48260
X54610Y45720
X76200Y49530
X91440Y49530
X20320Y49530
X69850Y8890
X59944Y9398
X49530Y8890
X228600Y102870
X223520Y105410
X217170Y107950
X222250Y12700
X76200Y2540
X38100Y108873
X39370Y109635
X40640Y110470
X41910Y111306
X24130Y10160
X57150Y105410
X57150Y121920
X27940Y95250
X232410Y77470
X229870Y69850
X183515Y123571
X34290Y90170
X22352Y53975
X41958Y73660
X35560Y73660
X134620Y54610
X144780Y69850
X17780Y52070
X81280Y71120
X17780Y72390
X42926Y112141
X46990Y116840
X48260Y118110
X219075Y123698
X217805Y123698
X201295Y123571
X200025Y123571
M30