G04 EAGLE Gerber RS-274X export*
G75*
%MOMM*%
%FSLAX34Y34*%
%LPD*%
%INSoldermask Bottom*%
%IPPOS*%
%AMOC8*
5,1,8,0,0,1.08239X$1,22.5*%
G01*
G04 Define Apertures*
%ADD10C,4.521200*%
%ADD11R,1.403200X1.003200*%
%ADD12R,1.203200X1.303200*%
%ADD13R,2.203200X2.203200*%
%ADD14C,0.850800*%
%ADD15R,2.984200X2.984200*%
%ADD16C,2.984200*%
%ADD17R,1.711200X1.711200*%
%ADD18C,1.711200*%
%ADD19C,3.403200*%
%ADD20C,3.253200*%
%ADD21R,1.763200X1.763200*%
%ADD22C,1.763200*%
%ADD23C,2.153200*%
%ADD24R,1.303200X1.203200*%
%ADD25C,0.353406*%
%ADD26R,11.003200X10.613200*%
%ADD27R,1.270000X3.203200*%
%ADD28C,4.013200*%
%ADD29R,0.703200X0.853200*%
%ADD30P,1.64956X8X112.5*%
%ADD31R,0.853200X0.703200*%
%ADD32C,0.959600*%
D10*
X2311400Y38100D03*
X2311400Y1244600D03*
X54610Y775970D03*
D11*
X571500Y892700D03*
X571500Y910700D03*
D12*
X165100Y474100D03*
X165100Y491100D03*
X1117600Y474100D03*
X1117600Y491100D03*
X1308100Y474100D03*
X1308100Y491100D03*
X1498600Y474100D03*
X1498600Y491100D03*
X1689100Y474100D03*
X1689100Y491100D03*
X1879600Y474100D03*
X1879600Y491100D03*
X317500Y1147200D03*
X317500Y1164200D03*
D11*
X495300Y796400D03*
X495300Y778400D03*
X520700Y796400D03*
X520700Y778400D03*
X546100Y796400D03*
X546100Y778400D03*
X571500Y796400D03*
X571500Y778400D03*
D12*
X355600Y474100D03*
X355600Y491100D03*
X546100Y474100D03*
X546100Y491100D03*
X736600Y474100D03*
X736600Y491100D03*
X927100Y474100D03*
X927100Y491100D03*
D13*
X644300Y914400D03*
X600300Y914400D03*
D14*
X598038Y873262D02*
X646562Y873262D01*
X646562Y847738D01*
X598038Y847738D01*
X598038Y873262D01*
X598038Y855821D02*
X646562Y855821D01*
X646562Y863904D02*
X598038Y863904D01*
X598038Y871987D02*
X646562Y871987D01*
X646562Y808262D02*
X598038Y808262D01*
X646562Y808262D02*
X646562Y782738D01*
X598038Y782738D01*
X598038Y808262D01*
X598038Y790821D02*
X646562Y790821D01*
X646562Y798904D02*
X598038Y798904D01*
X598038Y806987D02*
X646562Y806987D01*
D15*
X241300Y139700D03*
D16*
X336600Y139700D03*
X431900Y139700D03*
X527200Y139700D03*
X622500Y139700D03*
X717800Y139700D03*
D17*
X2246400Y323200D03*
D18*
X2246400Y460200D03*
X2246400Y350600D03*
X2246400Y487600D03*
X2246400Y378000D03*
X2246400Y515000D03*
X2246400Y405400D03*
X2274800Y336900D03*
X2246400Y432800D03*
X2274800Y364300D03*
X2274800Y391700D03*
X2274800Y419100D03*
X2274800Y446500D03*
X2274800Y473900D03*
X2274800Y501300D03*
D19*
X2260600Y252500D03*
X2260600Y585700D03*
D20*
X76200Y673100D03*
X76200Y38100D03*
D21*
X90400Y604000D03*
D22*
X90400Y576600D03*
X90400Y548900D03*
X90400Y521200D03*
X90400Y493800D03*
X90400Y466100D03*
X90400Y438400D03*
X90400Y411000D03*
X90400Y383300D03*
X90400Y355600D03*
X90400Y327900D03*
X90400Y300200D03*
X90400Y272800D03*
X90400Y245100D03*
X90400Y217400D03*
X90400Y190000D03*
X90400Y162300D03*
X90400Y134600D03*
X90400Y107200D03*
X62000Y590300D03*
X62000Y120900D03*
X62000Y562600D03*
X62000Y148600D03*
X62000Y535200D03*
X62000Y176000D03*
X62000Y507500D03*
X62000Y203700D03*
X62000Y479800D03*
X62000Y231400D03*
X62000Y452400D03*
X62000Y258800D03*
X62000Y424700D03*
X62000Y286500D03*
X62000Y397000D03*
X62000Y314200D03*
X62000Y369600D03*
X62000Y341600D03*
D15*
X76200Y1435100D03*
D16*
X171500Y1435100D03*
X266800Y1435100D03*
X362100Y1435100D03*
X457400Y1435100D03*
X552700Y1435100D03*
D17*
X104370Y1165240D03*
D18*
X104370Y1028240D03*
X104370Y1137840D03*
X104370Y1000840D03*
X104370Y1110440D03*
X104370Y973440D03*
X104370Y1083040D03*
X75970Y1151540D03*
X104370Y1055640D03*
X75970Y1124140D03*
X75970Y1096740D03*
X75970Y1069340D03*
X75970Y1041940D03*
X75970Y1014540D03*
X75970Y987140D03*
D19*
X90170Y1235940D03*
X90170Y902740D03*
D23*
X394300Y419500D03*
X394300Y469900D03*
X394300Y520300D03*
X469300Y419500D03*
X469300Y469900D03*
X469300Y520300D03*
X469300Y266900D03*
X394300Y266900D03*
X431800Y266900D03*
X1918300Y419500D03*
X1918300Y469900D03*
X1918300Y520300D03*
X1993300Y419500D03*
X1993300Y469900D03*
X1993300Y520300D03*
X1993300Y266900D03*
X1918300Y266900D03*
X1955800Y266900D03*
X203800Y1054500D03*
X203800Y1104900D03*
X203800Y1155300D03*
X278800Y1054500D03*
X278800Y1104900D03*
X278800Y1155300D03*
X278800Y901900D03*
X203800Y901900D03*
X241300Y901900D03*
X203800Y419500D03*
X203800Y469900D03*
X203800Y520300D03*
X278800Y419500D03*
X278800Y469900D03*
X278800Y520300D03*
X278800Y266900D03*
X203800Y266900D03*
X241300Y266900D03*
X584800Y419500D03*
X584800Y469900D03*
X584800Y520300D03*
X659800Y419500D03*
X659800Y469900D03*
X659800Y520300D03*
X659800Y266900D03*
X584800Y266900D03*
X622300Y266900D03*
X775300Y419500D03*
X775300Y469900D03*
X775300Y520300D03*
X850300Y419500D03*
X850300Y469900D03*
X850300Y520300D03*
X850300Y266900D03*
X775300Y266900D03*
X812800Y266900D03*
X965800Y419500D03*
X965800Y469900D03*
X965800Y520300D03*
X1040800Y419500D03*
X1040800Y469900D03*
X1040800Y520300D03*
X1040800Y266900D03*
X965800Y266900D03*
X1003300Y266900D03*
X1156300Y419500D03*
X1156300Y469900D03*
X1156300Y520300D03*
X1231300Y419500D03*
X1231300Y469900D03*
X1231300Y520300D03*
X1231300Y266900D03*
X1156300Y266900D03*
X1193800Y266900D03*
X1346800Y419500D03*
X1346800Y469900D03*
X1346800Y520300D03*
X1421800Y419500D03*
X1421800Y469900D03*
X1421800Y520300D03*
X1421800Y266900D03*
X1346800Y266900D03*
X1384300Y266900D03*
X1537300Y419500D03*
X1537300Y469900D03*
X1537300Y520300D03*
X1612300Y419500D03*
X1612300Y469900D03*
X1612300Y520300D03*
X1612300Y266900D03*
X1537300Y266900D03*
X1574800Y266900D03*
X1727800Y419500D03*
X1727800Y469900D03*
X1727800Y520300D03*
X1802800Y419500D03*
X1802800Y469900D03*
X1802800Y520300D03*
X1802800Y266900D03*
X1727800Y266900D03*
X1765300Y266900D03*
D24*
X694300Y965200D03*
X677300Y965200D03*
D25*
X187549Y575601D02*
X169351Y575601D01*
X169351Y580099D01*
X187549Y580099D01*
X187549Y575601D01*
X187549Y578958D02*
X169351Y578958D01*
X169351Y588301D02*
X187549Y588301D01*
X169351Y588301D02*
X169351Y592799D01*
X187549Y592799D01*
X187549Y588301D01*
X187549Y591658D02*
X169351Y591658D01*
X169351Y601001D02*
X187549Y601001D01*
X169351Y601001D02*
X169351Y605499D01*
X187549Y605499D01*
X187549Y601001D01*
X187549Y604358D02*
X169351Y604358D01*
X169351Y613701D02*
X187549Y613701D01*
X169351Y613701D02*
X169351Y618199D01*
X187549Y618199D01*
X187549Y613701D01*
X187549Y617058D02*
X169351Y617058D01*
X169351Y626401D02*
X187549Y626401D01*
X169351Y626401D02*
X169351Y630899D01*
X187549Y630899D01*
X187549Y626401D01*
X187549Y629758D02*
X169351Y629758D01*
X169351Y639101D02*
X187549Y639101D01*
X169351Y639101D02*
X169351Y643599D01*
X187549Y643599D01*
X187549Y639101D01*
X187549Y642458D02*
X169351Y642458D01*
X169351Y651801D02*
X187549Y651801D01*
X169351Y651801D02*
X169351Y656299D01*
X187549Y656299D01*
X187549Y651801D01*
X187549Y655158D02*
X169351Y655158D01*
X169351Y664501D02*
X187549Y664501D01*
X169351Y664501D02*
X169351Y668999D01*
X187549Y668999D01*
X187549Y664501D01*
X187549Y667858D02*
X169351Y667858D01*
X218851Y664501D02*
X237049Y664501D01*
X218851Y664501D02*
X218851Y668999D01*
X237049Y668999D01*
X237049Y664501D01*
X237049Y667858D02*
X218851Y667858D01*
X218851Y651801D02*
X237049Y651801D01*
X218851Y651801D02*
X218851Y656299D01*
X237049Y656299D01*
X237049Y651801D01*
X237049Y655158D02*
X218851Y655158D01*
X218851Y639101D02*
X237049Y639101D01*
X218851Y639101D02*
X218851Y643599D01*
X237049Y643599D01*
X237049Y639101D01*
X237049Y642458D02*
X218851Y642458D01*
X218851Y626401D02*
X237049Y626401D01*
X218851Y626401D02*
X218851Y630899D01*
X237049Y630899D01*
X237049Y626401D01*
X237049Y629758D02*
X218851Y629758D01*
X218851Y613701D02*
X237049Y613701D01*
X218851Y613701D02*
X218851Y618199D01*
X237049Y618199D01*
X237049Y613701D01*
X237049Y617058D02*
X218851Y617058D01*
X218851Y601001D02*
X237049Y601001D01*
X218851Y601001D02*
X218851Y605499D01*
X237049Y605499D01*
X237049Y601001D01*
X237049Y604358D02*
X218851Y604358D01*
X218851Y588301D02*
X237049Y588301D01*
X218851Y588301D02*
X218851Y592799D01*
X237049Y592799D01*
X237049Y588301D01*
X237049Y591658D02*
X218851Y591658D01*
X218851Y575601D02*
X237049Y575601D01*
X218851Y575601D02*
X218851Y580099D01*
X237049Y580099D01*
X237049Y575601D01*
X237049Y578958D02*
X218851Y578958D01*
X1490001Y1247501D02*
X1490001Y1265699D01*
X1494499Y1265699D01*
X1494499Y1247501D01*
X1490001Y1247501D01*
X1490001Y1250858D02*
X1494499Y1250858D01*
X1494499Y1254215D02*
X1490001Y1254215D01*
X1490001Y1257572D02*
X1494499Y1257572D01*
X1494499Y1260929D02*
X1490001Y1260929D01*
X1490001Y1264286D02*
X1494499Y1264286D01*
X1502701Y1265699D02*
X1502701Y1247501D01*
X1502701Y1265699D02*
X1507199Y1265699D01*
X1507199Y1247501D01*
X1502701Y1247501D01*
X1502701Y1250858D02*
X1507199Y1250858D01*
X1507199Y1254215D02*
X1502701Y1254215D01*
X1502701Y1257572D02*
X1507199Y1257572D01*
X1507199Y1260929D02*
X1502701Y1260929D01*
X1502701Y1264286D02*
X1507199Y1264286D01*
X1515401Y1265699D02*
X1515401Y1247501D01*
X1515401Y1265699D02*
X1519899Y1265699D01*
X1519899Y1247501D01*
X1515401Y1247501D01*
X1515401Y1250858D02*
X1519899Y1250858D01*
X1519899Y1254215D02*
X1515401Y1254215D01*
X1515401Y1257572D02*
X1519899Y1257572D01*
X1519899Y1260929D02*
X1515401Y1260929D01*
X1515401Y1264286D02*
X1519899Y1264286D01*
X1528101Y1265699D02*
X1528101Y1247501D01*
X1528101Y1265699D02*
X1532599Y1265699D01*
X1532599Y1247501D01*
X1528101Y1247501D01*
X1528101Y1250858D02*
X1532599Y1250858D01*
X1532599Y1254215D02*
X1528101Y1254215D01*
X1528101Y1257572D02*
X1532599Y1257572D01*
X1532599Y1260929D02*
X1528101Y1260929D01*
X1528101Y1264286D02*
X1532599Y1264286D01*
X1528101Y1216299D02*
X1528101Y1198101D01*
X1528101Y1216299D02*
X1532599Y1216299D01*
X1532599Y1198101D01*
X1528101Y1198101D01*
X1528101Y1201458D02*
X1532599Y1201458D01*
X1532599Y1204815D02*
X1528101Y1204815D01*
X1528101Y1208172D02*
X1532599Y1208172D01*
X1532599Y1211529D02*
X1528101Y1211529D01*
X1528101Y1214886D02*
X1532599Y1214886D01*
X1515401Y1216299D02*
X1515401Y1198101D01*
X1515401Y1216299D02*
X1519899Y1216299D01*
X1519899Y1198101D01*
X1515401Y1198101D01*
X1515401Y1201458D02*
X1519899Y1201458D01*
X1519899Y1204815D02*
X1515401Y1204815D01*
X1515401Y1208172D02*
X1519899Y1208172D01*
X1519899Y1211529D02*
X1515401Y1211529D01*
X1515401Y1214886D02*
X1519899Y1214886D01*
X1502701Y1216299D02*
X1502701Y1198101D01*
X1502701Y1216299D02*
X1507199Y1216299D01*
X1507199Y1198101D01*
X1502701Y1198101D01*
X1502701Y1201458D02*
X1507199Y1201458D01*
X1507199Y1204815D02*
X1502701Y1204815D01*
X1502701Y1208172D02*
X1507199Y1208172D01*
X1507199Y1211529D02*
X1502701Y1211529D01*
X1502701Y1214886D02*
X1507199Y1214886D01*
X1490001Y1216299D02*
X1490001Y1198101D01*
X1490001Y1216299D02*
X1494499Y1216299D01*
X1494499Y1198101D01*
X1490001Y1198101D01*
X1490001Y1201458D02*
X1494499Y1201458D01*
X1494499Y1204815D02*
X1490001Y1204815D01*
X1490001Y1208172D02*
X1494499Y1208172D01*
X1494499Y1211529D02*
X1490001Y1211529D01*
X1490001Y1214886D02*
X1494499Y1214886D01*
X1667801Y1247501D02*
X1667801Y1265699D01*
X1672299Y1265699D01*
X1672299Y1247501D01*
X1667801Y1247501D01*
X1667801Y1250858D02*
X1672299Y1250858D01*
X1672299Y1254215D02*
X1667801Y1254215D01*
X1667801Y1257572D02*
X1672299Y1257572D01*
X1672299Y1260929D02*
X1667801Y1260929D01*
X1667801Y1264286D02*
X1672299Y1264286D01*
X1680501Y1265699D02*
X1680501Y1247501D01*
X1680501Y1265699D02*
X1684999Y1265699D01*
X1684999Y1247501D01*
X1680501Y1247501D01*
X1680501Y1250858D02*
X1684999Y1250858D01*
X1684999Y1254215D02*
X1680501Y1254215D01*
X1680501Y1257572D02*
X1684999Y1257572D01*
X1684999Y1260929D02*
X1680501Y1260929D01*
X1680501Y1264286D02*
X1684999Y1264286D01*
X1693201Y1265699D02*
X1693201Y1247501D01*
X1693201Y1265699D02*
X1697699Y1265699D01*
X1697699Y1247501D01*
X1693201Y1247501D01*
X1693201Y1250858D02*
X1697699Y1250858D01*
X1697699Y1254215D02*
X1693201Y1254215D01*
X1693201Y1257572D02*
X1697699Y1257572D01*
X1697699Y1260929D02*
X1693201Y1260929D01*
X1693201Y1264286D02*
X1697699Y1264286D01*
X1705901Y1265699D02*
X1705901Y1247501D01*
X1705901Y1265699D02*
X1710399Y1265699D01*
X1710399Y1247501D01*
X1705901Y1247501D01*
X1705901Y1250858D02*
X1710399Y1250858D01*
X1710399Y1254215D02*
X1705901Y1254215D01*
X1705901Y1257572D02*
X1710399Y1257572D01*
X1710399Y1260929D02*
X1705901Y1260929D01*
X1705901Y1264286D02*
X1710399Y1264286D01*
X1705901Y1216299D02*
X1705901Y1198101D01*
X1705901Y1216299D02*
X1710399Y1216299D01*
X1710399Y1198101D01*
X1705901Y1198101D01*
X1705901Y1201458D02*
X1710399Y1201458D01*
X1710399Y1204815D02*
X1705901Y1204815D01*
X1705901Y1208172D02*
X1710399Y1208172D01*
X1710399Y1211529D02*
X1705901Y1211529D01*
X1705901Y1214886D02*
X1710399Y1214886D01*
X1693201Y1216299D02*
X1693201Y1198101D01*
X1693201Y1216299D02*
X1697699Y1216299D01*
X1697699Y1198101D01*
X1693201Y1198101D01*
X1693201Y1201458D02*
X1697699Y1201458D01*
X1697699Y1204815D02*
X1693201Y1204815D01*
X1693201Y1208172D02*
X1697699Y1208172D01*
X1697699Y1211529D02*
X1693201Y1211529D01*
X1693201Y1214886D02*
X1697699Y1214886D01*
X1680501Y1216299D02*
X1680501Y1198101D01*
X1680501Y1216299D02*
X1684999Y1216299D01*
X1684999Y1198101D01*
X1680501Y1198101D01*
X1680501Y1201458D02*
X1684999Y1201458D01*
X1684999Y1204815D02*
X1680501Y1204815D01*
X1680501Y1208172D02*
X1684999Y1208172D01*
X1684999Y1211529D02*
X1680501Y1211529D01*
X1680501Y1214886D02*
X1684999Y1214886D01*
X1667801Y1216299D02*
X1667801Y1198101D01*
X1667801Y1216299D02*
X1672299Y1216299D01*
X1672299Y1198101D01*
X1667801Y1198101D01*
X1667801Y1201458D02*
X1672299Y1201458D01*
X1672299Y1204815D02*
X1667801Y1204815D01*
X1667801Y1208172D02*
X1672299Y1208172D01*
X1672299Y1211529D02*
X1667801Y1211529D01*
X1667801Y1214886D02*
X1672299Y1214886D01*
X1832901Y1247501D02*
X1832901Y1265699D01*
X1837399Y1265699D01*
X1837399Y1247501D01*
X1832901Y1247501D01*
X1832901Y1250858D02*
X1837399Y1250858D01*
X1837399Y1254215D02*
X1832901Y1254215D01*
X1832901Y1257572D02*
X1837399Y1257572D01*
X1837399Y1260929D02*
X1832901Y1260929D01*
X1832901Y1264286D02*
X1837399Y1264286D01*
X1845601Y1265699D02*
X1845601Y1247501D01*
X1845601Y1265699D02*
X1850099Y1265699D01*
X1850099Y1247501D01*
X1845601Y1247501D01*
X1845601Y1250858D02*
X1850099Y1250858D01*
X1850099Y1254215D02*
X1845601Y1254215D01*
X1845601Y1257572D02*
X1850099Y1257572D01*
X1850099Y1260929D02*
X1845601Y1260929D01*
X1845601Y1264286D02*
X1850099Y1264286D01*
X1858301Y1265699D02*
X1858301Y1247501D01*
X1858301Y1265699D02*
X1862799Y1265699D01*
X1862799Y1247501D01*
X1858301Y1247501D01*
X1858301Y1250858D02*
X1862799Y1250858D01*
X1862799Y1254215D02*
X1858301Y1254215D01*
X1858301Y1257572D02*
X1862799Y1257572D01*
X1862799Y1260929D02*
X1858301Y1260929D01*
X1858301Y1264286D02*
X1862799Y1264286D01*
X1871001Y1265699D02*
X1871001Y1247501D01*
X1871001Y1265699D02*
X1875499Y1265699D01*
X1875499Y1247501D01*
X1871001Y1247501D01*
X1871001Y1250858D02*
X1875499Y1250858D01*
X1875499Y1254215D02*
X1871001Y1254215D01*
X1871001Y1257572D02*
X1875499Y1257572D01*
X1875499Y1260929D02*
X1871001Y1260929D01*
X1871001Y1264286D02*
X1875499Y1264286D01*
X1871001Y1216299D02*
X1871001Y1198101D01*
X1871001Y1216299D02*
X1875499Y1216299D01*
X1875499Y1198101D01*
X1871001Y1198101D01*
X1871001Y1201458D02*
X1875499Y1201458D01*
X1875499Y1204815D02*
X1871001Y1204815D01*
X1871001Y1208172D02*
X1875499Y1208172D01*
X1875499Y1211529D02*
X1871001Y1211529D01*
X1871001Y1214886D02*
X1875499Y1214886D01*
X1858301Y1216299D02*
X1858301Y1198101D01*
X1858301Y1216299D02*
X1862799Y1216299D01*
X1862799Y1198101D01*
X1858301Y1198101D01*
X1858301Y1201458D02*
X1862799Y1201458D01*
X1862799Y1204815D02*
X1858301Y1204815D01*
X1858301Y1208172D02*
X1862799Y1208172D01*
X1862799Y1211529D02*
X1858301Y1211529D01*
X1858301Y1214886D02*
X1862799Y1214886D01*
X1845601Y1216299D02*
X1845601Y1198101D01*
X1845601Y1216299D02*
X1850099Y1216299D01*
X1850099Y1198101D01*
X1845601Y1198101D01*
X1845601Y1201458D02*
X1850099Y1201458D01*
X1850099Y1204815D02*
X1845601Y1204815D01*
X1845601Y1208172D02*
X1850099Y1208172D01*
X1850099Y1211529D02*
X1845601Y1211529D01*
X1845601Y1214886D02*
X1850099Y1214886D01*
X1832901Y1216299D02*
X1832901Y1198101D01*
X1832901Y1216299D02*
X1837399Y1216299D01*
X1837399Y1198101D01*
X1832901Y1198101D01*
X1832901Y1201458D02*
X1837399Y1201458D01*
X1837399Y1204815D02*
X1832901Y1204815D01*
X1832901Y1208172D02*
X1837399Y1208172D01*
X1837399Y1211529D02*
X1832901Y1211529D01*
X1832901Y1214886D02*
X1837399Y1214886D01*
X1998001Y1247501D02*
X1998001Y1265699D01*
X2002499Y1265699D01*
X2002499Y1247501D01*
X1998001Y1247501D01*
X1998001Y1250858D02*
X2002499Y1250858D01*
X2002499Y1254215D02*
X1998001Y1254215D01*
X1998001Y1257572D02*
X2002499Y1257572D01*
X2002499Y1260929D02*
X1998001Y1260929D01*
X1998001Y1264286D02*
X2002499Y1264286D01*
X2010701Y1265699D02*
X2010701Y1247501D01*
X2010701Y1265699D02*
X2015199Y1265699D01*
X2015199Y1247501D01*
X2010701Y1247501D01*
X2010701Y1250858D02*
X2015199Y1250858D01*
X2015199Y1254215D02*
X2010701Y1254215D01*
X2010701Y1257572D02*
X2015199Y1257572D01*
X2015199Y1260929D02*
X2010701Y1260929D01*
X2010701Y1264286D02*
X2015199Y1264286D01*
X2023401Y1265699D02*
X2023401Y1247501D01*
X2023401Y1265699D02*
X2027899Y1265699D01*
X2027899Y1247501D01*
X2023401Y1247501D01*
X2023401Y1250858D02*
X2027899Y1250858D01*
X2027899Y1254215D02*
X2023401Y1254215D01*
X2023401Y1257572D02*
X2027899Y1257572D01*
X2027899Y1260929D02*
X2023401Y1260929D01*
X2023401Y1264286D02*
X2027899Y1264286D01*
X2036101Y1265699D02*
X2036101Y1247501D01*
X2036101Y1265699D02*
X2040599Y1265699D01*
X2040599Y1247501D01*
X2036101Y1247501D01*
X2036101Y1250858D02*
X2040599Y1250858D01*
X2040599Y1254215D02*
X2036101Y1254215D01*
X2036101Y1257572D02*
X2040599Y1257572D01*
X2040599Y1260929D02*
X2036101Y1260929D01*
X2036101Y1264286D02*
X2040599Y1264286D01*
X2036101Y1216299D02*
X2036101Y1198101D01*
X2036101Y1216299D02*
X2040599Y1216299D01*
X2040599Y1198101D01*
X2036101Y1198101D01*
X2036101Y1201458D02*
X2040599Y1201458D01*
X2040599Y1204815D02*
X2036101Y1204815D01*
X2036101Y1208172D02*
X2040599Y1208172D01*
X2040599Y1211529D02*
X2036101Y1211529D01*
X2036101Y1214886D02*
X2040599Y1214886D01*
X2023401Y1216299D02*
X2023401Y1198101D01*
X2023401Y1216299D02*
X2027899Y1216299D01*
X2027899Y1198101D01*
X2023401Y1198101D01*
X2023401Y1201458D02*
X2027899Y1201458D01*
X2027899Y1204815D02*
X2023401Y1204815D01*
X2023401Y1208172D02*
X2027899Y1208172D01*
X2027899Y1211529D02*
X2023401Y1211529D01*
X2023401Y1214886D02*
X2027899Y1214886D01*
X2010701Y1216299D02*
X2010701Y1198101D01*
X2010701Y1216299D02*
X2015199Y1216299D01*
X2015199Y1198101D01*
X2010701Y1198101D01*
X2010701Y1201458D02*
X2015199Y1201458D01*
X2015199Y1204815D02*
X2010701Y1204815D01*
X2010701Y1208172D02*
X2015199Y1208172D01*
X2015199Y1211529D02*
X2010701Y1211529D01*
X2010701Y1214886D02*
X2015199Y1214886D01*
X1998001Y1216299D02*
X1998001Y1198101D01*
X1998001Y1216299D02*
X2002499Y1216299D01*
X2002499Y1198101D01*
X1998001Y1198101D01*
X1998001Y1201458D02*
X2002499Y1201458D01*
X2002499Y1204815D02*
X1998001Y1204815D01*
X1998001Y1208172D02*
X2002499Y1208172D01*
X2002499Y1211529D02*
X1998001Y1211529D01*
X1998001Y1214886D02*
X2002499Y1214886D01*
X2175801Y1247501D02*
X2175801Y1265699D01*
X2180299Y1265699D01*
X2180299Y1247501D01*
X2175801Y1247501D01*
X2175801Y1250858D02*
X2180299Y1250858D01*
X2180299Y1254215D02*
X2175801Y1254215D01*
X2175801Y1257572D02*
X2180299Y1257572D01*
X2180299Y1260929D02*
X2175801Y1260929D01*
X2175801Y1264286D02*
X2180299Y1264286D01*
X2188501Y1265699D02*
X2188501Y1247501D01*
X2188501Y1265699D02*
X2192999Y1265699D01*
X2192999Y1247501D01*
X2188501Y1247501D01*
X2188501Y1250858D02*
X2192999Y1250858D01*
X2192999Y1254215D02*
X2188501Y1254215D01*
X2188501Y1257572D02*
X2192999Y1257572D01*
X2192999Y1260929D02*
X2188501Y1260929D01*
X2188501Y1264286D02*
X2192999Y1264286D01*
X2201201Y1265699D02*
X2201201Y1247501D01*
X2201201Y1265699D02*
X2205699Y1265699D01*
X2205699Y1247501D01*
X2201201Y1247501D01*
X2201201Y1250858D02*
X2205699Y1250858D01*
X2205699Y1254215D02*
X2201201Y1254215D01*
X2201201Y1257572D02*
X2205699Y1257572D01*
X2205699Y1260929D02*
X2201201Y1260929D01*
X2201201Y1264286D02*
X2205699Y1264286D01*
X2213901Y1265699D02*
X2213901Y1247501D01*
X2213901Y1265699D02*
X2218399Y1265699D01*
X2218399Y1247501D01*
X2213901Y1247501D01*
X2213901Y1250858D02*
X2218399Y1250858D01*
X2218399Y1254215D02*
X2213901Y1254215D01*
X2213901Y1257572D02*
X2218399Y1257572D01*
X2218399Y1260929D02*
X2213901Y1260929D01*
X2213901Y1264286D02*
X2218399Y1264286D01*
X2213901Y1216299D02*
X2213901Y1198101D01*
X2213901Y1216299D02*
X2218399Y1216299D01*
X2218399Y1198101D01*
X2213901Y1198101D01*
X2213901Y1201458D02*
X2218399Y1201458D01*
X2218399Y1204815D02*
X2213901Y1204815D01*
X2213901Y1208172D02*
X2218399Y1208172D01*
X2218399Y1211529D02*
X2213901Y1211529D01*
X2213901Y1214886D02*
X2218399Y1214886D01*
X2201201Y1216299D02*
X2201201Y1198101D01*
X2201201Y1216299D02*
X2205699Y1216299D01*
X2205699Y1198101D01*
X2201201Y1198101D01*
X2201201Y1201458D02*
X2205699Y1201458D01*
X2205699Y1204815D02*
X2201201Y1204815D01*
X2201201Y1208172D02*
X2205699Y1208172D01*
X2205699Y1211529D02*
X2201201Y1211529D01*
X2201201Y1214886D02*
X2205699Y1214886D01*
X2188501Y1216299D02*
X2188501Y1198101D01*
X2188501Y1216299D02*
X2192999Y1216299D01*
X2192999Y1198101D01*
X2188501Y1198101D01*
X2188501Y1201458D02*
X2192999Y1201458D01*
X2192999Y1204815D02*
X2188501Y1204815D01*
X2188501Y1208172D02*
X2192999Y1208172D01*
X2192999Y1211529D02*
X2188501Y1211529D01*
X2188501Y1214886D02*
X2192999Y1214886D01*
X2175801Y1216299D02*
X2175801Y1198101D01*
X2175801Y1216299D02*
X2180299Y1216299D01*
X2180299Y1198101D01*
X2175801Y1198101D01*
X2175801Y1201458D02*
X2180299Y1201458D01*
X2180299Y1204815D02*
X2175801Y1204815D01*
X2175801Y1208172D02*
X2180299Y1208172D01*
X2180299Y1211529D02*
X2175801Y1211529D01*
X2175801Y1214886D02*
X2180299Y1214886D01*
D26*
X508000Y987900D03*
D27*
X542036Y894588D03*
X525018Y894588D03*
X508000Y894588D03*
X490982Y894588D03*
X473964Y894588D03*
D25*
X804351Y562901D02*
X822549Y562901D01*
X804351Y562901D02*
X804351Y567399D01*
X822549Y567399D01*
X822549Y562901D01*
X822549Y566258D02*
X804351Y566258D01*
X804351Y575601D02*
X822549Y575601D01*
X804351Y575601D02*
X804351Y580099D01*
X822549Y580099D01*
X822549Y575601D01*
X822549Y578958D02*
X804351Y578958D01*
X804351Y588301D02*
X822549Y588301D01*
X804351Y588301D02*
X804351Y592799D01*
X822549Y592799D01*
X822549Y588301D01*
X822549Y591658D02*
X804351Y591658D01*
X804351Y601001D02*
X822549Y601001D01*
X804351Y601001D02*
X804351Y605499D01*
X822549Y605499D01*
X822549Y601001D01*
X822549Y604358D02*
X804351Y604358D01*
X804351Y613701D02*
X822549Y613701D01*
X804351Y613701D02*
X804351Y618199D01*
X822549Y618199D01*
X822549Y613701D01*
X822549Y617058D02*
X804351Y617058D01*
X804351Y626401D02*
X822549Y626401D01*
X804351Y626401D02*
X804351Y630899D01*
X822549Y630899D01*
X822549Y626401D01*
X822549Y629758D02*
X804351Y629758D01*
X804351Y639101D02*
X822549Y639101D01*
X804351Y639101D02*
X804351Y643599D01*
X822549Y643599D01*
X822549Y639101D01*
X822549Y642458D02*
X804351Y642458D01*
X804351Y651801D02*
X822549Y651801D01*
X804351Y651801D02*
X804351Y656299D01*
X822549Y656299D01*
X822549Y651801D01*
X822549Y655158D02*
X804351Y655158D01*
X853851Y651801D02*
X872049Y651801D01*
X853851Y651801D02*
X853851Y656299D01*
X872049Y656299D01*
X872049Y651801D01*
X872049Y655158D02*
X853851Y655158D01*
X853851Y639101D02*
X872049Y639101D01*
X853851Y639101D02*
X853851Y643599D01*
X872049Y643599D01*
X872049Y639101D01*
X872049Y642458D02*
X853851Y642458D01*
X853851Y626401D02*
X872049Y626401D01*
X853851Y626401D02*
X853851Y630899D01*
X872049Y630899D01*
X872049Y626401D01*
X872049Y629758D02*
X853851Y629758D01*
X853851Y613701D02*
X872049Y613701D01*
X853851Y613701D02*
X853851Y618199D01*
X872049Y618199D01*
X872049Y613701D01*
X872049Y617058D02*
X853851Y617058D01*
X853851Y601001D02*
X872049Y601001D01*
X853851Y601001D02*
X853851Y605499D01*
X872049Y605499D01*
X872049Y601001D01*
X872049Y604358D02*
X853851Y604358D01*
X853851Y588301D02*
X872049Y588301D01*
X853851Y588301D02*
X853851Y592799D01*
X872049Y592799D01*
X872049Y588301D01*
X872049Y591658D02*
X853851Y591658D01*
X853851Y575601D02*
X872049Y575601D01*
X853851Y575601D02*
X853851Y580099D01*
X872049Y580099D01*
X872049Y575601D01*
X872049Y578958D02*
X853851Y578958D01*
X853851Y562901D02*
X872049Y562901D01*
X853851Y562901D02*
X853851Y567399D01*
X872049Y567399D01*
X872049Y562901D01*
X872049Y566258D02*
X853851Y566258D01*
X1388551Y550201D02*
X1406749Y550201D01*
X1388551Y550201D02*
X1388551Y554699D01*
X1406749Y554699D01*
X1406749Y550201D01*
X1406749Y553558D02*
X1388551Y553558D01*
X1388551Y562901D02*
X1406749Y562901D01*
X1388551Y562901D02*
X1388551Y567399D01*
X1406749Y567399D01*
X1406749Y562901D01*
X1406749Y566258D02*
X1388551Y566258D01*
X1388551Y575601D02*
X1406749Y575601D01*
X1388551Y575601D02*
X1388551Y580099D01*
X1406749Y580099D01*
X1406749Y575601D01*
X1406749Y578958D02*
X1388551Y578958D01*
X1388551Y588301D02*
X1406749Y588301D01*
X1388551Y588301D02*
X1388551Y592799D01*
X1406749Y592799D01*
X1406749Y588301D01*
X1406749Y591658D02*
X1388551Y591658D01*
X1388551Y601001D02*
X1406749Y601001D01*
X1388551Y601001D02*
X1388551Y605499D01*
X1406749Y605499D01*
X1406749Y601001D01*
X1406749Y604358D02*
X1388551Y604358D01*
X1388551Y613701D02*
X1406749Y613701D01*
X1388551Y613701D02*
X1388551Y618199D01*
X1406749Y618199D01*
X1406749Y613701D01*
X1406749Y617058D02*
X1388551Y617058D01*
X1388551Y626401D02*
X1406749Y626401D01*
X1388551Y626401D02*
X1388551Y630899D01*
X1406749Y630899D01*
X1406749Y626401D01*
X1406749Y629758D02*
X1388551Y629758D01*
X1388551Y639101D02*
X1406749Y639101D01*
X1388551Y639101D02*
X1388551Y643599D01*
X1406749Y643599D01*
X1406749Y639101D01*
X1406749Y642458D02*
X1388551Y642458D01*
X1438051Y639101D02*
X1456249Y639101D01*
X1438051Y639101D02*
X1438051Y643599D01*
X1456249Y643599D01*
X1456249Y639101D01*
X1456249Y642458D02*
X1438051Y642458D01*
X1438051Y626401D02*
X1456249Y626401D01*
X1438051Y626401D02*
X1438051Y630899D01*
X1456249Y630899D01*
X1456249Y626401D01*
X1456249Y629758D02*
X1438051Y629758D01*
X1438051Y613701D02*
X1456249Y613701D01*
X1438051Y613701D02*
X1438051Y618199D01*
X1456249Y618199D01*
X1456249Y613701D01*
X1456249Y617058D02*
X1438051Y617058D01*
X1438051Y601001D02*
X1456249Y601001D01*
X1438051Y601001D02*
X1438051Y605499D01*
X1456249Y605499D01*
X1456249Y601001D01*
X1456249Y604358D02*
X1438051Y604358D01*
X1438051Y588301D02*
X1456249Y588301D01*
X1438051Y588301D02*
X1438051Y592799D01*
X1456249Y592799D01*
X1456249Y588301D01*
X1456249Y591658D02*
X1438051Y591658D01*
X1438051Y575601D02*
X1456249Y575601D01*
X1438051Y575601D02*
X1438051Y580099D01*
X1456249Y580099D01*
X1456249Y575601D01*
X1456249Y578958D02*
X1438051Y578958D01*
X1438051Y562901D02*
X1456249Y562901D01*
X1438051Y562901D02*
X1438051Y567399D01*
X1456249Y567399D01*
X1456249Y562901D01*
X1456249Y566258D02*
X1438051Y566258D01*
X1438051Y550201D02*
X1456249Y550201D01*
X1438051Y550201D02*
X1438051Y554699D01*
X1456249Y554699D01*
X1456249Y550201D01*
X1456249Y553558D02*
X1438051Y553558D01*
X639101Y1247501D02*
X639101Y1265699D01*
X643599Y1265699D01*
X643599Y1247501D01*
X639101Y1247501D01*
X639101Y1250858D02*
X643599Y1250858D01*
X643599Y1254215D02*
X639101Y1254215D01*
X639101Y1257572D02*
X643599Y1257572D01*
X643599Y1260929D02*
X639101Y1260929D01*
X639101Y1264286D02*
X643599Y1264286D01*
X651801Y1265699D02*
X651801Y1247501D01*
X651801Y1265699D02*
X656299Y1265699D01*
X656299Y1247501D01*
X651801Y1247501D01*
X651801Y1250858D02*
X656299Y1250858D01*
X656299Y1254215D02*
X651801Y1254215D01*
X651801Y1257572D02*
X656299Y1257572D01*
X656299Y1260929D02*
X651801Y1260929D01*
X651801Y1264286D02*
X656299Y1264286D01*
X664501Y1265699D02*
X664501Y1247501D01*
X664501Y1265699D02*
X668999Y1265699D01*
X668999Y1247501D01*
X664501Y1247501D01*
X664501Y1250858D02*
X668999Y1250858D01*
X668999Y1254215D02*
X664501Y1254215D01*
X664501Y1257572D02*
X668999Y1257572D01*
X668999Y1260929D02*
X664501Y1260929D01*
X664501Y1264286D02*
X668999Y1264286D01*
X677201Y1265699D02*
X677201Y1247501D01*
X677201Y1265699D02*
X681699Y1265699D01*
X681699Y1247501D01*
X677201Y1247501D01*
X677201Y1250858D02*
X681699Y1250858D01*
X681699Y1254215D02*
X677201Y1254215D01*
X677201Y1257572D02*
X681699Y1257572D01*
X681699Y1260929D02*
X677201Y1260929D01*
X677201Y1264286D02*
X681699Y1264286D01*
X677201Y1216299D02*
X677201Y1198101D01*
X677201Y1216299D02*
X681699Y1216299D01*
X681699Y1198101D01*
X677201Y1198101D01*
X677201Y1201458D02*
X681699Y1201458D01*
X681699Y1204815D02*
X677201Y1204815D01*
X677201Y1208172D02*
X681699Y1208172D01*
X681699Y1211529D02*
X677201Y1211529D01*
X677201Y1214886D02*
X681699Y1214886D01*
X664501Y1216299D02*
X664501Y1198101D01*
X664501Y1216299D02*
X668999Y1216299D01*
X668999Y1198101D01*
X664501Y1198101D01*
X664501Y1201458D02*
X668999Y1201458D01*
X668999Y1204815D02*
X664501Y1204815D01*
X664501Y1208172D02*
X668999Y1208172D01*
X668999Y1211529D02*
X664501Y1211529D01*
X664501Y1214886D02*
X668999Y1214886D01*
X651801Y1216299D02*
X651801Y1198101D01*
X651801Y1216299D02*
X656299Y1216299D01*
X656299Y1198101D01*
X651801Y1198101D01*
X651801Y1201458D02*
X656299Y1201458D01*
X656299Y1204815D02*
X651801Y1204815D01*
X651801Y1208172D02*
X656299Y1208172D01*
X656299Y1211529D02*
X651801Y1211529D01*
X651801Y1214886D02*
X656299Y1214886D01*
X639101Y1216299D02*
X639101Y1198101D01*
X639101Y1216299D02*
X643599Y1216299D01*
X643599Y1198101D01*
X639101Y1198101D01*
X639101Y1201458D02*
X643599Y1201458D01*
X643599Y1204815D02*
X639101Y1204815D01*
X639101Y1208172D02*
X643599Y1208172D01*
X643599Y1211529D02*
X639101Y1211529D01*
X639101Y1214886D02*
X643599Y1214886D01*
X791501Y1247501D02*
X791501Y1265699D01*
X795999Y1265699D01*
X795999Y1247501D01*
X791501Y1247501D01*
X791501Y1250858D02*
X795999Y1250858D01*
X795999Y1254215D02*
X791501Y1254215D01*
X791501Y1257572D02*
X795999Y1257572D01*
X795999Y1260929D02*
X791501Y1260929D01*
X791501Y1264286D02*
X795999Y1264286D01*
X804201Y1265699D02*
X804201Y1247501D01*
X804201Y1265699D02*
X808699Y1265699D01*
X808699Y1247501D01*
X804201Y1247501D01*
X804201Y1250858D02*
X808699Y1250858D01*
X808699Y1254215D02*
X804201Y1254215D01*
X804201Y1257572D02*
X808699Y1257572D01*
X808699Y1260929D02*
X804201Y1260929D01*
X804201Y1264286D02*
X808699Y1264286D01*
X816901Y1265699D02*
X816901Y1247501D01*
X816901Y1265699D02*
X821399Y1265699D01*
X821399Y1247501D01*
X816901Y1247501D01*
X816901Y1250858D02*
X821399Y1250858D01*
X821399Y1254215D02*
X816901Y1254215D01*
X816901Y1257572D02*
X821399Y1257572D01*
X821399Y1260929D02*
X816901Y1260929D01*
X816901Y1264286D02*
X821399Y1264286D01*
X829601Y1265699D02*
X829601Y1247501D01*
X829601Y1265699D02*
X834099Y1265699D01*
X834099Y1247501D01*
X829601Y1247501D01*
X829601Y1250858D02*
X834099Y1250858D01*
X834099Y1254215D02*
X829601Y1254215D01*
X829601Y1257572D02*
X834099Y1257572D01*
X834099Y1260929D02*
X829601Y1260929D01*
X829601Y1264286D02*
X834099Y1264286D01*
X829601Y1216299D02*
X829601Y1198101D01*
X829601Y1216299D02*
X834099Y1216299D01*
X834099Y1198101D01*
X829601Y1198101D01*
X829601Y1201458D02*
X834099Y1201458D01*
X834099Y1204815D02*
X829601Y1204815D01*
X829601Y1208172D02*
X834099Y1208172D01*
X834099Y1211529D02*
X829601Y1211529D01*
X829601Y1214886D02*
X834099Y1214886D01*
X816901Y1216299D02*
X816901Y1198101D01*
X816901Y1216299D02*
X821399Y1216299D01*
X821399Y1198101D01*
X816901Y1198101D01*
X816901Y1201458D02*
X821399Y1201458D01*
X821399Y1204815D02*
X816901Y1204815D01*
X816901Y1208172D02*
X821399Y1208172D01*
X821399Y1211529D02*
X816901Y1211529D01*
X816901Y1214886D02*
X821399Y1214886D01*
X804201Y1216299D02*
X804201Y1198101D01*
X804201Y1216299D02*
X808699Y1216299D01*
X808699Y1198101D01*
X804201Y1198101D01*
X804201Y1201458D02*
X808699Y1201458D01*
X808699Y1204815D02*
X804201Y1204815D01*
X804201Y1208172D02*
X808699Y1208172D01*
X808699Y1211529D02*
X804201Y1211529D01*
X804201Y1214886D02*
X808699Y1214886D01*
X791501Y1216299D02*
X791501Y1198101D01*
X791501Y1216299D02*
X795999Y1216299D01*
X795999Y1198101D01*
X791501Y1198101D01*
X791501Y1201458D02*
X795999Y1201458D01*
X795999Y1204815D02*
X791501Y1204815D01*
X791501Y1208172D02*
X795999Y1208172D01*
X795999Y1211529D02*
X791501Y1211529D01*
X791501Y1214886D02*
X795999Y1214886D01*
X943901Y1247501D02*
X943901Y1265699D01*
X948399Y1265699D01*
X948399Y1247501D01*
X943901Y1247501D01*
X943901Y1250858D02*
X948399Y1250858D01*
X948399Y1254215D02*
X943901Y1254215D01*
X943901Y1257572D02*
X948399Y1257572D01*
X948399Y1260929D02*
X943901Y1260929D01*
X943901Y1264286D02*
X948399Y1264286D01*
X956601Y1265699D02*
X956601Y1247501D01*
X956601Y1265699D02*
X961099Y1265699D01*
X961099Y1247501D01*
X956601Y1247501D01*
X956601Y1250858D02*
X961099Y1250858D01*
X961099Y1254215D02*
X956601Y1254215D01*
X956601Y1257572D02*
X961099Y1257572D01*
X961099Y1260929D02*
X956601Y1260929D01*
X956601Y1264286D02*
X961099Y1264286D01*
X969301Y1265699D02*
X969301Y1247501D01*
X969301Y1265699D02*
X973799Y1265699D01*
X973799Y1247501D01*
X969301Y1247501D01*
X969301Y1250858D02*
X973799Y1250858D01*
X973799Y1254215D02*
X969301Y1254215D01*
X969301Y1257572D02*
X973799Y1257572D01*
X973799Y1260929D02*
X969301Y1260929D01*
X969301Y1264286D02*
X973799Y1264286D01*
X982001Y1265699D02*
X982001Y1247501D01*
X982001Y1265699D02*
X986499Y1265699D01*
X986499Y1247501D01*
X982001Y1247501D01*
X982001Y1250858D02*
X986499Y1250858D01*
X986499Y1254215D02*
X982001Y1254215D01*
X982001Y1257572D02*
X986499Y1257572D01*
X986499Y1260929D02*
X982001Y1260929D01*
X982001Y1264286D02*
X986499Y1264286D01*
X982001Y1216299D02*
X982001Y1198101D01*
X982001Y1216299D02*
X986499Y1216299D01*
X986499Y1198101D01*
X982001Y1198101D01*
X982001Y1201458D02*
X986499Y1201458D01*
X986499Y1204815D02*
X982001Y1204815D01*
X982001Y1208172D02*
X986499Y1208172D01*
X986499Y1211529D02*
X982001Y1211529D01*
X982001Y1214886D02*
X986499Y1214886D01*
X969301Y1216299D02*
X969301Y1198101D01*
X969301Y1216299D02*
X973799Y1216299D01*
X973799Y1198101D01*
X969301Y1198101D01*
X969301Y1201458D02*
X973799Y1201458D01*
X973799Y1204815D02*
X969301Y1204815D01*
X969301Y1208172D02*
X973799Y1208172D01*
X973799Y1211529D02*
X969301Y1211529D01*
X969301Y1214886D02*
X973799Y1214886D01*
X956601Y1216299D02*
X956601Y1198101D01*
X956601Y1216299D02*
X961099Y1216299D01*
X961099Y1198101D01*
X956601Y1198101D01*
X956601Y1201458D02*
X961099Y1201458D01*
X961099Y1204815D02*
X956601Y1204815D01*
X956601Y1208172D02*
X961099Y1208172D01*
X961099Y1211529D02*
X956601Y1211529D01*
X956601Y1214886D02*
X961099Y1214886D01*
X943901Y1216299D02*
X943901Y1198101D01*
X943901Y1216299D02*
X948399Y1216299D01*
X948399Y1198101D01*
X943901Y1198101D01*
X943901Y1201458D02*
X948399Y1201458D01*
X948399Y1204815D02*
X943901Y1204815D01*
X943901Y1208172D02*
X948399Y1208172D01*
X948399Y1211529D02*
X943901Y1211529D01*
X943901Y1214886D02*
X948399Y1214886D01*
X1109001Y1247501D02*
X1109001Y1265699D01*
X1113499Y1265699D01*
X1113499Y1247501D01*
X1109001Y1247501D01*
X1109001Y1250858D02*
X1113499Y1250858D01*
X1113499Y1254215D02*
X1109001Y1254215D01*
X1109001Y1257572D02*
X1113499Y1257572D01*
X1113499Y1260929D02*
X1109001Y1260929D01*
X1109001Y1264286D02*
X1113499Y1264286D01*
X1121701Y1265699D02*
X1121701Y1247501D01*
X1121701Y1265699D02*
X1126199Y1265699D01*
X1126199Y1247501D01*
X1121701Y1247501D01*
X1121701Y1250858D02*
X1126199Y1250858D01*
X1126199Y1254215D02*
X1121701Y1254215D01*
X1121701Y1257572D02*
X1126199Y1257572D01*
X1126199Y1260929D02*
X1121701Y1260929D01*
X1121701Y1264286D02*
X1126199Y1264286D01*
X1134401Y1265699D02*
X1134401Y1247501D01*
X1134401Y1265699D02*
X1138899Y1265699D01*
X1138899Y1247501D01*
X1134401Y1247501D01*
X1134401Y1250858D02*
X1138899Y1250858D01*
X1138899Y1254215D02*
X1134401Y1254215D01*
X1134401Y1257572D02*
X1138899Y1257572D01*
X1138899Y1260929D02*
X1134401Y1260929D01*
X1134401Y1264286D02*
X1138899Y1264286D01*
X1147101Y1265699D02*
X1147101Y1247501D01*
X1147101Y1265699D02*
X1151599Y1265699D01*
X1151599Y1247501D01*
X1147101Y1247501D01*
X1147101Y1250858D02*
X1151599Y1250858D01*
X1151599Y1254215D02*
X1147101Y1254215D01*
X1147101Y1257572D02*
X1151599Y1257572D01*
X1151599Y1260929D02*
X1147101Y1260929D01*
X1147101Y1264286D02*
X1151599Y1264286D01*
X1147101Y1216299D02*
X1147101Y1198101D01*
X1147101Y1216299D02*
X1151599Y1216299D01*
X1151599Y1198101D01*
X1147101Y1198101D01*
X1147101Y1201458D02*
X1151599Y1201458D01*
X1151599Y1204815D02*
X1147101Y1204815D01*
X1147101Y1208172D02*
X1151599Y1208172D01*
X1151599Y1211529D02*
X1147101Y1211529D01*
X1147101Y1214886D02*
X1151599Y1214886D01*
X1134401Y1216299D02*
X1134401Y1198101D01*
X1134401Y1216299D02*
X1138899Y1216299D01*
X1138899Y1198101D01*
X1134401Y1198101D01*
X1134401Y1201458D02*
X1138899Y1201458D01*
X1138899Y1204815D02*
X1134401Y1204815D01*
X1134401Y1208172D02*
X1138899Y1208172D01*
X1138899Y1211529D02*
X1134401Y1211529D01*
X1134401Y1214886D02*
X1138899Y1214886D01*
X1121701Y1216299D02*
X1121701Y1198101D01*
X1121701Y1216299D02*
X1126199Y1216299D01*
X1126199Y1198101D01*
X1121701Y1198101D01*
X1121701Y1201458D02*
X1126199Y1201458D01*
X1126199Y1204815D02*
X1121701Y1204815D01*
X1121701Y1208172D02*
X1126199Y1208172D01*
X1126199Y1211529D02*
X1121701Y1211529D01*
X1121701Y1214886D02*
X1126199Y1214886D01*
X1109001Y1216299D02*
X1109001Y1198101D01*
X1109001Y1216299D02*
X1113499Y1216299D01*
X1113499Y1198101D01*
X1109001Y1198101D01*
X1109001Y1201458D02*
X1113499Y1201458D01*
X1113499Y1204815D02*
X1109001Y1204815D01*
X1109001Y1208172D02*
X1113499Y1208172D01*
X1113499Y1211529D02*
X1109001Y1211529D01*
X1109001Y1214886D02*
X1113499Y1214886D01*
X1286801Y1247501D02*
X1286801Y1265699D01*
X1291299Y1265699D01*
X1291299Y1247501D01*
X1286801Y1247501D01*
X1286801Y1250858D02*
X1291299Y1250858D01*
X1291299Y1254215D02*
X1286801Y1254215D01*
X1286801Y1257572D02*
X1291299Y1257572D01*
X1291299Y1260929D02*
X1286801Y1260929D01*
X1286801Y1264286D02*
X1291299Y1264286D01*
X1299501Y1265699D02*
X1299501Y1247501D01*
X1299501Y1265699D02*
X1303999Y1265699D01*
X1303999Y1247501D01*
X1299501Y1247501D01*
X1299501Y1250858D02*
X1303999Y1250858D01*
X1303999Y1254215D02*
X1299501Y1254215D01*
X1299501Y1257572D02*
X1303999Y1257572D01*
X1303999Y1260929D02*
X1299501Y1260929D01*
X1299501Y1264286D02*
X1303999Y1264286D01*
X1312201Y1265699D02*
X1312201Y1247501D01*
X1312201Y1265699D02*
X1316699Y1265699D01*
X1316699Y1247501D01*
X1312201Y1247501D01*
X1312201Y1250858D02*
X1316699Y1250858D01*
X1316699Y1254215D02*
X1312201Y1254215D01*
X1312201Y1257572D02*
X1316699Y1257572D01*
X1316699Y1260929D02*
X1312201Y1260929D01*
X1312201Y1264286D02*
X1316699Y1264286D01*
X1324901Y1265699D02*
X1324901Y1247501D01*
X1324901Y1265699D02*
X1329399Y1265699D01*
X1329399Y1247501D01*
X1324901Y1247501D01*
X1324901Y1250858D02*
X1329399Y1250858D01*
X1329399Y1254215D02*
X1324901Y1254215D01*
X1324901Y1257572D02*
X1329399Y1257572D01*
X1329399Y1260929D02*
X1324901Y1260929D01*
X1324901Y1264286D02*
X1329399Y1264286D01*
X1324901Y1216299D02*
X1324901Y1198101D01*
X1324901Y1216299D02*
X1329399Y1216299D01*
X1329399Y1198101D01*
X1324901Y1198101D01*
X1324901Y1201458D02*
X1329399Y1201458D01*
X1329399Y1204815D02*
X1324901Y1204815D01*
X1324901Y1208172D02*
X1329399Y1208172D01*
X1329399Y1211529D02*
X1324901Y1211529D01*
X1324901Y1214886D02*
X1329399Y1214886D01*
X1312201Y1216299D02*
X1312201Y1198101D01*
X1312201Y1216299D02*
X1316699Y1216299D01*
X1316699Y1198101D01*
X1312201Y1198101D01*
X1312201Y1201458D02*
X1316699Y1201458D01*
X1316699Y1204815D02*
X1312201Y1204815D01*
X1312201Y1208172D02*
X1316699Y1208172D01*
X1316699Y1211529D02*
X1312201Y1211529D01*
X1312201Y1214886D02*
X1316699Y1214886D01*
X1299501Y1216299D02*
X1299501Y1198101D01*
X1299501Y1216299D02*
X1303999Y1216299D01*
X1303999Y1198101D01*
X1299501Y1198101D01*
X1299501Y1201458D02*
X1303999Y1201458D01*
X1303999Y1204815D02*
X1299501Y1204815D01*
X1299501Y1208172D02*
X1303999Y1208172D01*
X1303999Y1211529D02*
X1299501Y1211529D01*
X1299501Y1214886D02*
X1303999Y1214886D01*
X1286801Y1216299D02*
X1286801Y1198101D01*
X1286801Y1216299D02*
X1291299Y1216299D01*
X1291299Y1198101D01*
X1286801Y1198101D01*
X1286801Y1201458D02*
X1291299Y1201458D01*
X1291299Y1204815D02*
X1286801Y1204815D01*
X1286801Y1208172D02*
X1291299Y1208172D01*
X1291299Y1211529D02*
X1286801Y1211529D01*
X1286801Y1214886D02*
X1291299Y1214886D01*
D28*
X850900Y50800D03*
X933400Y50800D03*
X1015900Y50800D03*
X1098400Y50800D03*
X1180900Y50800D03*
X1270000Y50800D03*
X1352500Y50800D03*
X1435000Y50800D03*
X1517500Y50800D03*
X1600000Y50800D03*
X673100Y1371600D03*
X755600Y1371600D03*
X838100Y1371600D03*
X920600Y1371600D03*
X1003100Y1371600D03*
X1092200Y1371600D03*
X1174700Y1371600D03*
X1257200Y1371600D03*
X1339700Y1371600D03*
X1422200Y1371600D03*
X1549400Y1371600D03*
X1631900Y1371600D03*
X1714400Y1371600D03*
X1796900Y1371600D03*
X1879400Y1371600D03*
X1968500Y1371600D03*
X2051000Y1371600D03*
X2133500Y1371600D03*
X2216000Y1371600D03*
X2298500Y1371600D03*
D29*
X215200Y539350D03*
X207200Y539350D03*
X199200Y539350D03*
X191200Y539350D03*
X191200Y552850D03*
X199200Y552850D03*
X207200Y552850D03*
X215200Y552850D03*
D28*
X1092200Y1054100D03*
X1174700Y1054100D03*
X1257200Y1054100D03*
X1339700Y1054100D03*
X1422200Y1054100D03*
X1511300Y1054100D03*
X1593800Y1054100D03*
X1676300Y1054100D03*
X1758800Y1054100D03*
X1841300Y1054100D03*
D30*
X1054100Y1206500D03*
X1054100Y1282700D03*
X1219200Y1206500D03*
X1219200Y1282700D03*
X1244600Y1206500D03*
X1244600Y1282700D03*
X1409700Y1206500D03*
X1409700Y1282700D03*
X1435100Y1206500D03*
X1435100Y1282700D03*
X1587500Y1206500D03*
X1587500Y1282700D03*
X1612900Y1206500D03*
X1612900Y1282700D03*
X1752600Y1206500D03*
X1752600Y1282700D03*
X1778000Y1206500D03*
X1778000Y1282700D03*
X1917700Y1206500D03*
X1917700Y1282700D03*
D29*
X178500Y705250D03*
X186500Y705250D03*
X194500Y705250D03*
X202500Y705250D03*
X202500Y691750D03*
X194500Y691750D03*
X186500Y691750D03*
X178500Y691750D03*
D31*
X793350Y508700D03*
X793350Y516700D03*
X793350Y524700D03*
X793350Y532700D03*
X806850Y532700D03*
X806850Y524700D03*
X806850Y516700D03*
X806850Y508700D03*
D29*
X826200Y705250D03*
X834200Y705250D03*
X842200Y705250D03*
X850200Y705250D03*
X850200Y691750D03*
X842200Y691750D03*
X834200Y691750D03*
X826200Y691750D03*
X1396300Y501250D03*
X1388300Y501250D03*
X1380300Y501250D03*
X1372300Y501250D03*
X1372300Y514750D03*
X1380300Y514750D03*
X1388300Y514750D03*
X1396300Y514750D03*
X1410400Y692550D03*
X1418400Y692550D03*
X1426400Y692550D03*
X1434400Y692550D03*
X1434400Y679050D03*
X1426400Y679050D03*
X1418400Y679050D03*
X1410400Y679050D03*
D32*
X1155700Y685800D03*
X1092200Y647700D03*
X393700Y152400D03*
X419100Y656590D03*
X358140Y664210D03*
X172702Y678180D03*
X368300Y1041400D03*
X317500Y1092200D03*
X355600Y1168400D03*
X355600Y1270000D03*
X1111250Y1239520D03*
X1123950Y1239520D03*
X245110Y590550D03*
X1054100Y1219200D03*
X1099086Y1219200D03*
X641350Y1236980D03*
X654050Y1236980D03*
X793750Y1238250D03*
X806450Y1238250D03*
X946150Y1239520D03*
X958850Y1239520D03*
X1289050Y1238250D03*
X1301750Y1238250D03*
X1492250Y1238250D03*
X1670050Y1236980D03*
X1682750Y1236980D03*
X1371600Y610842D03*
X1371600Y595658D03*
X1346200Y101600D03*
X1373751Y620149D03*
X1835150Y1235710D03*
X1847850Y1235710D03*
X2000250Y1235710D03*
X2012950Y1235710D03*
X2178050Y1236980D03*
X2190750Y1236980D03*
X482600Y1181100D03*
X469900Y1168400D03*
X429260Y1121410D03*
X177800Y723900D03*
X812800Y711200D03*
X773430Y557530D03*
X177800Y520700D03*
X1447800Y698500D03*
X1346200Y546100D03*
X355600Y736600D03*
X419580Y736600D03*
X223520Y539750D03*
X342900Y901700D03*
X2298700Y698500D03*
X2324100Y774700D03*
X279400Y952500D03*
X241300Y101600D03*
X419100Y1113056D03*
X406400Y1104702D03*
X393700Y1096348D03*
X381000Y1088728D03*
X762000Y25400D03*
X2222500Y127000D03*
X2171700Y1079500D03*
X2235200Y1054100D03*
X2286000Y1028700D03*
X495300Y88900D03*
X599440Y93980D03*
X698500Y88900D03*
X279400Y495300D03*
X203200Y495300D03*
X914400Y495300D03*
X762000Y495300D03*
X546100Y457200D03*
X495300Y482600D03*
X1130300Y495300D03*
X1054100Y495300D03*
X774700Y1155700D03*
X774700Y1181100D03*
X1384300Y1231900D03*
X1384300Y1206500D03*
X1397000Y1155700D03*
X711200Y1206500D03*
X723900Y1244600D03*
X584200Y889000D03*
X571500Y1219200D03*
X571500Y1054100D03*
M02*
