M48
;GenerationSoftware,Autodesk,EAGLE,9.6.2*%
;CreationDate,2023-04-10T19:28:30Z*%
FMAT,2
ICI,OFF
METRIC,TZ,000.000
T4C0.350
T3C1.040
T2C2.000
T1C3.050
%
G90
M71
T1
X96520Y69850
X96520Y6350
X76200Y69850
X76200Y6350
X33020Y69850
X33020Y6350
X54610Y69850
X54610Y6350
X11430Y69850
X11430Y6350
X86360Y6096
X86360Y69596
X22352Y6223
X22352Y69723
X64770Y6096
X64770Y69596
X43307Y6096
X43307Y69596
T2
X-17780Y76180
X-17780Y67930
X-17780Y59680
X-17780Y51430
X-17780Y43180
X-17780Y34270
X-17780Y26020
X-17780Y17770
X-17780Y9520
X-17780Y1270
T3
X97940Y39500
X23772Y25553
X97940Y36700
X97940Y42240
X97940Y33960
X97940Y45010
X97940Y31190
X97940Y47780
X97940Y28420
X97940Y50520
X97940Y25680
X97940Y53290
X97940Y22910
X97940Y56060
X97940Y20140
X97940Y58800
X97940Y17400
X97940Y61570
X97940Y14630
X95100Y62940
X95100Y60200
X95100Y57430
X95100Y54660
X95100Y51920
X95100Y49150
X95100Y46380
X95100Y43640
X95100Y40870
X95100Y38100
X95100Y35330
X95100Y32560
X95100Y29820
X95100Y27050
X95100Y24280
X95100Y21540
X95100Y18770
X95100Y16000
X95100Y13260
X77620Y39500
X77620Y36700
X77620Y42240
X77620Y33960
X77620Y45010
X77620Y31190
X77620Y47780
X77620Y28420
X77620Y50520
X77620Y25680
X77620Y53290
X77620Y22910
X77620Y56060
X77620Y20140
X77620Y58800
X77620Y17400
X77620Y61570
X77620Y14630
X74780Y62940
X74780Y60200
X74780Y57430
X74780Y54660
X74780Y51920
X74780Y49150
X74780Y46380
X74780Y43640
X74780Y40870
X74780Y38100
X74780Y35330
X74780Y32560
X74780Y29820
X74780Y27050
X74780Y24280
X74780Y21540
X74780Y18770
X74780Y16000
X74780Y13260
X34440Y39500
X34440Y36700
X34440Y42240
X34440Y33960
X34440Y45010
X34440Y31190
X34440Y47780
X34440Y28420
X34440Y50520
X34440Y25680
X34440Y53290
X34440Y22910
X34440Y56060
X34440Y20140
X34440Y58800
X34440Y17400
X34440Y61570
X34440Y14630
X31600Y62940
X31600Y60200
X31600Y57430
X31600Y54660
X31600Y51920
X31600Y49150
X31600Y46380
X31600Y43640
X31600Y40870
X31600Y38100
X31600Y35330
X31600Y32560
X31600Y29820
X31600Y27050
X31600Y24280
X31600Y21540
X31600Y18770
X31600Y16000
X31600Y13260
X56030Y39500
X56030Y36700
X56030Y42240
X56030Y33960
X56030Y45010
X56030Y31190
X56030Y47780
X56030Y28420
X56030Y50520
X56030Y25680
X56030Y53290
X56030Y22910
X56030Y56060
X56030Y20140
X56030Y58800
X56030Y17400
X56030Y61570
X56030Y14630
X53190Y62940
X53190Y60200
X53190Y57430
X53190Y54660
X53190Y51920
X53190Y49150
X53190Y46380
X53190Y43640
X53190Y40870
X53190Y38100
X41887Y62686
X41887Y59946
X41887Y57176
X41887Y54406
X41887Y51666
X41887Y48896
X41887Y46126
X41887Y43386
X41887Y40616
X41887Y37846
X41887Y35076
X41887Y32306
X41887Y29566
X41887Y26796
X41887Y24026
X41887Y21286
X41887Y18516
X41887Y15746
X41887Y13006
X44727Y61316
X44727Y14376
X44727Y58546
X44727Y17146
X44727Y55806
X44727Y19886
X44727Y53036
X44727Y22656
X44727Y50266
X44727Y25426
X44727Y47526
X44727Y28166
X44727Y44756
X44727Y30936
X44727Y41986
X44727Y33706
X44727Y39246
X44727Y36446
X63350Y62686
X63350Y59946
X63350Y57176
X63350Y54406
X63350Y51666
X63350Y48896
X63350Y46126
X63350Y43386
X63350Y40616
X63350Y37846
X63350Y35076
X63350Y32306
X63350Y29566
X63350Y26796
X63350Y24026
X63350Y21286
X63350Y18516
X63350Y15746
X63350Y13006
X66190Y61316
X66190Y14376
X66190Y58546
X66190Y17146
X66190Y55806
X66190Y19886
X66190Y53036
X66190Y22656
X66190Y50266
X66190Y25426
X66190Y47526
X66190Y28166
X66190Y44756
X66190Y30936
X66190Y41986
X66190Y33706
X66190Y39246
X66190Y36446
X20932Y62813
X20932Y60073
X20932Y57303
X20932Y54533
X20932Y51793
X20932Y49023
X20932Y46253
X20932Y43513
X20932Y40743
X20932Y37973
X20932Y35203
X20932Y32433
X20932Y29693
X53190Y35330
X20932Y24153
X20932Y21413
X20932Y18643
X20932Y15873
X20932Y13133
X23772Y61443
X23772Y14503
X23772Y58673
X23772Y17273
X23772Y55933
X23772Y20013
X23772Y53163
X23772Y22783
X23772Y50393
X53190Y32560
X23772Y47653
X23772Y28293
X23772Y44883
X23772Y31063
X23772Y42113
X23772Y33833
X23772Y39373
X23772Y36573
X84940Y62686
X84940Y59946
X84940Y57176
X84940Y54406
X84940Y51666
X84940Y48896
X84940Y46126
X84940Y43386
X84940Y40616
X84940Y37846
X84940Y35076
X84940Y32306
X84940Y29566
X84940Y26796
X84940Y24026
X84940Y21286
X84940Y18516
X84940Y15746
X84940Y13006
X87780Y61316
X87780Y14376
X87780Y58546
X87780Y17146
X87780Y55806
X87780Y19886
X87780Y53036
X87780Y22656
X87780Y50266
X87780Y25426
X87780Y47526
X87780Y28166
X87780Y44756
X87780Y30936
X87780Y41986
X87780Y33706
X87780Y39246
X87780Y36446
X53190Y29820
X53190Y27050
X53190Y24280
X53190Y21540
X53190Y18770
X53190Y16000
X53190Y13260
X12850Y39500
X12850Y36700
X20932Y26923
X10010Y13260
X10010Y16000
X10010Y18770
X10010Y21540
X10010Y24280
X10010Y27050
X10010Y29820
X10010Y32560
X10010Y35330
X10010Y38100
X10010Y40870
X10010Y43640
X10010Y46380
X10010Y49150
X10010Y51920
X10010Y54660
X10010Y57430
X10010Y60200
X10010Y62940
X12850Y14630
X12850Y61570
X12850Y17400
X12850Y58800
X12850Y20140
X12850Y56060
X12850Y22910
X12850Y53290
X12850Y25680
X12850Y50520
X12850Y28420
X12850Y47780
X12850Y31190
X12850Y45010
X12850Y33960
X12850Y42240
T4
X681Y21875
X-1270Y20320
X25400Y33703
X-1270Y39370
X2540Y41910
X44831Y63754
X46482Y68072
X79121Y17653
X83566Y15240
X47752Y25273
X-175Y25400
X59563Y22098
X60960Y25400
X64262Y25019
X69088Y32258
X68961Y38100
X68326Y23368
X69850Y20320
X67818Y12065
X70866Y13335
X91694Y13081
X89154Y13208
X83820Y55880
X82550Y58420
X7620Y45720
X3810Y46990
X4572Y32639
X26670Y28695
X5080Y26670
X37338Y18161
X93599Y61087
X89662Y61087
X37719Y20828
X36449Y22860
X17145Y22098
X16510Y20320
X73279Y13335
X73152Y15367
X61595Y17272
X60325Y15240
X39370Y34290
X39370Y36830
X8890Y34290
X6350Y33020
X72483Y39370
X7620Y54610
X52070Y44450
X59690Y35560
X36183Y28055
X22777Y24047
X22243Y19042
X36767Y15825
X36902Y12628
X35560Y8890
X30226Y24511
X39497Y11938
X28056Y26343
X40894Y11224
X25629Y24663
X30482Y19506
X35322Y16429
X42959Y12209
X47625Y11430
X26284Y25321
X25085Y27321
X33020Y11430
X19050Y21590
X16339Y24301
X17780Y34658
X25400Y36830
X33229Y41597
X46246Y47135
X30317Y20969
X29210Y15240
X29210Y12577
X45720Y8890
X30424Y23602
X81280Y53340
X28223Y12113
X28074Y15106
X26670Y16728
X29210Y21971
X89223Y48583
X81280Y35560
X86581Y43815
X81026Y17018
X89091Y44450
X83820Y50800
X83729Y42743
X83629Y37597
X79388Y27940
X68580Y62230
X57341Y25927
X50900Y27305
X58707Y27884
X37338Y34925
X54610Y17085
X48222Y16548
X59944Y17145
X29060Y27917
X30310Y34120
X39624Y23114
X30099Y35814
X36581Y25400
X14732Y26543
X35789Y26899
X73012Y34823
X82169Y25908
X70609Y38608
X66040Y40640
X58420Y45720
X66040Y43297
X70533Y40640
X73250Y37995
X81373Y25127
X82550Y19050
X81788Y24257
X81280Y21590
X85239Y25416
X81320Y19958
X79914Y21590
X80854Y19139
X83528Y18758
X70609Y37338
X72483Y36830
X85090Y33617
X90853Y30480
X69532Y34862
X66040Y32247
X54610Y25282
X51822Y13662
X48260Y21590
X71875Y27257
X48743Y17755
X73279Y25908
X71800Y69170
X72438Y24327
X40640Y34290
X46495Y33304
X30131Y31528
X35968Y34932
X4909Y25229
X37417Y55880
X4191Y23241
X46990Y36830
X5080Y21590
X16510Y30480
X16510Y34658
X19050Y29210
X26289Y31465
M30