G04 EAGLE Gerber RS-274X export*
G75*
%MOMM*%
%FSLAX34Y34*%
%LPD*%
%IN*%
%IPPOS*%
%AMOC8*
5,1,8,0,0,1.08239X$1,22.5*%
G01*
%ADD10C,0.254000*%


D10*
X-279400Y-38100D02*
X1028500Y-38100D01*
X1028500Y809500D01*
X-279400Y809500D01*
X-279400Y-38100D01*
X433615Y680710D02*
X434701Y680788D01*
X435779Y680943D01*
X436844Y681174D01*
X437889Y681481D01*
X438910Y681862D01*
X439901Y682314D01*
X440857Y682836D01*
X441773Y683425D01*
X442645Y684078D01*
X443468Y684792D01*
X444239Y685562D01*
X444952Y686385D01*
X445605Y687257D01*
X446194Y688173D01*
X446716Y689130D01*
X447168Y690120D01*
X447549Y691141D01*
X447856Y692186D01*
X448087Y693251D01*
X448242Y694329D01*
X448320Y695415D01*
X448320Y696505D01*
X448242Y697591D01*
X448087Y698669D01*
X447856Y699734D01*
X447549Y700779D01*
X447168Y701800D01*
X446716Y702791D01*
X446194Y703747D01*
X445605Y704663D01*
X444952Y705535D01*
X444239Y706358D01*
X443468Y707129D01*
X442645Y707842D01*
X441773Y708495D01*
X440857Y709084D01*
X439901Y709606D01*
X438910Y710058D01*
X437889Y710439D01*
X436844Y710746D01*
X435779Y710977D01*
X434701Y711132D01*
X433615Y711210D01*
X432525Y711210D01*
X431439Y711132D01*
X430361Y710977D01*
X429296Y710746D01*
X428251Y710439D01*
X427230Y710058D01*
X426240Y709606D01*
X425283Y709084D01*
X424367Y708495D01*
X423495Y707842D01*
X422672Y707129D01*
X421902Y706358D01*
X421188Y705535D01*
X420535Y704663D01*
X419946Y703747D01*
X419424Y702791D01*
X418972Y701800D01*
X418591Y700779D01*
X418284Y699734D01*
X418053Y698669D01*
X417898Y697591D01*
X417820Y696505D01*
X417820Y695415D01*
X417898Y694329D01*
X418053Y693251D01*
X418284Y692186D01*
X418591Y691141D01*
X418972Y690120D01*
X419424Y689130D01*
X419946Y688173D01*
X420535Y687257D01*
X421188Y686385D01*
X421902Y685562D01*
X422672Y684792D01*
X423495Y684078D01*
X424367Y683425D01*
X425283Y682836D01*
X426240Y682314D01*
X427230Y681862D01*
X428251Y681481D01*
X429296Y681174D01*
X430361Y680943D01*
X431439Y680788D01*
X432525Y680710D01*
X433615Y680710D01*
X433615Y45710D02*
X434701Y45788D01*
X435779Y45943D01*
X436844Y46174D01*
X437889Y46481D01*
X438910Y46862D01*
X439901Y47314D01*
X440857Y47836D01*
X441773Y48425D01*
X442645Y49078D01*
X443468Y49792D01*
X444239Y50562D01*
X444952Y51385D01*
X445605Y52257D01*
X446194Y53173D01*
X446716Y54130D01*
X447168Y55120D01*
X447549Y56141D01*
X447856Y57186D01*
X448087Y58251D01*
X448242Y59329D01*
X448320Y60415D01*
X448320Y61505D01*
X448242Y62591D01*
X448087Y63669D01*
X447856Y64734D01*
X447549Y65779D01*
X447168Y66800D01*
X446716Y67791D01*
X446194Y68747D01*
X445605Y69663D01*
X444952Y70535D01*
X444239Y71358D01*
X443468Y72129D01*
X442645Y72842D01*
X441773Y73495D01*
X440857Y74084D01*
X439901Y74606D01*
X438910Y75058D01*
X437889Y75439D01*
X436844Y75746D01*
X435779Y75977D01*
X434701Y76132D01*
X433615Y76210D01*
X432525Y76210D01*
X431439Y76132D01*
X430361Y75977D01*
X429296Y75746D01*
X428251Y75439D01*
X427230Y75058D01*
X426240Y74606D01*
X425283Y74084D01*
X424367Y73495D01*
X423495Y72842D01*
X422672Y72129D01*
X421902Y71358D01*
X421188Y70535D01*
X420535Y69663D01*
X419946Y68747D01*
X419424Y67791D01*
X418972Y66800D01*
X418591Y65779D01*
X418284Y64734D01*
X418053Y63669D01*
X417898Y62591D01*
X417820Y61505D01*
X417820Y60415D01*
X417898Y59329D01*
X418053Y58251D01*
X418284Y57186D01*
X418591Y56141D01*
X418972Y55120D01*
X419424Y54130D01*
X419946Y53173D01*
X420535Y52257D01*
X421188Y51385D01*
X421902Y50562D01*
X422672Y49792D01*
X423495Y49078D01*
X424367Y48425D01*
X425283Y47836D01*
X426240Y47314D01*
X427230Y46862D01*
X428251Y46481D01*
X429296Y46174D01*
X430361Y45943D01*
X431439Y45788D01*
X432525Y45710D01*
X433615Y45710D01*
X648245Y680710D02*
X649331Y680788D01*
X650409Y680943D01*
X651474Y681174D01*
X652519Y681481D01*
X653540Y681862D01*
X654531Y682314D01*
X655487Y682836D01*
X656403Y683425D01*
X657275Y684078D01*
X658098Y684792D01*
X658869Y685562D01*
X659582Y686385D01*
X660235Y687257D01*
X660824Y688173D01*
X661346Y689130D01*
X661798Y690120D01*
X662179Y691141D01*
X662486Y692186D01*
X662717Y693251D01*
X662872Y694329D01*
X662950Y695415D01*
X662950Y696505D01*
X662872Y697591D01*
X662717Y698669D01*
X662486Y699734D01*
X662179Y700779D01*
X661798Y701800D01*
X661346Y702791D01*
X660824Y703747D01*
X660235Y704663D01*
X659582Y705535D01*
X658869Y706358D01*
X658098Y707129D01*
X657275Y707842D01*
X656403Y708495D01*
X655487Y709084D01*
X654531Y709606D01*
X653540Y710058D01*
X652519Y710439D01*
X651474Y710746D01*
X650409Y710977D01*
X649331Y711132D01*
X648245Y711210D01*
X647155Y711210D01*
X646069Y711132D01*
X644991Y710977D01*
X643926Y710746D01*
X642881Y710439D01*
X641860Y710058D01*
X640870Y709606D01*
X639913Y709084D01*
X638997Y708495D01*
X638125Y707842D01*
X637302Y707129D01*
X636532Y706358D01*
X635818Y705535D01*
X635165Y704663D01*
X634576Y703747D01*
X634054Y702791D01*
X633602Y701800D01*
X633221Y700779D01*
X632914Y699734D01*
X632683Y698669D01*
X632528Y697591D01*
X632450Y696505D01*
X632450Y695415D01*
X632528Y694329D01*
X632683Y693251D01*
X632914Y692186D01*
X633221Y691141D01*
X633602Y690120D01*
X634054Y689130D01*
X634576Y688173D01*
X635165Y687257D01*
X635818Y686385D01*
X636532Y685562D01*
X637302Y684792D01*
X638125Y684078D01*
X638997Y683425D01*
X639913Y682836D01*
X640870Y682314D01*
X641860Y681862D01*
X642881Y681481D01*
X643926Y681174D01*
X644991Y680943D01*
X646069Y680788D01*
X647155Y680710D01*
X648245Y680710D01*
X648245Y45710D02*
X649331Y45788D01*
X650409Y45943D01*
X651474Y46174D01*
X652519Y46481D01*
X653540Y46862D01*
X654531Y47314D01*
X655487Y47836D01*
X656403Y48425D01*
X657275Y49078D01*
X658098Y49792D01*
X658869Y50562D01*
X659582Y51385D01*
X660235Y52257D01*
X660824Y53173D01*
X661346Y54130D01*
X661798Y55120D01*
X662179Y56141D01*
X662486Y57186D01*
X662717Y58251D01*
X662872Y59329D01*
X662950Y60415D01*
X662950Y61505D01*
X662872Y62591D01*
X662717Y63669D01*
X662486Y64734D01*
X662179Y65779D01*
X661798Y66800D01*
X661346Y67791D01*
X660824Y68747D01*
X660235Y69663D01*
X659582Y70535D01*
X658869Y71358D01*
X658098Y72129D01*
X657275Y72842D01*
X656403Y73495D01*
X655487Y74084D01*
X654531Y74606D01*
X653540Y75058D01*
X652519Y75439D01*
X651474Y75746D01*
X650409Y75977D01*
X649331Y76132D01*
X648245Y76210D01*
X647155Y76210D01*
X646069Y76132D01*
X644991Y75977D01*
X643926Y75746D01*
X642881Y75439D01*
X641860Y75058D01*
X640870Y74606D01*
X639913Y74084D01*
X638997Y73495D01*
X638125Y72842D01*
X637302Y72129D01*
X636532Y71358D01*
X635818Y70535D01*
X635165Y69663D01*
X634576Y68747D01*
X634054Y67791D01*
X633602Y66800D01*
X633221Y65779D01*
X632914Y64734D01*
X632683Y63669D01*
X632528Y62591D01*
X632450Y61505D01*
X632450Y60415D01*
X632528Y59329D01*
X632683Y58251D01*
X632914Y57186D01*
X633221Y56141D01*
X633602Y55120D01*
X634054Y54130D01*
X634576Y53173D01*
X635165Y52257D01*
X635818Y51385D01*
X636532Y50562D01*
X637302Y49792D01*
X638125Y49078D01*
X638997Y48425D01*
X639913Y47836D01*
X640870Y47314D01*
X641860Y46862D01*
X642881Y46481D01*
X643926Y46174D01*
X644991Y45943D01*
X646069Y45788D01*
X647155Y45710D01*
X648245Y45710D01*
X224065Y681980D02*
X225151Y682058D01*
X226229Y682213D01*
X227294Y682444D01*
X228339Y682751D01*
X229360Y683132D01*
X230351Y683584D01*
X231307Y684106D01*
X232223Y684695D01*
X233095Y685348D01*
X233918Y686062D01*
X234689Y686832D01*
X235402Y687655D01*
X236055Y688527D01*
X236644Y689443D01*
X237166Y690400D01*
X237618Y691390D01*
X237999Y692411D01*
X238306Y693456D01*
X238537Y694521D01*
X238692Y695599D01*
X238770Y696685D01*
X238770Y697775D01*
X238692Y698861D01*
X238537Y699939D01*
X238306Y701004D01*
X237999Y702049D01*
X237618Y703070D01*
X237166Y704061D01*
X236644Y705017D01*
X236055Y705933D01*
X235402Y706805D01*
X234689Y707628D01*
X233918Y708399D01*
X233095Y709112D01*
X232223Y709765D01*
X231307Y710354D01*
X230351Y710876D01*
X229360Y711328D01*
X228339Y711709D01*
X227294Y712016D01*
X226229Y712247D01*
X225151Y712402D01*
X224065Y712480D01*
X222975Y712480D01*
X221889Y712402D01*
X220811Y712247D01*
X219746Y712016D01*
X218701Y711709D01*
X217680Y711328D01*
X216690Y710876D01*
X215733Y710354D01*
X214817Y709765D01*
X213945Y709112D01*
X213122Y708399D01*
X212352Y707628D01*
X211638Y706805D01*
X210985Y705933D01*
X210396Y705017D01*
X209874Y704061D01*
X209422Y703070D01*
X209041Y702049D01*
X208734Y701004D01*
X208503Y699939D01*
X208348Y698861D01*
X208270Y697775D01*
X208270Y696685D01*
X208348Y695599D01*
X208503Y694521D01*
X208734Y693456D01*
X209041Y692411D01*
X209422Y691390D01*
X209874Y690400D01*
X210396Y689443D01*
X210985Y688527D01*
X211638Y687655D01*
X212352Y686832D01*
X213122Y686062D01*
X213945Y685348D01*
X214817Y684695D01*
X215733Y684106D01*
X216690Y683584D01*
X217680Y683132D01*
X218701Y682751D01*
X219746Y682444D01*
X220811Y682213D01*
X221889Y682058D01*
X222975Y681980D01*
X224065Y681980D01*
X224065Y46980D02*
X225151Y47058D01*
X226229Y47213D01*
X227294Y47444D01*
X228339Y47751D01*
X229360Y48132D01*
X230351Y48584D01*
X231307Y49106D01*
X232223Y49695D01*
X233095Y50348D01*
X233918Y51062D01*
X234689Y51832D01*
X235402Y52655D01*
X236055Y53527D01*
X236644Y54443D01*
X237166Y55400D01*
X237618Y56390D01*
X237999Y57411D01*
X238306Y58456D01*
X238537Y59521D01*
X238692Y60599D01*
X238770Y61685D01*
X238770Y62775D01*
X238692Y63861D01*
X238537Y64939D01*
X238306Y66004D01*
X237999Y67049D01*
X237618Y68070D01*
X237166Y69061D01*
X236644Y70017D01*
X236055Y70933D01*
X235402Y71805D01*
X234689Y72628D01*
X233918Y73399D01*
X233095Y74112D01*
X232223Y74765D01*
X231307Y75354D01*
X230351Y75876D01*
X229360Y76328D01*
X228339Y76709D01*
X227294Y77016D01*
X226229Y77247D01*
X225151Y77402D01*
X224065Y77480D01*
X222975Y77480D01*
X221889Y77402D01*
X220811Y77247D01*
X219746Y77016D01*
X218701Y76709D01*
X217680Y76328D01*
X216690Y75876D01*
X215733Y75354D01*
X214817Y74765D01*
X213945Y74112D01*
X213122Y73399D01*
X212352Y72628D01*
X211638Y71805D01*
X210985Y70933D01*
X210396Y70017D01*
X209874Y69061D01*
X209422Y68070D01*
X209041Y67049D01*
X208734Y66004D01*
X208503Y64939D01*
X208348Y63861D01*
X208270Y62775D01*
X208270Y61685D01*
X208348Y60599D01*
X208503Y59521D01*
X208734Y58456D01*
X209041Y57411D01*
X209422Y56390D01*
X209874Y55400D01*
X210396Y54443D01*
X210985Y53527D01*
X211638Y52655D01*
X212352Y51832D01*
X213122Y51062D01*
X213945Y50348D01*
X214817Y49695D01*
X215733Y49106D01*
X216690Y48584D01*
X217680Y48132D01*
X218701Y47751D01*
X219746Y47444D01*
X220811Y47213D01*
X221889Y47058D01*
X222975Y46980D01*
X224065Y46980D01*
X864145Y680710D02*
X865231Y680788D01*
X866309Y680943D01*
X867374Y681174D01*
X868419Y681481D01*
X869440Y681862D01*
X870431Y682314D01*
X871387Y682836D01*
X872303Y683425D01*
X873175Y684078D01*
X873998Y684792D01*
X874769Y685562D01*
X875482Y686385D01*
X876135Y687257D01*
X876724Y688173D01*
X877246Y689130D01*
X877698Y690120D01*
X878079Y691141D01*
X878386Y692186D01*
X878617Y693251D01*
X878772Y694329D01*
X878850Y695415D01*
X878850Y696505D01*
X878772Y697591D01*
X878617Y698669D01*
X878386Y699734D01*
X878079Y700779D01*
X877698Y701800D01*
X877246Y702791D01*
X876724Y703747D01*
X876135Y704663D01*
X875482Y705535D01*
X874769Y706358D01*
X873998Y707129D01*
X873175Y707842D01*
X872303Y708495D01*
X871387Y709084D01*
X870431Y709606D01*
X869440Y710058D01*
X868419Y710439D01*
X867374Y710746D01*
X866309Y710977D01*
X865231Y711132D01*
X864145Y711210D01*
X863055Y711210D01*
X861969Y711132D01*
X860891Y710977D01*
X859826Y710746D01*
X858781Y710439D01*
X857760Y710058D01*
X856770Y709606D01*
X855813Y709084D01*
X854897Y708495D01*
X854025Y707842D01*
X853202Y707129D01*
X852432Y706358D01*
X851718Y705535D01*
X851065Y704663D01*
X850476Y703747D01*
X849954Y702791D01*
X849502Y701800D01*
X849121Y700779D01*
X848814Y699734D01*
X848583Y698669D01*
X848428Y697591D01*
X848350Y696505D01*
X848350Y695415D01*
X848428Y694329D01*
X848583Y693251D01*
X848814Y692186D01*
X849121Y691141D01*
X849502Y690120D01*
X849954Y689130D01*
X850476Y688173D01*
X851065Y687257D01*
X851718Y686385D01*
X852432Y685562D01*
X853202Y684792D01*
X854025Y684078D01*
X854897Y683425D01*
X855813Y682836D01*
X856770Y682314D01*
X857760Y681862D01*
X858781Y681481D01*
X859826Y681174D01*
X860891Y680943D01*
X861969Y680788D01*
X863055Y680710D01*
X864145Y680710D01*
X864145Y45710D02*
X865231Y45788D01*
X866309Y45943D01*
X867374Y46174D01*
X868419Y46481D01*
X869440Y46862D01*
X870431Y47314D01*
X871387Y47836D01*
X872303Y48425D01*
X873175Y49078D01*
X873998Y49792D01*
X874769Y50562D01*
X875482Y51385D01*
X876135Y52257D01*
X876724Y53173D01*
X877246Y54130D01*
X877698Y55120D01*
X878079Y56141D01*
X878386Y57186D01*
X878617Y58251D01*
X878772Y59329D01*
X878850Y60415D01*
X878850Y61505D01*
X878772Y62591D01*
X878617Y63669D01*
X878386Y64734D01*
X878079Y65779D01*
X877698Y66800D01*
X877246Y67791D01*
X876724Y68747D01*
X876135Y69663D01*
X875482Y70535D01*
X874769Y71358D01*
X873998Y72129D01*
X873175Y72842D01*
X872303Y73495D01*
X871387Y74084D01*
X870431Y74606D01*
X869440Y75058D01*
X868419Y75439D01*
X867374Y75746D01*
X866309Y75977D01*
X865231Y76132D01*
X864145Y76210D01*
X863055Y76210D01*
X861969Y76132D01*
X860891Y75977D01*
X859826Y75746D01*
X858781Y75439D01*
X857760Y75058D01*
X856770Y74606D01*
X855813Y74084D01*
X854897Y73495D01*
X854025Y72842D01*
X853202Y72129D01*
X852432Y71358D01*
X851718Y70535D01*
X851065Y69663D01*
X850476Y68747D01*
X849954Y67791D01*
X849502Y66800D01*
X849121Y65779D01*
X848814Y64734D01*
X848583Y63669D01*
X848428Y62591D01*
X848350Y61505D01*
X848350Y60415D01*
X848428Y59329D01*
X848583Y58251D01*
X848814Y57186D01*
X849121Y56141D01*
X849502Y55120D01*
X849954Y54130D01*
X850476Y53173D01*
X851065Y52257D01*
X851718Y51385D01*
X852432Y50562D01*
X853202Y49792D01*
X854025Y49078D01*
X854897Y48425D01*
X855813Y47836D01*
X856770Y47314D01*
X857760Y46862D01*
X858781Y46481D01*
X859826Y46174D01*
X860891Y45943D01*
X861969Y45788D01*
X863055Y45710D01*
X864145Y45710D01*
X114845Y78750D02*
X115931Y78672D01*
X117009Y78517D01*
X118074Y78286D01*
X119119Y77979D01*
X120140Y77598D01*
X121131Y77146D01*
X122087Y76624D01*
X123003Y76035D01*
X123875Y75382D01*
X124698Y74669D01*
X125469Y73898D01*
X126182Y73075D01*
X126835Y72203D01*
X127424Y71287D01*
X127946Y70331D01*
X128398Y69340D01*
X128779Y68319D01*
X129086Y67274D01*
X129317Y66209D01*
X129472Y65131D01*
X129550Y64045D01*
X129550Y62955D01*
X129472Y61869D01*
X129317Y60791D01*
X129086Y59726D01*
X128779Y58681D01*
X128398Y57660D01*
X127946Y56670D01*
X127424Y55713D01*
X126835Y54797D01*
X126182Y53925D01*
X125469Y53102D01*
X124698Y52332D01*
X123875Y51618D01*
X123003Y50965D01*
X122087Y50376D01*
X121131Y49854D01*
X120140Y49402D01*
X119119Y49021D01*
X118074Y48714D01*
X117009Y48483D01*
X115931Y48328D01*
X114845Y48250D01*
X113755Y48250D01*
X112669Y48328D01*
X111591Y48483D01*
X110526Y48714D01*
X109481Y49021D01*
X108460Y49402D01*
X107470Y49854D01*
X106513Y50376D01*
X105597Y50965D01*
X104725Y51618D01*
X103902Y52332D01*
X103132Y53102D01*
X102418Y53925D01*
X101765Y54797D01*
X101176Y55713D01*
X100654Y56670D01*
X100202Y57660D01*
X99821Y58681D01*
X99514Y59726D01*
X99283Y60791D01*
X99128Y61869D01*
X99050Y62955D01*
X99050Y64045D01*
X99128Y65131D01*
X99283Y66209D01*
X99514Y67274D01*
X99821Y68319D01*
X100202Y69340D01*
X100654Y70331D01*
X101176Y71287D01*
X101765Y72203D01*
X102418Y73075D01*
X103132Y73898D01*
X103902Y74669D01*
X104725Y75382D01*
X105597Y76035D01*
X106513Y76624D01*
X107470Y77146D01*
X108460Y77598D01*
X109481Y77979D01*
X110526Y78286D01*
X111591Y78517D01*
X112669Y78672D01*
X113755Y78750D01*
X114845Y78750D01*
X114845Y713750D02*
X115931Y713672D01*
X117009Y713517D01*
X118074Y713286D01*
X119119Y712979D01*
X120140Y712598D01*
X121131Y712146D01*
X122087Y711624D01*
X123003Y711035D01*
X123875Y710382D01*
X124698Y709669D01*
X125469Y708898D01*
X126182Y708075D01*
X126835Y707203D01*
X127424Y706287D01*
X127946Y705331D01*
X128398Y704340D01*
X128779Y703319D01*
X129086Y702274D01*
X129317Y701209D01*
X129472Y700131D01*
X129550Y699045D01*
X129550Y697955D01*
X129472Y696869D01*
X129317Y695791D01*
X129086Y694726D01*
X128779Y693681D01*
X128398Y692660D01*
X127946Y691670D01*
X127424Y690713D01*
X126835Y689797D01*
X126182Y688925D01*
X125469Y688102D01*
X124698Y687332D01*
X123875Y686618D01*
X123003Y685965D01*
X122087Y685376D01*
X121131Y684854D01*
X120140Y684402D01*
X119119Y684021D01*
X118074Y683714D01*
X117009Y683483D01*
X115931Y683328D01*
X114845Y683250D01*
X113755Y683250D01*
X112669Y683328D01*
X111591Y683483D01*
X110526Y683714D01*
X109481Y684021D01*
X108460Y684402D01*
X107470Y684854D01*
X106513Y685376D01*
X105597Y685965D01*
X104725Y686618D01*
X103902Y687332D01*
X103132Y688102D01*
X102418Y688925D01*
X101765Y689797D01*
X101176Y690713D01*
X100654Y691670D01*
X100202Y692660D01*
X99821Y693681D01*
X99514Y694726D01*
X99283Y695791D01*
X99128Y696869D01*
X99050Y697955D01*
X99050Y699045D01*
X99128Y700131D01*
X99283Y701209D01*
X99514Y702274D01*
X99821Y703319D01*
X100202Y704340D01*
X100654Y705331D01*
X101176Y706287D01*
X101765Y707203D01*
X102418Y708075D01*
X103132Y708898D01*
X103902Y709669D01*
X104725Y710382D01*
X105597Y711035D01*
X106513Y711624D01*
X107470Y712146D01*
X108460Y712598D01*
X109481Y712979D01*
X110526Y713286D01*
X111591Y713517D01*
X112669Y713672D01*
X113755Y713750D01*
X114845Y713750D01*
X546645Y78750D02*
X547731Y78672D01*
X548809Y78517D01*
X549874Y78286D01*
X550919Y77979D01*
X551940Y77598D01*
X552931Y77146D01*
X553887Y76624D01*
X554803Y76035D01*
X555675Y75382D01*
X556498Y74669D01*
X557269Y73898D01*
X557982Y73075D01*
X558635Y72203D01*
X559224Y71287D01*
X559746Y70331D01*
X560198Y69340D01*
X560579Y68319D01*
X560886Y67274D01*
X561117Y66209D01*
X561272Y65131D01*
X561350Y64045D01*
X561350Y62955D01*
X561272Y61869D01*
X561117Y60791D01*
X560886Y59726D01*
X560579Y58681D01*
X560198Y57660D01*
X559746Y56670D01*
X559224Y55713D01*
X558635Y54797D01*
X557982Y53925D01*
X557269Y53102D01*
X556498Y52332D01*
X555675Y51618D01*
X554803Y50965D01*
X553887Y50376D01*
X552931Y49854D01*
X551940Y49402D01*
X550919Y49021D01*
X549874Y48714D01*
X548809Y48483D01*
X547731Y48328D01*
X546645Y48250D01*
X545555Y48250D01*
X544469Y48328D01*
X543391Y48483D01*
X542326Y48714D01*
X541281Y49021D01*
X540260Y49402D01*
X539270Y49854D01*
X538313Y50376D01*
X537397Y50965D01*
X536525Y51618D01*
X535702Y52332D01*
X534932Y53102D01*
X534218Y53925D01*
X533565Y54797D01*
X532976Y55713D01*
X532454Y56670D01*
X532002Y57660D01*
X531621Y58681D01*
X531314Y59726D01*
X531083Y60791D01*
X530928Y61869D01*
X530850Y62955D01*
X530850Y64045D01*
X530928Y65131D01*
X531083Y66209D01*
X531314Y67274D01*
X531621Y68319D01*
X532002Y69340D01*
X532454Y70331D01*
X532976Y71287D01*
X533565Y72203D01*
X534218Y73075D01*
X534932Y73898D01*
X535702Y74669D01*
X536525Y75382D01*
X537397Y76035D01*
X538313Y76624D01*
X539270Y77146D01*
X540260Y77598D01*
X541281Y77979D01*
X542326Y78286D01*
X543391Y78517D01*
X544469Y78672D01*
X545555Y78750D01*
X546645Y78750D01*
X546645Y713750D02*
X547731Y713672D01*
X548809Y713517D01*
X549874Y713286D01*
X550919Y712979D01*
X551940Y712598D01*
X552931Y712146D01*
X553887Y711624D01*
X554803Y711035D01*
X555675Y710382D01*
X556498Y709669D01*
X557269Y708898D01*
X557982Y708075D01*
X558635Y707203D01*
X559224Y706287D01*
X559746Y705331D01*
X560198Y704340D01*
X560579Y703319D01*
X560886Y702274D01*
X561117Y701209D01*
X561272Y700131D01*
X561350Y699045D01*
X561350Y697955D01*
X561272Y696869D01*
X561117Y695791D01*
X560886Y694726D01*
X560579Y693681D01*
X560198Y692660D01*
X559746Y691670D01*
X559224Y690713D01*
X558635Y689797D01*
X557982Y688925D01*
X557269Y688102D01*
X556498Y687332D01*
X555675Y686618D01*
X554803Y685965D01*
X553887Y685376D01*
X552931Y684854D01*
X551940Y684402D01*
X550919Y684021D01*
X549874Y683714D01*
X548809Y683483D01*
X547731Y683328D01*
X546645Y683250D01*
X545555Y683250D01*
X544469Y683328D01*
X543391Y683483D01*
X542326Y683714D01*
X541281Y684021D01*
X540260Y684402D01*
X539270Y684854D01*
X538313Y685376D01*
X537397Y685965D01*
X536525Y686618D01*
X535702Y687332D01*
X534932Y688102D01*
X534218Y688925D01*
X533565Y689797D01*
X532976Y690713D01*
X532454Y691670D01*
X532002Y692660D01*
X531621Y693681D01*
X531314Y694726D01*
X531083Y695791D01*
X530928Y696869D01*
X530850Y697955D01*
X530850Y699045D01*
X530928Y700131D01*
X531083Y701209D01*
X531314Y702274D01*
X531621Y703319D01*
X532002Y704340D01*
X532454Y705331D01*
X532976Y706287D01*
X533565Y707203D01*
X534218Y708075D01*
X534932Y708898D01*
X535702Y709669D01*
X536525Y710382D01*
X537397Y711035D01*
X538313Y711624D01*
X539270Y712146D01*
X540260Y712598D01*
X541281Y712979D01*
X542326Y713286D01*
X543391Y713517D01*
X544469Y713672D01*
X545555Y713750D01*
X546645Y713750D01*
X330745Y78750D02*
X331831Y78672D01*
X332909Y78517D01*
X333974Y78286D01*
X335019Y77979D01*
X336040Y77598D01*
X337031Y77146D01*
X337987Y76624D01*
X338903Y76035D01*
X339775Y75382D01*
X340598Y74669D01*
X341369Y73898D01*
X342082Y73075D01*
X342735Y72203D01*
X343324Y71287D01*
X343846Y70331D01*
X344298Y69340D01*
X344679Y68319D01*
X344986Y67274D01*
X345217Y66209D01*
X345372Y65131D01*
X345450Y64045D01*
X345450Y62955D01*
X345372Y61869D01*
X345217Y60791D01*
X344986Y59726D01*
X344679Y58681D01*
X344298Y57660D01*
X343846Y56670D01*
X343324Y55713D01*
X342735Y54797D01*
X342082Y53925D01*
X341369Y53102D01*
X340598Y52332D01*
X339775Y51618D01*
X338903Y50965D01*
X337987Y50376D01*
X337031Y49854D01*
X336040Y49402D01*
X335019Y49021D01*
X333974Y48714D01*
X332909Y48483D01*
X331831Y48328D01*
X330745Y48250D01*
X329655Y48250D01*
X328569Y48328D01*
X327491Y48483D01*
X326426Y48714D01*
X325381Y49021D01*
X324360Y49402D01*
X323370Y49854D01*
X322413Y50376D01*
X321497Y50965D01*
X320625Y51618D01*
X319802Y52332D01*
X319032Y53102D01*
X318318Y53925D01*
X317665Y54797D01*
X317076Y55713D01*
X316554Y56670D01*
X316102Y57660D01*
X315721Y58681D01*
X315414Y59726D01*
X315183Y60791D01*
X315028Y61869D01*
X314950Y62955D01*
X314950Y64045D01*
X315028Y65131D01*
X315183Y66209D01*
X315414Y67274D01*
X315721Y68319D01*
X316102Y69340D01*
X316554Y70331D01*
X317076Y71287D01*
X317665Y72203D01*
X318318Y73075D01*
X319032Y73898D01*
X319802Y74669D01*
X320625Y75382D01*
X321497Y76035D01*
X322413Y76624D01*
X323370Y77146D01*
X324360Y77598D01*
X325381Y77979D01*
X326426Y78286D01*
X327491Y78517D01*
X328569Y78672D01*
X329655Y78750D01*
X330745Y78750D01*
X330745Y713750D02*
X331831Y713672D01*
X332909Y713517D01*
X333974Y713286D01*
X335019Y712979D01*
X336040Y712598D01*
X337031Y712146D01*
X337987Y711624D01*
X338903Y711035D01*
X339775Y710382D01*
X340598Y709669D01*
X341369Y708898D01*
X342082Y708075D01*
X342735Y707203D01*
X343324Y706287D01*
X343846Y705331D01*
X344298Y704340D01*
X344679Y703319D01*
X344986Y702274D01*
X345217Y701209D01*
X345372Y700131D01*
X345450Y699045D01*
X345450Y697955D01*
X345372Y696869D01*
X345217Y695791D01*
X344986Y694726D01*
X344679Y693681D01*
X344298Y692660D01*
X343846Y691670D01*
X343324Y690713D01*
X342735Y689797D01*
X342082Y688925D01*
X341369Y688102D01*
X340598Y687332D01*
X339775Y686618D01*
X338903Y685965D01*
X337987Y685376D01*
X337031Y684854D01*
X336040Y684402D01*
X335019Y684021D01*
X333974Y683714D01*
X332909Y683483D01*
X331831Y683328D01*
X330745Y683250D01*
X329655Y683250D01*
X328569Y683328D01*
X327491Y683483D01*
X326426Y683714D01*
X325381Y684021D01*
X324360Y684402D01*
X323370Y684854D01*
X322413Y685376D01*
X321497Y685965D01*
X320625Y686618D01*
X319802Y687332D01*
X319032Y688102D01*
X318318Y688925D01*
X317665Y689797D01*
X317076Y690713D01*
X316554Y691670D01*
X316102Y692660D01*
X315721Y693681D01*
X315414Y694726D01*
X315183Y695791D01*
X315028Y696869D01*
X314950Y697955D01*
X314950Y699045D01*
X315028Y700131D01*
X315183Y701209D01*
X315414Y702274D01*
X315721Y703319D01*
X316102Y704340D01*
X316554Y705331D01*
X317076Y706287D01*
X317665Y707203D01*
X318318Y708075D01*
X319032Y708898D01*
X319802Y709669D01*
X320625Y710382D01*
X321497Y711035D01*
X322413Y711624D01*
X323370Y712146D01*
X324360Y712598D01*
X325381Y712979D01*
X326426Y713286D01*
X327491Y713517D01*
X328569Y713672D01*
X329655Y713750D01*
X330745Y713750D01*
X762545Y78750D02*
X763631Y78672D01*
X764709Y78517D01*
X765774Y78286D01*
X766819Y77979D01*
X767840Y77598D01*
X768831Y77146D01*
X769787Y76624D01*
X770703Y76035D01*
X771575Y75382D01*
X772398Y74669D01*
X773169Y73898D01*
X773882Y73075D01*
X774535Y72203D01*
X775124Y71287D01*
X775646Y70331D01*
X776098Y69340D01*
X776479Y68319D01*
X776786Y67274D01*
X777017Y66209D01*
X777172Y65131D01*
X777250Y64045D01*
X777250Y62955D01*
X777172Y61869D01*
X777017Y60791D01*
X776786Y59726D01*
X776479Y58681D01*
X776098Y57660D01*
X775646Y56670D01*
X775124Y55713D01*
X774535Y54797D01*
X773882Y53925D01*
X773169Y53102D01*
X772398Y52332D01*
X771575Y51618D01*
X770703Y50965D01*
X769787Y50376D01*
X768831Y49854D01*
X767840Y49402D01*
X766819Y49021D01*
X765774Y48714D01*
X764709Y48483D01*
X763631Y48328D01*
X762545Y48250D01*
X761455Y48250D01*
X760369Y48328D01*
X759291Y48483D01*
X758226Y48714D01*
X757181Y49021D01*
X756160Y49402D01*
X755170Y49854D01*
X754213Y50376D01*
X753297Y50965D01*
X752425Y51618D01*
X751602Y52332D01*
X750832Y53102D01*
X750118Y53925D01*
X749465Y54797D01*
X748876Y55713D01*
X748354Y56670D01*
X747902Y57660D01*
X747521Y58681D01*
X747214Y59726D01*
X746983Y60791D01*
X746828Y61869D01*
X746750Y62955D01*
X746750Y64045D01*
X746828Y65131D01*
X746983Y66209D01*
X747214Y67274D01*
X747521Y68319D01*
X747902Y69340D01*
X748354Y70331D01*
X748876Y71287D01*
X749465Y72203D01*
X750118Y73075D01*
X750832Y73898D01*
X751602Y74669D01*
X752425Y75382D01*
X753297Y76035D01*
X754213Y76624D01*
X755170Y77146D01*
X756160Y77598D01*
X757181Y77979D01*
X758226Y78286D01*
X759291Y78517D01*
X760369Y78672D01*
X761455Y78750D01*
X762545Y78750D01*
X762545Y713750D02*
X763631Y713672D01*
X764709Y713517D01*
X765774Y713286D01*
X766819Y712979D01*
X767840Y712598D01*
X768831Y712146D01*
X769787Y711624D01*
X770703Y711035D01*
X771575Y710382D01*
X772398Y709669D01*
X773169Y708898D01*
X773882Y708075D01*
X774535Y707203D01*
X775124Y706287D01*
X775646Y705331D01*
X776098Y704340D01*
X776479Y703319D01*
X776786Y702274D01*
X777017Y701209D01*
X777172Y700131D01*
X777250Y699045D01*
X777250Y697955D01*
X777172Y696869D01*
X777017Y695791D01*
X776786Y694726D01*
X776479Y693681D01*
X776098Y692660D01*
X775646Y691670D01*
X775124Y690713D01*
X774535Y689797D01*
X773882Y688925D01*
X773169Y688102D01*
X772398Y687332D01*
X771575Y686618D01*
X770703Y685965D01*
X769787Y685376D01*
X768831Y684854D01*
X767840Y684402D01*
X766819Y684021D01*
X765774Y683714D01*
X764709Y683483D01*
X763631Y683328D01*
X762545Y683250D01*
X761455Y683250D01*
X760369Y683328D01*
X759291Y683483D01*
X758226Y683714D01*
X757181Y684021D01*
X756160Y684402D01*
X755170Y684854D01*
X754213Y685376D01*
X753297Y685965D01*
X752425Y686618D01*
X751602Y687332D01*
X750832Y688102D01*
X750118Y688925D01*
X749465Y689797D01*
X748876Y690713D01*
X748354Y691670D01*
X747902Y692660D01*
X747521Y693681D01*
X747214Y694726D01*
X746983Y695791D01*
X746828Y696869D01*
X746750Y697955D01*
X746750Y699045D01*
X746828Y700131D01*
X746983Y701209D01*
X747214Y702274D01*
X747521Y703319D01*
X747902Y704340D01*
X748354Y705331D01*
X748876Y706287D01*
X749465Y707203D01*
X750118Y708075D01*
X750832Y708898D01*
X751602Y709669D01*
X752425Y710382D01*
X753297Y711035D01*
X754213Y711624D01*
X755170Y712146D01*
X756160Y712598D01*
X757181Y712979D01*
X758226Y713286D01*
X759291Y713517D01*
X760369Y713672D01*
X761455Y713750D01*
X762545Y713750D01*
X965745Y78750D02*
X966831Y78672D01*
X967909Y78517D01*
X968974Y78286D01*
X970019Y77979D01*
X971040Y77598D01*
X972031Y77146D01*
X972987Y76624D01*
X973903Y76035D01*
X974775Y75382D01*
X975598Y74669D01*
X976369Y73898D01*
X977082Y73075D01*
X977735Y72203D01*
X978324Y71287D01*
X978846Y70331D01*
X979298Y69340D01*
X979679Y68319D01*
X979986Y67274D01*
X980217Y66209D01*
X980372Y65131D01*
X980450Y64045D01*
X980450Y62955D01*
X980372Y61869D01*
X980217Y60791D01*
X979986Y59726D01*
X979679Y58681D01*
X979298Y57660D01*
X978846Y56670D01*
X978324Y55713D01*
X977735Y54797D01*
X977082Y53925D01*
X976369Y53102D01*
X975598Y52332D01*
X974775Y51618D01*
X973903Y50965D01*
X972987Y50376D01*
X972031Y49854D01*
X971040Y49402D01*
X970019Y49021D01*
X968974Y48714D01*
X967909Y48483D01*
X966831Y48328D01*
X965745Y48250D01*
X964655Y48250D01*
X963569Y48328D01*
X962491Y48483D01*
X961426Y48714D01*
X960381Y49021D01*
X959360Y49402D01*
X958370Y49854D01*
X957413Y50376D01*
X956497Y50965D01*
X955625Y51618D01*
X954802Y52332D01*
X954032Y53102D01*
X953318Y53925D01*
X952665Y54797D01*
X952076Y55713D01*
X951554Y56670D01*
X951102Y57660D01*
X950721Y58681D01*
X950414Y59726D01*
X950183Y60791D01*
X950028Y61869D01*
X949950Y62955D01*
X949950Y64045D01*
X950028Y65131D01*
X950183Y66209D01*
X950414Y67274D01*
X950721Y68319D01*
X951102Y69340D01*
X951554Y70331D01*
X952076Y71287D01*
X952665Y72203D01*
X953318Y73075D01*
X954032Y73898D01*
X954802Y74669D01*
X955625Y75382D01*
X956497Y76035D01*
X957413Y76624D01*
X958370Y77146D01*
X959360Y77598D01*
X960381Y77979D01*
X961426Y78286D01*
X962491Y78517D01*
X963569Y78672D01*
X964655Y78750D01*
X965745Y78750D01*
X965745Y713750D02*
X966831Y713672D01*
X967909Y713517D01*
X968974Y713286D01*
X970019Y712979D01*
X971040Y712598D01*
X972031Y712146D01*
X972987Y711624D01*
X973903Y711035D01*
X974775Y710382D01*
X975598Y709669D01*
X976369Y708898D01*
X977082Y708075D01*
X977735Y707203D01*
X978324Y706287D01*
X978846Y705331D01*
X979298Y704340D01*
X979679Y703319D01*
X979986Y702274D01*
X980217Y701209D01*
X980372Y700131D01*
X980450Y699045D01*
X980450Y697955D01*
X980372Y696869D01*
X980217Y695791D01*
X979986Y694726D01*
X979679Y693681D01*
X979298Y692660D01*
X978846Y691670D01*
X978324Y690713D01*
X977735Y689797D01*
X977082Y688925D01*
X976369Y688102D01*
X975598Y687332D01*
X974775Y686618D01*
X973903Y685965D01*
X972987Y685376D01*
X972031Y684854D01*
X971040Y684402D01*
X970019Y684021D01*
X968974Y683714D01*
X967909Y683483D01*
X966831Y683328D01*
X965745Y683250D01*
X964655Y683250D01*
X963569Y683328D01*
X962491Y683483D01*
X961426Y683714D01*
X960381Y684021D01*
X959360Y684402D01*
X958370Y684854D01*
X957413Y685376D01*
X956497Y685965D01*
X955625Y686618D01*
X954802Y687332D01*
X954032Y688102D01*
X953318Y688925D01*
X952665Y689797D01*
X952076Y690713D01*
X951554Y691670D01*
X951102Y692660D01*
X950721Y693681D01*
X950414Y694726D01*
X950183Y695791D01*
X950028Y696869D01*
X949950Y697955D01*
X949950Y699045D01*
X950028Y700131D01*
X950183Y701209D01*
X950414Y702274D01*
X950721Y703319D01*
X951102Y704340D01*
X951554Y705331D01*
X952076Y706287D01*
X952665Y707203D01*
X953318Y708075D01*
X954032Y708898D01*
X954802Y709669D01*
X955625Y710382D01*
X956497Y711035D01*
X957413Y711624D01*
X958370Y712146D01*
X959360Y712598D01*
X960381Y712979D01*
X961426Y713286D01*
X962491Y713517D01*
X963569Y713672D01*
X964655Y713750D01*
X965745Y713750D01*
M02*
