G04 EAGLE Gerber RS-274X export*
G75*
%MOMM*%
%FSLAX34Y34*%
%LPD*%
%INSoldermask Top*%
%IPPOS*%
%AMOC8*
5,1,8,0,0,1.08239X$1,22.5*%
G01*
%ADD10C,3.253200*%
%ADD11R,1.763200X1.763200*%
%ADD12C,1.763200*%
%ADD13R,0.853200X0.703200*%
%ADD14C,4.013200*%
%ADD15R,0.703200X0.853200*%
%ADD16C,0.959600*%


D10*
X433070Y695960D03*
X433070Y60960D03*
D11*
X418870Y626860D03*
D12*
X418870Y599460D03*
X418870Y571760D03*
X418870Y544060D03*
X418870Y516660D03*
X418870Y488960D03*
X418870Y461260D03*
X418870Y433860D03*
X418870Y406160D03*
X418870Y378460D03*
X418870Y350760D03*
X418870Y323060D03*
X418870Y295660D03*
X418870Y267960D03*
X418870Y240260D03*
X418870Y212860D03*
X418870Y185160D03*
X418870Y157460D03*
X418870Y130060D03*
X447270Y613160D03*
X447270Y143760D03*
X447270Y585460D03*
X447270Y171460D03*
X447270Y558060D03*
X447270Y198860D03*
X447270Y530360D03*
X447270Y226560D03*
X447270Y502660D03*
X447270Y254260D03*
X447270Y475260D03*
X447270Y281660D03*
X447270Y447560D03*
X447270Y309360D03*
X447270Y419860D03*
X447270Y337060D03*
X447270Y392460D03*
X447270Y364460D03*
D10*
X647700Y695960D03*
X647700Y60960D03*
D11*
X633500Y626860D03*
D12*
X633500Y599460D03*
X633500Y571760D03*
X633500Y544060D03*
X633500Y516660D03*
X633500Y488960D03*
X633500Y461260D03*
X633500Y433860D03*
X633500Y406160D03*
X633500Y378460D03*
X633500Y350760D03*
X633500Y323060D03*
X633500Y295660D03*
X633500Y267960D03*
X633500Y240260D03*
X633500Y212860D03*
X633500Y185160D03*
X633500Y157460D03*
X633500Y130060D03*
X661900Y613160D03*
X661900Y143760D03*
X661900Y585460D03*
X661900Y171460D03*
X661900Y558060D03*
X661900Y198860D03*
X661900Y530360D03*
X661900Y226560D03*
X661900Y502660D03*
X661900Y254260D03*
X661900Y475260D03*
X661900Y281660D03*
X661900Y447560D03*
X661900Y309360D03*
X661900Y419860D03*
X661900Y337060D03*
X661900Y392460D03*
X661900Y364460D03*
D10*
X223520Y697230D03*
X223520Y62230D03*
D11*
X209320Y628130D03*
D12*
X209320Y600730D03*
X209320Y573030D03*
X209320Y545330D03*
X209320Y517930D03*
X209320Y490230D03*
X209320Y462530D03*
X209320Y435130D03*
X209320Y407430D03*
X209320Y379730D03*
X209320Y352030D03*
X209320Y324330D03*
X209320Y296930D03*
X209320Y269230D03*
X209320Y241530D03*
X209320Y214130D03*
X209320Y186430D03*
X209320Y158730D03*
X209320Y131330D03*
X237720Y614430D03*
X237720Y145030D03*
X237720Y586730D03*
X237720Y172730D03*
X237720Y559330D03*
X237720Y200130D03*
X237720Y531630D03*
X237720Y227830D03*
X237720Y503930D03*
X237720Y255530D03*
X237720Y476530D03*
X237720Y282930D03*
X237720Y448830D03*
X237720Y310630D03*
X237720Y421130D03*
X237720Y338330D03*
X237720Y393730D03*
X237720Y365730D03*
D10*
X863600Y695960D03*
X863600Y60960D03*
D11*
X849400Y626860D03*
D12*
X849400Y599460D03*
X849400Y571760D03*
X849400Y544060D03*
X849400Y516660D03*
X849400Y488960D03*
X849400Y461260D03*
X849400Y433860D03*
X849400Y406160D03*
X849400Y378460D03*
X849400Y350760D03*
X849400Y323060D03*
X849400Y295660D03*
X849400Y267960D03*
X849400Y240260D03*
X849400Y212860D03*
X849400Y185160D03*
X849400Y157460D03*
X849400Y130060D03*
X877800Y613160D03*
X877800Y143760D03*
X877800Y585460D03*
X877800Y171460D03*
X877800Y558060D03*
X877800Y198860D03*
X877800Y530360D03*
X877800Y226560D03*
X877800Y502660D03*
X877800Y254260D03*
X877800Y475260D03*
X877800Y281660D03*
X877800Y447560D03*
X877800Y309360D03*
X877800Y419860D03*
X877800Y337060D03*
X877800Y392460D03*
X877800Y364460D03*
D13*
X279000Y198690D03*
X279000Y190690D03*
X279000Y182690D03*
X279000Y174690D03*
X292500Y174690D03*
X292500Y182690D03*
X292500Y190690D03*
X292500Y198690D03*
D14*
X-177800Y12700D03*
X-177800Y95200D03*
X-177800Y177700D03*
X-177800Y260200D03*
X-177800Y342700D03*
X-177800Y431800D03*
X-177800Y514300D03*
X-177800Y596800D03*
X-177800Y679300D03*
X-177800Y761800D03*
D13*
X279000Y253300D03*
X279000Y245300D03*
X279000Y237300D03*
X279000Y229300D03*
X292500Y229300D03*
X292500Y237300D03*
X292500Y245300D03*
X292500Y253300D03*
D15*
X431100Y667150D03*
X423100Y667150D03*
X415100Y667150D03*
X407100Y667150D03*
X407100Y653650D03*
X415100Y653650D03*
X423100Y653650D03*
X431100Y653650D03*
D13*
X279000Y318070D03*
X279000Y310070D03*
X279000Y302070D03*
X279000Y294070D03*
X292500Y294070D03*
X292500Y302070D03*
X292500Y310070D03*
X292500Y318070D03*
X279000Y373950D03*
X279000Y365950D03*
X279000Y357950D03*
X279000Y349950D03*
X292500Y349950D03*
X292500Y357950D03*
X292500Y365950D03*
X292500Y373950D03*
X18650Y240600D03*
X18650Y232600D03*
X18650Y224600D03*
X18650Y216600D03*
X32150Y216600D03*
X32150Y224600D03*
X32150Y232600D03*
X32150Y240600D03*
X18650Y291400D03*
X18650Y283400D03*
X18650Y275400D03*
X18650Y267400D03*
X32150Y267400D03*
X32150Y275400D03*
X32150Y283400D03*
X32150Y291400D03*
X18650Y342200D03*
X18650Y334200D03*
X18650Y326200D03*
X18650Y318200D03*
X32150Y318200D03*
X32150Y326200D03*
X32150Y334200D03*
X32150Y342200D03*
D15*
X470470Y667150D03*
X462470Y667150D03*
X454470Y667150D03*
X446470Y667150D03*
X446470Y653650D03*
X454470Y653650D03*
X462470Y653650D03*
X470470Y653650D03*
D13*
X597300Y243270D03*
X597300Y251270D03*
X597300Y259270D03*
X597300Y267270D03*
X583800Y267270D03*
X583800Y259270D03*
X583800Y251270D03*
X583800Y243270D03*
X585070Y208850D03*
X585070Y200850D03*
X585070Y192850D03*
X585070Y184850D03*
X598570Y184850D03*
X598570Y192850D03*
X598570Y200850D03*
X598570Y208850D03*
X583800Y326960D03*
X583800Y318960D03*
X583800Y310960D03*
X583800Y302960D03*
X597300Y302960D03*
X597300Y310960D03*
X597300Y318960D03*
X597300Y326960D03*
X710800Y325690D03*
X710800Y317690D03*
X710800Y309690D03*
X710800Y301690D03*
X724300Y301690D03*
X724300Y309690D03*
X724300Y317690D03*
X724300Y325690D03*
X710800Y267270D03*
X710800Y259270D03*
X710800Y251270D03*
X710800Y243270D03*
X724300Y243270D03*
X724300Y251270D03*
X724300Y259270D03*
X724300Y267270D03*
X712070Y208850D03*
X712070Y200850D03*
X712070Y192850D03*
X712070Y184850D03*
X725570Y184850D03*
X725570Y192850D03*
X725570Y200850D03*
X725570Y208850D03*
X800970Y325690D03*
X800970Y317690D03*
X800970Y309690D03*
X800970Y301690D03*
X814470Y301690D03*
X814470Y309690D03*
X814470Y317690D03*
X814470Y325690D03*
X799700Y267270D03*
X799700Y259270D03*
X799700Y251270D03*
X799700Y243270D03*
X813200Y243270D03*
X813200Y251270D03*
X813200Y259270D03*
X813200Y267270D03*
X800970Y382840D03*
X800970Y374840D03*
X800970Y366840D03*
X800970Y358840D03*
X814470Y358840D03*
X814470Y366840D03*
X814470Y374840D03*
X814470Y382840D03*
X799700Y207580D03*
X799700Y199580D03*
X799700Y191580D03*
X799700Y183580D03*
X813200Y183580D03*
X813200Y191580D03*
X813200Y199580D03*
X813200Y207580D03*
X915270Y211390D03*
X915270Y203390D03*
X915270Y195390D03*
X915270Y187390D03*
X928770Y187390D03*
X928770Y195390D03*
X928770Y203390D03*
X928770Y211390D03*
D10*
X114300Y63500D03*
X114300Y698500D03*
D11*
X100100Y132600D03*
D12*
X100100Y160000D03*
X100100Y187700D03*
X100100Y215400D03*
X100100Y242800D03*
X100100Y270500D03*
X100100Y298200D03*
X100100Y325600D03*
X100100Y353300D03*
X100100Y381000D03*
X100100Y408700D03*
X100100Y436400D03*
X100100Y463800D03*
X100100Y491500D03*
X100100Y519200D03*
X100100Y546600D03*
X100100Y574300D03*
X100100Y602000D03*
X100100Y629400D03*
X128500Y146300D03*
X128500Y615700D03*
X128500Y174000D03*
X128500Y588000D03*
X128500Y201400D03*
X128500Y560600D03*
X128500Y229100D03*
X128500Y532900D03*
X128500Y256800D03*
X128500Y505200D03*
X128500Y284200D03*
X128500Y477800D03*
X128500Y311900D03*
X128500Y450100D03*
X128500Y339600D03*
X128500Y422400D03*
X128500Y367000D03*
X128500Y395000D03*
D10*
X546100Y63500D03*
X546100Y698500D03*
D11*
X531900Y132600D03*
D12*
X531900Y160000D03*
X531900Y187700D03*
X531900Y215400D03*
X531900Y242800D03*
X531900Y270500D03*
X531900Y298200D03*
X531900Y325600D03*
X531900Y353300D03*
X531900Y381000D03*
X531900Y408700D03*
X531900Y436400D03*
X531900Y463800D03*
X531900Y491500D03*
X531900Y519200D03*
X531900Y546600D03*
X531900Y574300D03*
X531900Y602000D03*
X531900Y629400D03*
X560300Y146300D03*
X560300Y615700D03*
X560300Y174000D03*
X560300Y588000D03*
X560300Y201400D03*
X560300Y560600D03*
X560300Y229100D03*
X560300Y532900D03*
X560300Y256800D03*
X560300Y505200D03*
X560300Y284200D03*
X560300Y477800D03*
X560300Y311900D03*
X560300Y450100D03*
X560300Y339600D03*
X560300Y422400D03*
X560300Y367000D03*
X560300Y395000D03*
D10*
X330200Y63500D03*
X330200Y698500D03*
D11*
X316000Y132600D03*
D12*
X316000Y160000D03*
X316000Y187700D03*
X316000Y215400D03*
X316000Y242800D03*
X316000Y270500D03*
X316000Y298200D03*
X316000Y325600D03*
X316000Y353300D03*
X316000Y381000D03*
X316000Y408700D03*
X316000Y436400D03*
X316000Y463800D03*
X316000Y491500D03*
X316000Y519200D03*
X316000Y546600D03*
X316000Y574300D03*
X316000Y602000D03*
X316000Y629400D03*
X344400Y146300D03*
X344400Y615700D03*
X344400Y174000D03*
X344400Y588000D03*
X344400Y201400D03*
X344400Y560600D03*
X344400Y229100D03*
X344400Y532900D03*
X344400Y256800D03*
X344400Y505200D03*
X344400Y284200D03*
X344400Y477800D03*
X344400Y311900D03*
X344400Y450100D03*
X344400Y339600D03*
X344400Y422400D03*
X344400Y367000D03*
X344400Y395000D03*
D10*
X762000Y63500D03*
X762000Y698500D03*
D11*
X747800Y132600D03*
D12*
X747800Y160000D03*
X747800Y187700D03*
X747800Y215400D03*
X747800Y242800D03*
X747800Y270500D03*
X747800Y298200D03*
X747800Y325600D03*
X747800Y353300D03*
X747800Y381000D03*
X747800Y408700D03*
X747800Y436400D03*
X747800Y463800D03*
X747800Y491500D03*
X747800Y519200D03*
X747800Y546600D03*
X747800Y574300D03*
X747800Y602000D03*
X747800Y629400D03*
X776200Y146300D03*
X776200Y615700D03*
X776200Y174000D03*
X776200Y588000D03*
X776200Y201400D03*
X776200Y560600D03*
X776200Y229100D03*
X776200Y532900D03*
X776200Y256800D03*
X776200Y505200D03*
X776200Y284200D03*
X776200Y477800D03*
X776200Y311900D03*
X776200Y450100D03*
X776200Y339600D03*
X776200Y422400D03*
X776200Y367000D03*
X776200Y395000D03*
D10*
X965200Y63500D03*
X965200Y698500D03*
D11*
X951000Y132600D03*
D12*
X951000Y160000D03*
X951000Y187700D03*
X951000Y215400D03*
X951000Y242800D03*
X951000Y270500D03*
X951000Y298200D03*
X951000Y325600D03*
X951000Y353300D03*
X951000Y381000D03*
X951000Y408700D03*
X951000Y436400D03*
X951000Y463800D03*
X951000Y491500D03*
X951000Y519200D03*
X951000Y546600D03*
X951000Y574300D03*
X951000Y602000D03*
X951000Y629400D03*
X979400Y146300D03*
X979400Y615700D03*
X979400Y174000D03*
X979400Y588000D03*
X979400Y201400D03*
X979400Y560600D03*
X979400Y229100D03*
X979400Y532900D03*
X979400Y256800D03*
X979400Y505200D03*
X979400Y284200D03*
X979400Y477800D03*
X979400Y311900D03*
X979400Y450100D03*
X979400Y339600D03*
X979400Y422400D03*
X979400Y367000D03*
X979400Y395000D03*
D16*
X262890Y314648D03*
X6809Y218750D03*
X-12700Y203200D03*
X254000Y337030D03*
X-12700Y393700D03*
X25400Y419100D03*
X448310Y637540D03*
X464820Y680720D03*
X791210Y176530D03*
X835660Y152400D03*
X595630Y220980D03*
X609600Y254000D03*
X642620Y250190D03*
X690880Y322580D03*
X689610Y381000D03*
X683260Y233680D03*
X698500Y203200D03*
X678180Y120650D03*
X708660Y133350D03*
X916940Y130810D03*
X891540Y132080D03*
X838200Y558800D03*
X825500Y584200D03*
X76200Y457200D03*
X38100Y469900D03*
X45720Y326390D03*
X266700Y286948D03*
X50800Y266700D03*
X-1750Y254000D03*
X477520Y252730D03*
X190500Y292100D03*
X165100Y346580D03*
X165100Y304800D03*
X50800Y215900D03*
X469900Y368300D03*
X41910Y232410D03*
X374170Y558800D03*
X49088Y252288D03*
X359679Y349322D03*
X301315Y315285D03*
X464948Y333042D03*
X406400Y342900D03*
X724380Y243270D03*
X718002Y691698D03*
X732790Y259080D03*
X487430Y177550D03*
X718754Y272570D03*
X482600Y215900D03*
X518223Y136618D03*
X546100Y252822D03*
X660400Y322466D03*
X695315Y348625D03*
X908530Y304800D03*
X850900Y336166D03*
X724832Y368300D03*
X706092Y373380D03*
X835275Y187575D03*
X808542Y191386D03*
X799140Y215900D03*
X813200Y199580D03*
X852390Y254164D03*
X812800Y215900D03*
X817880Y242570D03*
X825500Y190500D03*
X813732Y251274D03*
X732505Y379946D03*
X705330Y406400D03*
X660400Y432966D03*
X584200Y457200D03*
X660400Y406400D03*
X706092Y386080D03*
X821690Y259080D03*
X730122Y348231D03*
X357890Y268990D03*
X147320Y265430D03*
X365813Y254000D03*
X300990Y358140D03*
X396240Y231140D03*
X303100Y341200D03*
X290601Y279171D03*
X599440Y171450D03*
X482215Y165485D03*
X546100Y170848D03*
X373380Y349250D03*
X587066Y278841D03*
X508999Y273050D03*
X573406Y259270D03*
X685800Y622300D03*
X793878Y279400D03*
X836294Y375975D03*
X837292Y427434D03*
X838200Y508000D03*
X890906Y444500D03*
X810260Y170180D03*
X865808Y438150D03*
X812800Y355600D03*
X892230Y485830D03*
X292100Y219710D03*
X266700Y167280D03*
X280743Y151057D03*
X282229Y121130D03*
X812800Y533400D03*
X304243Y236022D03*
X457200Y88900D03*
X292100Y125770D03*
X292100Y152400D03*
X303172Y209693D03*
X462455Y471345D03*
X332292Y415974D03*
X254000Y368300D03*
X177800Y346580D03*
X163388Y243012D03*
X190500Y215900D03*
X330200Y114300D03*
X250849Y273208D03*
X262838Y253210D03*
X476250Y114300D03*
X429592Y122090D03*
X353225Y164290D03*
X304822Y195057D03*
X256290Y246630D03*
X408940Y112240D03*
X280563Y263426D03*
X394970Y119380D03*
X302260Y245110D03*
X355600Y88900D03*
X369019Y126281D03*
X367666Y158250D03*
X222426Y190423D03*
X227775Y240475D03*
X361831Y280551D03*
X596900Y355600D03*
X520700Y444500D03*
X76200Y546100D03*
X724832Y393700D03*
X63500Y330200D03*
X88900Y342900D03*
X393700Y368300D03*
X393700Y342900D03*
X603250Y152400D03*
X615950Y172720D03*
X731520Y153670D03*
X732790Y133350D03*
X165100Y203200D03*
X171450Y220980D03*
X364490Y228600D03*
X377190Y208280D03*
X896620Y610870D03*
X935990Y610870D03*
X373380Y181610D03*
M02*
