M48
;GenerationSoftware,Autodesk,EAGLE,9.7.0*%
;CreationDate,2024-05-07T15:07:33Z*%
FMAT,2
ICI,OFF
METRIC,TZ,000.000
T9C0.350
T8C1.300
T7C1.321
T6C1.854
T5C3.302
T4C4.318
T3C4.623
T2C4.699
T1C6.680
%
G90
M71
T1
X115570Y57150
X115570Y92710
X115570Y5344
X115570Y40904
T2
X121031Y109591
X121031Y129911
X70231Y129911
X70231Y123053
X70358Y116068
X70358Y109591
X121031Y119751
T3
X8890Y30744
X115570Y67310
X115570Y74930
X115570Y82550
X8890Y57150
X8890Y67310
X8890Y82550
X8890Y92710
X8890Y15504
X8890Y5344
X115570Y30744
X115570Y23124
X115570Y15504
X8890Y40904
T4
X-11430Y114300
X133350Y2540
X-11430Y2540
X133477Y114300
T5
X95631Y104511
X95631Y134864
T6
X-8890Y62220
X138430Y37470
X-8890Y43160
X-8890Y33630
X-8890Y52690
X138430Y27940
X138430Y47000
X138430Y56530
X138430Y66060
X138430Y75590
X-8890Y81280
X-8890Y71750
T7
X81280Y7620
X73660Y7620
T8
X2667Y132528
X-2373Y132528
X7707Y132528
X-17633Y132528
X-17633Y125028
X7707Y125028
X2667Y125028
X-17633Y128778
X-2373Y125028
T9
X34290Y25400
X83947Y14732
X132720Y37470
X40640Y18618
X82550Y20320
X74930Y-1270
X121920Y-2540
X101600Y55880
X101600Y50800
X41148Y22098
M30