G04 EAGLE Gerber RS-274X export*
G75*
%MOMM*%
%FSLAX34Y34*%
%LPD*%
%INTop Copper*%
%IPPOS*%
%AMOC8*
5,1,8,0,0,1.08239X$1,22.5*%
G01*
G04 Define Apertures*
%ADD10C,0.130000*%
%ADD11R,2.000000X2.000000*%
%ADD12C,0.640000*%
%ADD13R,1.200000X1.200000*%
%ADD14R,1.000000X1.100000*%
%ADD15R,1.100000X1.000000*%
%ADD16R,10.410000X10.800000*%
%ADD17R,3.000000X1.066800*%
%ADD18R,0.800000X1.200000*%
%ADD19R,1.200000X0.800000*%
%ADD20C,1.950000*%
%ADD21R,1.320800X0.558800*%
%ADD22R,2.781000X2.781000*%
%ADD23C,2.781000*%
%ADD24C,5.969000*%
%ADD25C,5.080000*%
%ADD26P,2.33688X8X22.5*%
%ADD27R,5.638800X5.638800*%
%ADD28C,5.638800*%
%ADD29C,7.696200*%
%ADD30C,0.508000*%
%ADD31C,0.756400*%
%ADD32C,0.457200*%
G36*
X1547710Y-65919D02*
X1547116Y-66040D01*
X-216916Y-66040D01*
X-217465Y-65938D01*
X-217976Y-65611D01*
X-218319Y-65110D01*
X-218440Y-64516D01*
X-218440Y1372516D01*
X-218338Y1373065D01*
X-218011Y1373576D01*
X-217510Y1373919D01*
X-216916Y1374040D01*
X938736Y1374040D01*
X939060Y1374005D01*
X939615Y1373761D01*
X940031Y1373320D01*
X940242Y1372751D01*
X940215Y1372145D01*
X939953Y1371598D01*
X939498Y1371196D01*
X939154Y1370998D01*
X933952Y1365796D01*
X930274Y1359424D01*
X928370Y1352318D01*
X928370Y1350164D01*
X984250Y1350164D01*
X984250Y1352318D01*
X982346Y1359424D01*
X978668Y1365796D01*
X973466Y1370998D01*
X973122Y1371196D01*
X972859Y1371388D01*
X972500Y1371877D01*
X972360Y1372467D01*
X972462Y1373065D01*
X972789Y1373576D01*
X973289Y1373919D01*
X973884Y1374040D01*
X1547116Y1374040D01*
X1547665Y1373938D01*
X1548176Y1373611D01*
X1548519Y1373110D01*
X1548640Y1372516D01*
X1548640Y1076987D01*
X1548546Y1076460D01*
X1548227Y1075944D01*
X1547733Y1075593D01*
X1547140Y1075463D01*
X1546544Y1075574D01*
X1546038Y1075909D01*
X1260206Y1361741D01*
X1259808Y1362094D01*
X1259409Y1362371D01*
X1258980Y1362598D01*
X1258526Y1362772D01*
X1258055Y1362890D01*
X1257554Y1362955D01*
X1257275Y1362964D01*
X1206546Y1362964D01*
X1206015Y1362932D01*
X1205537Y1362845D01*
X1205073Y1362702D01*
X1204629Y1362505D01*
X1204213Y1362256D01*
X1203812Y1361946D01*
X1203608Y1361755D01*
X1165559Y1323706D01*
X1165206Y1323308D01*
X1164929Y1322909D01*
X1164702Y1322480D01*
X1164528Y1322026D01*
X1164410Y1321555D01*
X1164345Y1321054D01*
X1164336Y1320775D01*
X1164336Y1244646D01*
X1164368Y1244115D01*
X1164455Y1243637D01*
X1164598Y1243173D01*
X1164795Y1242729D01*
X1165044Y1242313D01*
X1165354Y1241912D01*
X1165545Y1241708D01*
X1184971Y1222281D01*
X1185287Y1221820D01*
X1185418Y1221228D01*
X1185306Y1220632D01*
X1184971Y1220126D01*
X1183176Y1218331D01*
X1178712Y1210598D01*
X1176401Y1201974D01*
X1176401Y1193046D01*
X1178712Y1184422D01*
X1183176Y1176689D01*
X1189489Y1170376D01*
X1197222Y1165912D01*
X1205846Y1163601D01*
X1214774Y1163601D01*
X1223398Y1165912D01*
X1231131Y1170376D01*
X1232926Y1172171D01*
X1233387Y1172487D01*
X1233979Y1172618D01*
X1234576Y1172506D01*
X1235081Y1172171D01*
X1244887Y1162366D01*
X1245193Y1161927D01*
X1245333Y1161337D01*
X1245231Y1160739D01*
X1244904Y1160228D01*
X1244404Y1159885D01*
X1243809Y1159764D01*
X1193846Y1159764D01*
X1193315Y1159732D01*
X1192837Y1159645D01*
X1192373Y1159502D01*
X1191929Y1159305D01*
X1191513Y1159056D01*
X1191112Y1158746D01*
X1190908Y1158555D01*
X1152859Y1120506D01*
X1152506Y1120108D01*
X1152229Y1119709D01*
X1152002Y1119280D01*
X1151828Y1118826D01*
X1151710Y1118355D01*
X1151645Y1117854D01*
X1151636Y1117575D01*
X1151636Y1041446D01*
X1151668Y1040915D01*
X1151755Y1040437D01*
X1151898Y1039973D01*
X1152095Y1039529D01*
X1152344Y1039113D01*
X1152641Y1038728D01*
X1152982Y1038382D01*
X1153362Y1038079D01*
X1153775Y1037824D01*
X1154216Y1037620D01*
X1154678Y1037470D01*
X1155149Y1037377D01*
X1155751Y1037336D01*
X1193262Y1037336D01*
X1193811Y1037234D01*
X1194322Y1036907D01*
X1194665Y1036406D01*
X1194786Y1035812D01*
X1194786Y1023287D01*
X1197167Y1020906D01*
X1211533Y1020906D01*
X1211772Y1021145D01*
X1212233Y1021461D01*
X1212826Y1021591D01*
X1213422Y1021480D01*
X1213928Y1021145D01*
X1214167Y1020906D01*
X1228533Y1020906D01*
X1230914Y1023287D01*
X1230914Y1035812D01*
X1231016Y1036361D01*
X1231343Y1036872D01*
X1231844Y1037215D01*
X1232438Y1037336D01*
X1293085Y1037336D01*
X1293657Y1037225D01*
X1294163Y1036890D01*
X1341690Y989363D01*
X1342015Y988880D01*
X1342136Y988285D01*
X1342136Y628407D01*
X1342025Y627835D01*
X1341690Y627329D01*
X1315201Y600841D01*
X1314523Y599204D01*
X1314227Y598745D01*
X1313732Y598394D01*
X1313140Y598263D01*
X1312543Y598375D01*
X1312038Y598710D01*
X1182245Y728502D01*
X1181857Y729162D01*
X1181810Y729767D01*
X1182003Y730342D01*
X1185760Y736849D01*
X1187958Y745053D01*
X1187958Y753547D01*
X1185760Y761751D01*
X1181513Y769107D01*
X1175507Y775113D01*
X1168151Y779360D01*
X1159947Y781558D01*
X1151453Y781558D01*
X1143249Y779360D01*
X1136742Y775603D01*
X1136004Y775399D01*
X1135408Y775510D01*
X1134902Y775845D01*
X777606Y1133141D01*
X777208Y1133494D01*
X776809Y1133771D01*
X776380Y1133998D01*
X775926Y1134172D01*
X775455Y1134290D01*
X774954Y1134355D01*
X774675Y1134364D01*
X728898Y1134364D01*
X728371Y1134458D01*
X727855Y1134777D01*
X727504Y1135271D01*
X727374Y1135864D01*
X727485Y1136460D01*
X727820Y1136966D01*
X730714Y1139859D01*
X735178Y1147592D01*
X737489Y1156216D01*
X737489Y1165144D01*
X735243Y1173526D01*
X735191Y1173896D01*
X735303Y1174492D01*
X735638Y1174998D01*
X774029Y1213390D01*
X774512Y1213715D01*
X775107Y1213836D01*
X781383Y1213836D01*
X783897Y1216350D01*
X784380Y1216675D01*
X784975Y1216796D01*
X802525Y1216796D01*
X803097Y1216685D01*
X803603Y1216350D01*
X806117Y1213836D01*
X819483Y1213836D01*
X821997Y1216350D01*
X822480Y1216675D01*
X823075Y1216796D01*
X840625Y1216796D01*
X841197Y1216685D01*
X841703Y1216350D01*
X844217Y1213836D01*
X857583Y1213836D01*
X860097Y1216350D01*
X860580Y1216675D01*
X861175Y1216796D01*
X878725Y1216796D01*
X879297Y1216685D01*
X879803Y1216350D01*
X882317Y1213836D01*
X895683Y1213836D01*
X898064Y1216217D01*
X898064Y1230583D01*
X897825Y1230822D01*
X897509Y1231283D01*
X897379Y1231876D01*
X897490Y1232472D01*
X897825Y1232978D01*
X898064Y1233217D01*
X898064Y1247583D01*
X895683Y1249964D01*
X882317Y1249964D01*
X879803Y1247450D01*
X879320Y1247125D01*
X878725Y1247004D01*
X861175Y1247004D01*
X860603Y1247115D01*
X860097Y1247450D01*
X857583Y1249964D01*
X844217Y1249964D01*
X841703Y1247450D01*
X841220Y1247125D01*
X840625Y1247004D01*
X823075Y1247004D01*
X822503Y1247115D01*
X821997Y1247450D01*
X819483Y1249964D01*
X806117Y1249964D01*
X803603Y1247450D01*
X803120Y1247125D01*
X802525Y1247004D01*
X784975Y1247004D01*
X784403Y1247115D01*
X783897Y1247450D01*
X781383Y1249964D01*
X775107Y1249964D01*
X774535Y1250075D01*
X774029Y1250410D01*
X735483Y1288956D01*
X735253Y1289251D01*
X735052Y1289823D01*
X735089Y1290428D01*
X736219Y1294646D01*
X736219Y1303574D01*
X733908Y1312198D01*
X729444Y1319931D01*
X723131Y1326244D01*
X715398Y1330708D01*
X706774Y1333019D01*
X697846Y1333019D01*
X689222Y1330708D01*
X681489Y1326244D01*
X675176Y1319931D01*
X670712Y1312198D01*
X668401Y1303574D01*
X668401Y1294646D01*
X670712Y1286022D01*
X675176Y1278289D01*
X681489Y1271976D01*
X689222Y1267512D01*
X693774Y1266292D01*
X694077Y1266175D01*
X694551Y1265795D01*
X694838Y1265261D01*
X694895Y1264657D01*
X694711Y1264079D01*
X694317Y1263618D01*
X693774Y1263348D01*
X689222Y1262128D01*
X681489Y1257664D01*
X675176Y1251351D01*
X670712Y1243618D01*
X668401Y1234994D01*
X668401Y1226066D01*
X670712Y1217442D01*
X675176Y1209709D01*
X681489Y1203396D01*
X689222Y1198932D01*
X696779Y1196907D01*
X697082Y1196790D01*
X697555Y1196410D01*
X697843Y1195876D01*
X697900Y1195272D01*
X697716Y1194694D01*
X697322Y1194233D01*
X696779Y1193963D01*
X690492Y1192278D01*
X682759Y1187814D01*
X676446Y1181501D01*
X671982Y1173768D01*
X669671Y1165144D01*
X669671Y1156216D01*
X671982Y1147592D01*
X676446Y1139859D01*
X679340Y1136966D01*
X679646Y1136527D01*
X679785Y1135937D01*
X679684Y1135339D01*
X679357Y1134828D01*
X678857Y1134485D01*
X678262Y1134364D01*
X660446Y1134364D01*
X659915Y1134332D01*
X659437Y1134245D01*
X658973Y1134102D01*
X658529Y1133905D01*
X658113Y1133656D01*
X657728Y1133359D01*
X657382Y1133018D01*
X657079Y1132638D01*
X656824Y1132225D01*
X656620Y1131784D01*
X656470Y1131322D01*
X656376Y1130846D01*
X656339Y1130361D01*
X656361Y1129876D01*
X656440Y1129397D01*
X656577Y1128931D01*
X656767Y1128484D01*
X657010Y1128063D01*
X657310Y1127663D01*
X657548Y1127404D01*
X672609Y1112344D01*
X672997Y1111684D01*
X673044Y1111079D01*
X672851Y1110504D01*
X671982Y1108998D01*
X669671Y1100374D01*
X669671Y1091446D01*
X671982Y1082822D01*
X676446Y1075089D01*
X682759Y1068776D01*
X690492Y1064312D01*
X699116Y1062001D01*
X708044Y1062001D01*
X716668Y1064312D01*
X718174Y1065181D01*
X718912Y1065385D01*
X719508Y1065274D01*
X720014Y1064939D01*
X1087690Y697263D01*
X1088015Y696780D01*
X1088136Y696185D01*
X1088136Y690735D01*
X1088042Y690209D01*
X1087723Y689693D01*
X1087229Y689342D01*
X1086636Y689212D01*
X1086040Y689323D01*
X1085561Y689640D01*
X1081024Y689640D01*
X1081024Y680076D01*
X1071960Y680076D01*
X1071960Y674953D01*
X1072069Y674794D01*
X1072199Y674202D01*
X1072088Y673606D01*
X1071753Y673100D01*
X1070436Y671783D01*
X1070436Y670415D01*
X1070325Y669843D01*
X1069990Y669337D01*
X1063959Y663306D01*
X1063606Y662908D01*
X1063329Y662509D01*
X1063102Y662080D01*
X1062928Y661626D01*
X1062810Y661155D01*
X1062745Y660654D01*
X1062736Y660375D01*
X1062736Y541528D01*
X1062634Y540979D01*
X1062307Y540468D01*
X1061806Y540125D01*
X1061212Y540004D01*
X722586Y540004D01*
X720159Y538999D01*
X453895Y272734D01*
X453412Y272409D01*
X452817Y272288D01*
X400668Y272288D01*
X400119Y272390D01*
X399608Y272717D01*
X399265Y273218D01*
X399144Y273812D01*
X399144Y287573D01*
X399255Y288145D01*
X399590Y288651D01*
X422858Y311919D01*
X423297Y312225D01*
X423887Y312364D01*
X424485Y312263D01*
X424996Y311936D01*
X425339Y311436D01*
X425460Y310841D01*
X425460Y305054D01*
X435524Y305054D01*
X435524Y294990D01*
X441052Y294990D01*
X442345Y296283D01*
X442806Y296599D01*
X443398Y296729D01*
X443994Y296618D01*
X444500Y296283D01*
X447317Y293466D01*
X462683Y293466D01*
X465064Y295847D01*
X465064Y311213D01*
X462581Y313696D01*
X462579Y313696D01*
X462068Y314023D01*
X461725Y314524D01*
X461604Y315118D01*
X461604Y315575D01*
X461715Y316147D01*
X462050Y316653D01*
X462564Y317167D01*
X462564Y330533D01*
X460183Y332914D01*
X445817Y332914D01*
X445578Y332675D01*
X445117Y332359D01*
X444524Y332229D01*
X443928Y332340D01*
X443422Y332675D01*
X443183Y332914D01*
X428817Y332914D01*
X426803Y330900D01*
X426320Y330575D01*
X425725Y330454D01*
X424136Y330454D01*
X421709Y329449D01*
X386941Y294681D01*
X385936Y292254D01*
X385936Y273812D01*
X385834Y273263D01*
X385507Y272752D01*
X385006Y272409D01*
X384412Y272288D01*
X343962Y272288D01*
X343431Y272256D01*
X342953Y272169D01*
X342489Y272026D01*
X342045Y271829D01*
X341629Y271580D01*
X341244Y271283D01*
X340898Y270942D01*
X340595Y270562D01*
X340340Y270149D01*
X340136Y269708D01*
X339986Y269246D01*
X339893Y268775D01*
X339852Y268173D01*
X339852Y262248D01*
X339745Y261688D01*
X339414Y261179D01*
X338911Y260840D01*
X338456Y260652D01*
X336249Y258444D01*
X335054Y255561D01*
X335054Y252439D01*
X336180Y249721D01*
X336296Y249138D01*
X336296Y243328D01*
X336194Y242779D01*
X335867Y242268D01*
X335366Y241925D01*
X334772Y241804D01*
X327407Y241804D01*
X325026Y239423D01*
X325026Y236728D01*
X324924Y236179D01*
X324597Y235668D01*
X324096Y235325D01*
X323502Y235204D01*
X316186Y235204D01*
X313759Y234199D01*
X299201Y219641D01*
X298196Y217214D01*
X298196Y157996D01*
X299201Y155569D01*
X340730Y114041D01*
X341055Y113558D01*
X341176Y112963D01*
X341176Y77125D01*
X342282Y74455D01*
X344325Y72412D01*
X346995Y71306D01*
X375485Y71306D01*
X378155Y72412D01*
X380198Y74455D01*
X381304Y77125D01*
X381304Y119888D01*
X381406Y120437D01*
X381733Y120948D01*
X382234Y121291D01*
X382828Y121412D01*
X404652Y121412D01*
X405201Y121310D01*
X405712Y120983D01*
X406055Y120482D01*
X406176Y119888D01*
X406176Y77125D01*
X407282Y74455D01*
X409325Y72412D01*
X411995Y71306D01*
X440485Y71306D01*
X443155Y72412D01*
X445198Y74455D01*
X446304Y77125D01*
X446304Y119888D01*
X446406Y120437D01*
X446733Y120948D01*
X447234Y121291D01*
X447828Y121412D01*
X715772Y121412D01*
X716321Y121310D01*
X716832Y120983D01*
X717175Y120482D01*
X717296Y119888D01*
X717296Y87586D01*
X718301Y85159D01*
X721295Y82166D01*
X721620Y81683D01*
X721741Y81088D01*
X721741Y70045D01*
X729550Y62237D01*
X729875Y61753D01*
X729996Y61159D01*
X729996Y49486D01*
X731001Y47059D01*
X834459Y-56399D01*
X836886Y-57404D01*
X1372914Y-57404D01*
X1375341Y-56399D01*
X1529599Y97859D01*
X1530604Y100286D01*
X1530604Y331514D01*
X1529599Y333941D01*
X1438405Y425134D01*
X1438099Y425573D01*
X1437960Y426163D01*
X1438061Y426761D01*
X1438388Y427272D01*
X1438888Y427615D01*
X1439483Y427736D01*
X1473154Y427736D01*
X1473685Y427768D01*
X1474163Y427855D01*
X1474627Y427998D01*
X1475071Y428195D01*
X1475488Y428444D01*
X1475888Y428754D01*
X1476092Y428945D01*
X1546038Y498891D01*
X1546477Y499197D01*
X1547067Y499337D01*
X1547665Y499235D01*
X1548176Y498908D01*
X1548519Y498408D01*
X1548640Y497813D01*
X1548640Y-64516D01*
X1548538Y-65065D01*
X1548211Y-65576D01*
X1547710Y-65919D01*
G37*
%LPC*%
G36*
X957834Y1320700D02*
X959988Y1320700D01*
X967094Y1322604D01*
X973466Y1326282D01*
X978668Y1331484D01*
X982346Y1337856D01*
X984250Y1344962D01*
X984250Y1347116D01*
X957834Y1347116D01*
X957834Y1320700D01*
G37*
G36*
X952632Y1320700D02*
X954786Y1320700D01*
X954786Y1347116D01*
X928370Y1347116D01*
X928370Y1344962D01*
X930274Y1337856D01*
X933952Y1331484D01*
X939154Y1326282D01*
X945526Y1322604D01*
X952632Y1320700D01*
G37*
G36*
X-26478Y1236466D02*
X-20982Y1236466D01*
X-15905Y1238569D01*
X-12019Y1242455D01*
X-9916Y1247532D01*
X-9916Y1253028D01*
X-12019Y1258105D01*
X-15905Y1261991D01*
X-16185Y1262107D01*
X-16662Y1262420D01*
X-17005Y1262921D01*
X-17126Y1263515D01*
X-17126Y1312045D01*
X-17019Y1312606D01*
X-16688Y1313114D01*
X-16185Y1313453D01*
X-15905Y1313569D01*
X-12019Y1317455D01*
X-9916Y1322532D01*
X-9916Y1328028D01*
X-12019Y1333105D01*
X-15905Y1336991D01*
X-20982Y1339094D01*
X-26478Y1339094D01*
X-31555Y1336991D01*
X-35441Y1333105D01*
X-37544Y1328028D01*
X-37544Y1322532D01*
X-35441Y1317455D01*
X-31555Y1313569D01*
X-31275Y1313453D01*
X-30798Y1313140D01*
X-30455Y1312639D01*
X-30334Y1312045D01*
X-30334Y1263515D01*
X-30441Y1262954D01*
X-30772Y1262446D01*
X-31275Y1262107D01*
X-31555Y1261991D01*
X-35441Y1258105D01*
X-37544Y1253028D01*
X-37544Y1247532D01*
X-35441Y1242455D01*
X-31555Y1238569D01*
X-26478Y1236466D01*
G37*
G36*
X-92474Y699531D02*
X-85326Y699531D01*
X-78721Y702267D01*
X-73667Y707321D01*
X-70931Y713926D01*
X-70931Y721074D01*
X-73667Y727679D01*
X-78721Y732733D01*
X-85326Y735469D01*
X-92474Y735469D01*
X-95108Y734378D01*
X-95667Y734262D01*
X-96263Y734373D01*
X-96769Y734708D01*
X-196150Y834089D01*
X-196475Y834572D01*
X-196596Y835167D01*
X-196596Y1295043D01*
X-196485Y1295615D01*
X-196150Y1296121D01*
X-181019Y1311252D01*
X-180547Y1311573D01*
X-179953Y1311698D01*
X-179358Y1311582D01*
X-179078Y1311466D01*
X-173582Y1311466D01*
X-168505Y1313569D01*
X-164619Y1317455D01*
X-162516Y1322532D01*
X-162516Y1328028D01*
X-164619Y1333105D01*
X-168505Y1336991D01*
X-173582Y1339094D01*
X-179078Y1339094D01*
X-184155Y1336991D01*
X-188041Y1333105D01*
X-190144Y1328028D01*
X-190144Y1322532D01*
X-190028Y1322252D01*
X-189912Y1321693D01*
X-190023Y1321097D01*
X-190358Y1320591D01*
X-208799Y1302151D01*
X-209804Y1299724D01*
X-209804Y830486D01*
X-208799Y828059D01*
X-106108Y725369D01*
X-105788Y724897D01*
X-105662Y724303D01*
X-105778Y723708D01*
X-106869Y721074D01*
X-106869Y713926D01*
X-104133Y707321D01*
X-99079Y702267D01*
X-92474Y699531D01*
G37*
G36*
X84653Y122778D02*
X93147Y122778D01*
X101351Y124976D01*
X108707Y129223D01*
X114713Y135229D01*
X118960Y142585D01*
X121158Y150789D01*
X121158Y159283D01*
X118960Y167487D01*
X114713Y174843D01*
X108707Y180849D01*
X101351Y185096D01*
X93147Y187294D01*
X84653Y187294D01*
X76449Y185096D01*
X72219Y182654D01*
X71482Y182450D01*
X70885Y182561D01*
X70380Y182896D01*
X19750Y233525D01*
X19425Y234008D01*
X19304Y234603D01*
X19304Y593533D01*
X19415Y594105D01*
X19750Y594611D01*
X70380Y645240D01*
X71039Y645628D01*
X71644Y645675D01*
X72219Y645482D01*
X76449Y643040D01*
X84653Y640842D01*
X93147Y640842D01*
X101351Y643040D01*
X108707Y647287D01*
X114713Y653293D01*
X118960Y660649D01*
X121158Y668853D01*
X121158Y677347D01*
X118960Y685551D01*
X114713Y692907D01*
X108707Y698913D01*
X101351Y703160D01*
X93147Y705358D01*
X84653Y705358D01*
X76449Y703160D01*
X72219Y700718D01*
X71482Y700514D01*
X70885Y700625D01*
X70380Y700960D01*
X23950Y747389D01*
X23625Y747872D01*
X23504Y748467D01*
X23504Y751725D01*
X23615Y752297D01*
X23950Y752803D01*
X25400Y754253D01*
X25861Y754569D01*
X26453Y754699D01*
X27050Y754588D01*
X27242Y754460D01*
X32376Y754460D01*
X32376Y769540D01*
X27253Y769540D01*
X27094Y769431D01*
X26502Y769301D01*
X25906Y769412D01*
X25400Y769747D01*
X23950Y771197D01*
X23625Y771680D01*
X23504Y772275D01*
X23504Y1186743D01*
X23615Y1187315D01*
X23950Y1187821D01*
X72381Y1236252D01*
X72853Y1236573D01*
X73447Y1236698D01*
X74042Y1236582D01*
X74322Y1236466D01*
X79818Y1236466D01*
X84895Y1238569D01*
X88781Y1242455D01*
X90884Y1247532D01*
X90884Y1253028D01*
X88781Y1258105D01*
X84895Y1261991D01*
X84615Y1262107D01*
X84138Y1262420D01*
X83795Y1262921D01*
X83674Y1263515D01*
X83674Y1312045D01*
X83781Y1312606D01*
X84112Y1313114D01*
X84615Y1313453D01*
X84895Y1313569D01*
X88781Y1317455D01*
X90884Y1322532D01*
X90884Y1328028D01*
X88781Y1333105D01*
X84895Y1336991D01*
X79818Y1339094D01*
X74322Y1339094D01*
X69245Y1336991D01*
X65359Y1333105D01*
X63256Y1328028D01*
X63256Y1322532D01*
X65359Y1317455D01*
X69245Y1313569D01*
X69525Y1313453D01*
X70002Y1313140D01*
X70345Y1312639D01*
X70466Y1312045D01*
X70466Y1263515D01*
X70359Y1262954D01*
X70028Y1262446D01*
X69525Y1262107D01*
X69245Y1261991D01*
X65359Y1258105D01*
X63256Y1253028D01*
X63256Y1247532D01*
X63372Y1247252D01*
X63488Y1246693D01*
X63377Y1246097D01*
X63042Y1245591D01*
X11301Y1193851D01*
X10296Y1191424D01*
X10296Y772275D01*
X10185Y771703D01*
X9850Y771197D01*
X7336Y768683D01*
X7336Y755317D01*
X9850Y752803D01*
X10175Y752320D01*
X10296Y751725D01*
X10296Y743786D01*
X11301Y741359D01*
X61040Y691620D01*
X61428Y690961D01*
X61475Y690356D01*
X61282Y689781D01*
X58840Y685551D01*
X56642Y677347D01*
X56642Y668853D01*
X58840Y660649D01*
X61282Y656419D01*
X61486Y655682D01*
X61375Y655085D01*
X61040Y654580D01*
X7101Y600641D01*
X6096Y598214D01*
X6096Y229922D01*
X7101Y227495D01*
X61040Y173556D01*
X61428Y172897D01*
X61475Y172292D01*
X61282Y171717D01*
X58840Y167487D01*
X56642Y159283D01*
X56642Y150789D01*
X58840Y142585D01*
X63087Y135229D01*
X69093Y129223D01*
X76449Y124976D01*
X84653Y122778D01*
G37*
G36*
X28194Y1326804D02*
X38960Y1326804D01*
X38960Y1327725D01*
X37089Y1332242D01*
X33632Y1335699D01*
X29115Y1337570D01*
X28194Y1337570D01*
X28194Y1326804D01*
G37*
G36*
X14380Y1326804D02*
X25146Y1326804D01*
X25146Y1337570D01*
X24225Y1337570D01*
X19708Y1335699D01*
X16251Y1332242D01*
X14380Y1327725D01*
X14380Y1326804D01*
G37*
G36*
X24225Y1312990D02*
X25146Y1312990D01*
X25146Y1323756D01*
X14380Y1323756D01*
X14380Y1322835D01*
X16251Y1318318D01*
X19708Y1314861D01*
X24225Y1312990D01*
G37*
G36*
X28194Y1312990D02*
X29115Y1312990D01*
X33632Y1314861D01*
X37089Y1318318D01*
X38960Y1322835D01*
X38960Y1323756D01*
X28194Y1323756D01*
X28194Y1312990D01*
G37*
G36*
X-179078Y1273966D02*
X-173582Y1273966D01*
X-168505Y1276069D01*
X-164619Y1279955D01*
X-162516Y1285032D01*
X-162516Y1290528D01*
X-164619Y1295605D01*
X-168505Y1299491D01*
X-173582Y1301594D01*
X-179078Y1301594D01*
X-184155Y1299491D01*
X-188041Y1295605D01*
X-190144Y1290528D01*
X-190144Y1285032D01*
X-188041Y1279955D01*
X-184155Y1276069D01*
X-179078Y1273966D01*
G37*
G36*
X-104488Y794831D02*
X-73312Y794831D01*
X-70931Y797212D01*
X-70931Y828388D01*
X-73312Y830769D01*
X-96898Y830769D01*
X-97470Y830880D01*
X-97976Y831215D01*
X-169280Y902519D01*
X-169605Y903002D01*
X-169726Y903597D01*
X-169726Y1237045D01*
X-169619Y1237606D01*
X-169288Y1238114D01*
X-168785Y1238453D01*
X-168505Y1238569D01*
X-164619Y1242455D01*
X-162516Y1247532D01*
X-162516Y1253028D01*
X-164619Y1258105D01*
X-168505Y1261991D01*
X-173582Y1264094D01*
X-179078Y1264094D01*
X-184155Y1261991D01*
X-188041Y1258105D01*
X-190144Y1253028D01*
X-190144Y1247532D01*
X-188041Y1242455D01*
X-184155Y1238569D01*
X-183875Y1238453D01*
X-183398Y1238140D01*
X-183055Y1237639D01*
X-182934Y1237045D01*
X-182934Y898916D01*
X-181929Y896489D01*
X-107315Y821876D01*
X-106990Y821393D01*
X-106869Y820798D01*
X-106869Y797212D01*
X-104488Y794831D01*
G37*
G36*
X28194Y1251804D02*
X38960Y1251804D01*
X38960Y1252725D01*
X37089Y1257242D01*
X33632Y1260699D01*
X29115Y1262570D01*
X28194Y1262570D01*
X28194Y1251804D01*
G37*
G36*
X14380Y1251804D02*
X25146Y1251804D01*
X25146Y1262570D01*
X24225Y1262570D01*
X19708Y1260699D01*
X16251Y1257242D01*
X14380Y1252725D01*
X14380Y1251804D01*
G37*
G36*
X24225Y1237990D02*
X25146Y1237990D01*
X25146Y1248756D01*
X14380Y1248756D01*
X14380Y1247835D01*
X16251Y1243318D01*
X19708Y1239861D01*
X24225Y1237990D01*
G37*
G36*
X28194Y1237990D02*
X29115Y1237990D01*
X33632Y1239861D01*
X37089Y1243318D01*
X38960Y1247835D01*
X38960Y1248756D01*
X28194Y1248756D01*
X28194Y1237990D01*
G37*
G36*
X-118480Y1111250D02*
X-110120Y1111250D01*
X-102045Y1113414D01*
X-94805Y1117594D01*
X-88894Y1123505D01*
X-84714Y1130745D01*
X-82550Y1138820D01*
X-82550Y1147180D01*
X-84714Y1155255D01*
X-88894Y1162495D01*
X-94805Y1168406D01*
X-102045Y1172586D01*
X-110120Y1174750D01*
X-118480Y1174750D01*
X-126555Y1172586D01*
X-133795Y1168406D01*
X-139706Y1162495D01*
X-143886Y1155255D01*
X-146050Y1147180D01*
X-146050Y1138820D01*
X-143886Y1130745D01*
X-139706Y1123505D01*
X-133795Y1117594D01*
X-126555Y1113414D01*
X-118480Y1111250D01*
G37*
G36*
X928370Y1046634D02*
X954786Y1046634D01*
X954786Y1073050D01*
X952632Y1073050D01*
X945526Y1071146D01*
X939154Y1067468D01*
X933952Y1062266D01*
X930274Y1055894D01*
X928370Y1048788D01*
X928370Y1046634D01*
G37*
G36*
X957834Y1046634D02*
X984250Y1046634D01*
X984250Y1048788D01*
X982346Y1055894D01*
X978668Y1062266D01*
X973466Y1067468D01*
X967094Y1071146D01*
X959988Y1073050D01*
X957834Y1073050D01*
X957834Y1046634D01*
G37*
G36*
X957834Y1017170D02*
X959988Y1017170D01*
X967094Y1019074D01*
X973466Y1022752D01*
X978668Y1027954D01*
X982346Y1034326D01*
X984250Y1041432D01*
X984250Y1043586D01*
X957834Y1043586D01*
X957834Y1017170D01*
G37*
G36*
X952632Y1017170D02*
X954786Y1017170D01*
X954786Y1043586D01*
X928370Y1043586D01*
X928370Y1041432D01*
X930274Y1034326D01*
X933952Y1027954D01*
X939154Y1022752D01*
X945526Y1019074D01*
X952632Y1017170D01*
G37*
G36*
X1275160Y1000624D02*
X1281176Y1000624D01*
X1281176Y1007140D01*
X1276648Y1007140D01*
X1275160Y1005652D01*
X1275160Y1000624D01*
G37*
G36*
X1300560Y1000624D02*
X1306576Y1000624D01*
X1306576Y1007140D01*
X1302048Y1007140D01*
X1300560Y1005652D01*
X1300560Y1000624D01*
G37*
G36*
X1284224Y1000624D02*
X1290240Y1000624D01*
X1290240Y1005652D01*
X1288752Y1007140D01*
X1284224Y1007140D01*
X1284224Y1000624D01*
G37*
G36*
X1309624Y1000624D02*
X1315640Y1000624D01*
X1315640Y1005652D01*
X1314152Y1007140D01*
X1309624Y1007140D01*
X1309624Y1000624D01*
G37*
G36*
X1150099Y884555D02*
X1161301Y884555D01*
X1172122Y887454D01*
X1181823Y893056D01*
X1189744Y900977D01*
X1195346Y910678D01*
X1198245Y921499D01*
X1198245Y932701D01*
X1195346Y943522D01*
X1190848Y951311D01*
X1190644Y952049D01*
X1190756Y952645D01*
X1191091Y953151D01*
X1212989Y975050D01*
X1213472Y975375D01*
X1214067Y975496D01*
X1272425Y975496D01*
X1272997Y975385D01*
X1273503Y975050D01*
X1276017Y972536D01*
X1289383Y972536D01*
X1291897Y975050D01*
X1292380Y975375D01*
X1292975Y975496D01*
X1297825Y975496D01*
X1298397Y975385D01*
X1298903Y975050D01*
X1301417Y972536D01*
X1314783Y972536D01*
X1317164Y974917D01*
X1317164Y989283D01*
X1315847Y990600D01*
X1315531Y991061D01*
X1315401Y991653D01*
X1315512Y992250D01*
X1315640Y992442D01*
X1315640Y997576D01*
X1300560Y997576D01*
X1300560Y992453D01*
X1300669Y992294D01*
X1300799Y991702D01*
X1300688Y991106D01*
X1300353Y990600D01*
X1298903Y989150D01*
X1298420Y988825D01*
X1297825Y988704D01*
X1292975Y988704D01*
X1292403Y988815D01*
X1291897Y989150D01*
X1290447Y990600D01*
X1290131Y991061D01*
X1290001Y991653D01*
X1290112Y992250D01*
X1290240Y992442D01*
X1290240Y997576D01*
X1275160Y997576D01*
X1275160Y992453D01*
X1275269Y992294D01*
X1275399Y991702D01*
X1275288Y991106D01*
X1274953Y990600D01*
X1273503Y989150D01*
X1273020Y988825D01*
X1272425Y988704D01*
X1209386Y988704D01*
X1206959Y987699D01*
X1181751Y962491D01*
X1181091Y962103D01*
X1180487Y962056D01*
X1179911Y962248D01*
X1172122Y966746D01*
X1161301Y969645D01*
X1150099Y969645D01*
X1139278Y966746D01*
X1129577Y961144D01*
X1121656Y953223D01*
X1116054Y943522D01*
X1113155Y932701D01*
X1113155Y921499D01*
X1116054Y910678D01*
X1121656Y900977D01*
X1129577Y893056D01*
X1139278Y887454D01*
X1150099Y884555D01*
G37*
G36*
X90424Y928624D02*
X119634Y928624D01*
X119634Y956346D01*
X118146Y957834D01*
X90424Y957834D01*
X90424Y928624D01*
G37*
G36*
X58166Y928624D02*
X87376Y928624D01*
X87376Y957834D01*
X59654Y957834D01*
X58166Y956346D01*
X58166Y928624D01*
G37*
G36*
X59654Y896366D02*
X87376Y896366D01*
X87376Y925576D01*
X58166Y925576D01*
X58166Y897854D01*
X59654Y896366D01*
G37*
G36*
X90424Y896366D02*
X118146Y896366D01*
X119634Y897854D01*
X119634Y925576D01*
X90424Y925576D01*
X90424Y896366D01*
G37*
G36*
X1151453Y793242D02*
X1159947Y793242D01*
X1168151Y795440D01*
X1175507Y799687D01*
X1181513Y805693D01*
X1185760Y813049D01*
X1187958Y821253D01*
X1187958Y829747D01*
X1185760Y837951D01*
X1181513Y845307D01*
X1175507Y851313D01*
X1168151Y855560D01*
X1159947Y857758D01*
X1151453Y857758D01*
X1143249Y855560D01*
X1135893Y851313D01*
X1129887Y845307D01*
X1125640Y837951D01*
X1123442Y829747D01*
X1123442Y821253D01*
X1125640Y813049D01*
X1129887Y805693D01*
X1135893Y799687D01*
X1143249Y795440D01*
X1151453Y793242D01*
G37*
G36*
X84653Y275178D02*
X93147Y275178D01*
X101351Y277376D01*
X108707Y281623D01*
X114713Y287629D01*
X118960Y294985D01*
X120224Y299702D01*
X120601Y300368D01*
X121101Y300711D01*
X121696Y300832D01*
X143650Y300832D01*
X146077Y301837D01*
X200299Y356059D01*
X201304Y358486D01*
X201304Y586625D01*
X201415Y587197D01*
X201750Y587703D01*
X202122Y588075D01*
X202583Y588391D01*
X203176Y588521D01*
X203772Y588410D01*
X204278Y588075D01*
X204517Y587836D01*
X218883Y587836D01*
X221264Y590217D01*
X221264Y603583D01*
X218750Y606097D01*
X218425Y606580D01*
X218304Y607175D01*
X218304Y624725D01*
X218415Y625297D01*
X218750Y625803D01*
X221264Y628317D01*
X221264Y641683D01*
X218883Y644064D01*
X204517Y644064D01*
X204278Y643825D01*
X203817Y643509D01*
X203224Y643379D01*
X202628Y643490D01*
X202122Y643825D01*
X201750Y644197D01*
X201425Y644680D01*
X201304Y645275D01*
X201304Y777125D01*
X201415Y777697D01*
X201750Y778203D01*
X202122Y778575D01*
X202583Y778891D01*
X203176Y779021D01*
X203772Y778910D01*
X204278Y778575D01*
X204517Y778336D01*
X218883Y778336D01*
X221264Y780717D01*
X221264Y794083D01*
X218750Y796597D01*
X218425Y797080D01*
X218304Y797675D01*
X218304Y815225D01*
X218415Y815797D01*
X218750Y816303D01*
X221264Y818817D01*
X221264Y832183D01*
X218883Y834564D01*
X204517Y834564D01*
X204278Y834325D01*
X203817Y834009D01*
X203224Y833879D01*
X202628Y833990D01*
X202122Y834325D01*
X201883Y834564D01*
X187517Y834564D01*
X185503Y832550D01*
X185020Y832225D01*
X184425Y832104D01*
X121696Y832104D01*
X120955Y832296D01*
X120494Y832691D01*
X120224Y833234D01*
X118960Y837951D01*
X114713Y845307D01*
X108707Y851313D01*
X101351Y855560D01*
X93147Y857758D01*
X84653Y857758D01*
X76449Y855560D01*
X69093Y851313D01*
X63087Y845307D01*
X58840Y837951D01*
X56642Y829747D01*
X56642Y821253D01*
X58840Y813049D01*
X63087Y805693D01*
X69093Y799687D01*
X76449Y795440D01*
X84653Y793242D01*
X93147Y793242D01*
X101351Y795440D01*
X108707Y799687D01*
X114713Y805693D01*
X118960Y813049D01*
X120224Y817766D01*
X120601Y818432D01*
X121101Y818775D01*
X121696Y818896D01*
X184425Y818896D01*
X184997Y818785D01*
X185503Y818450D01*
X187517Y816436D01*
X201883Y816436D01*
X202122Y816675D01*
X202583Y816991D01*
X203176Y817121D01*
X203772Y817010D01*
X204278Y816675D01*
X204650Y816303D01*
X204975Y815820D01*
X205096Y815225D01*
X205096Y797675D01*
X204985Y797103D01*
X204650Y796597D01*
X204278Y796225D01*
X203817Y795909D01*
X203224Y795779D01*
X202628Y795890D01*
X202122Y796225D01*
X201883Y796464D01*
X187517Y796464D01*
X185136Y794083D01*
X185136Y780717D01*
X187650Y778203D01*
X187975Y777720D01*
X188096Y777125D01*
X188096Y645275D01*
X187985Y644703D01*
X187650Y644197D01*
X185136Y641683D01*
X185136Y628317D01*
X187517Y625936D01*
X201883Y625936D01*
X202122Y626175D01*
X202583Y626491D01*
X203176Y626621D01*
X203772Y626510D01*
X204278Y626175D01*
X204650Y625803D01*
X204975Y625320D01*
X205096Y624725D01*
X205096Y607175D01*
X204985Y606603D01*
X204650Y606097D01*
X204278Y605725D01*
X203817Y605409D01*
X203224Y605279D01*
X202628Y605390D01*
X202122Y605725D01*
X201883Y605964D01*
X187517Y605964D01*
X185136Y603583D01*
X185136Y590217D01*
X187650Y587703D01*
X187975Y587220D01*
X188096Y586625D01*
X188096Y363167D01*
X187985Y362595D01*
X187650Y362089D01*
X140047Y314486D01*
X139564Y314161D01*
X138969Y314040D01*
X121696Y314040D01*
X120955Y314232D01*
X120494Y314627D01*
X120224Y315170D01*
X118960Y319887D01*
X114713Y327243D01*
X108707Y333249D01*
X101351Y337496D01*
X93147Y339694D01*
X84653Y339694D01*
X76449Y337496D01*
X69093Y333249D01*
X63087Y327243D01*
X58840Y319887D01*
X56642Y311683D01*
X56642Y303189D01*
X58840Y294985D01*
X63087Y287629D01*
X69093Y281623D01*
X76449Y277376D01*
X84653Y275178D01*
G37*
G36*
X35424Y763524D02*
X41940Y763524D01*
X41940Y768052D01*
X40452Y769540D01*
X35424Y769540D01*
X35424Y763524D01*
G37*
G36*
X35424Y754460D02*
X40452Y754460D01*
X41940Y755948D01*
X41940Y760476D01*
X35424Y760476D01*
X35424Y754460D01*
G37*
G36*
X1071960Y683124D02*
X1077976Y683124D01*
X1077976Y689640D01*
X1073448Y689640D01*
X1071960Y688152D01*
X1071960Y683124D01*
G37*
G36*
X-105345Y623724D02*
X-90424Y623724D01*
X-90424Y638645D01*
X-92171Y638645D01*
X-98215Y636141D01*
X-102841Y631515D01*
X-105345Y625471D01*
X-105345Y623724D01*
G37*
G36*
X-87376Y623724D02*
X-72455Y623724D01*
X-72455Y625471D01*
X-74959Y631515D01*
X-79585Y636141D01*
X-85629Y638645D01*
X-87376Y638645D01*
X-87376Y623724D01*
G37*
G36*
X-87376Y605755D02*
X-85629Y605755D01*
X-79585Y608259D01*
X-74959Y612885D01*
X-72455Y618929D01*
X-72455Y620676D01*
X-87376Y620676D01*
X-87376Y605755D01*
G37*
G36*
X-92171Y605755D02*
X-90424Y605755D01*
X-90424Y620676D01*
X-105345Y620676D01*
X-105345Y618929D01*
X-102841Y612885D01*
X-98215Y608259D01*
X-92171Y605755D01*
G37*
G36*
X84653Y539242D02*
X93147Y539242D01*
X101351Y541440D01*
X108707Y545687D01*
X114713Y551693D01*
X118960Y559049D01*
X121158Y567253D01*
X121158Y575747D01*
X118960Y583951D01*
X114713Y591307D01*
X108707Y597313D01*
X101351Y601560D01*
X93147Y603758D01*
X84653Y603758D01*
X76449Y601560D01*
X69093Y597313D01*
X63087Y591307D01*
X58840Y583951D01*
X56642Y575747D01*
X56642Y567253D01*
X58840Y559049D01*
X63087Y551693D01*
X69093Y545687D01*
X76449Y541440D01*
X84653Y539242D01*
G37*
G36*
X-105345Y528424D02*
X-90424Y528424D01*
X-90424Y543345D01*
X-92171Y543345D01*
X-98215Y540841D01*
X-102841Y536215D01*
X-105345Y530171D01*
X-105345Y528424D01*
G37*
G36*
X-87376Y528424D02*
X-72455Y528424D01*
X-72455Y530171D01*
X-74959Y536215D01*
X-79585Y540841D01*
X-85629Y543345D01*
X-87376Y543345D01*
X-87376Y528424D01*
G37*
G36*
X-92171Y510455D02*
X-90424Y510455D01*
X-90424Y525376D01*
X-105345Y525376D01*
X-105345Y523629D01*
X-102841Y517585D01*
X-98215Y512959D01*
X-92171Y510455D01*
G37*
G36*
X-87376Y510455D02*
X-85629Y510455D01*
X-79585Y512959D01*
X-74959Y517585D01*
X-72455Y523629D01*
X-72455Y525376D01*
X-87376Y525376D01*
X-87376Y510455D01*
G37*
G36*
X-92474Y413631D02*
X-85326Y413631D01*
X-78721Y416367D01*
X-73667Y421421D01*
X-70931Y428026D01*
X-70931Y435174D01*
X-73667Y441779D01*
X-78721Y446833D01*
X-85326Y449569D01*
X-92474Y449569D01*
X-99079Y446833D01*
X-104133Y441779D01*
X-106869Y435174D01*
X-106869Y428026D01*
X-104133Y421421D01*
X-99079Y416367D01*
X-92474Y413631D01*
G37*
G36*
X58166Y410560D02*
X87376Y410560D01*
X87376Y439770D01*
X59654Y439770D01*
X58166Y438282D01*
X58166Y410560D01*
G37*
G36*
X90424Y410560D02*
X119634Y410560D01*
X119634Y438282D01*
X118146Y439770D01*
X90424Y439770D01*
X90424Y410560D01*
G37*
G36*
X59654Y378302D02*
X87376Y378302D01*
X87376Y407512D01*
X58166Y407512D01*
X58166Y379790D01*
X59654Y378302D01*
G37*
G36*
X90424Y378302D02*
X118146Y378302D01*
X119634Y379790D01*
X119634Y407512D01*
X90424Y407512D01*
X90424Y378302D01*
G37*
G36*
X-92474Y318331D02*
X-85326Y318331D01*
X-78721Y321067D01*
X-73667Y326121D01*
X-70931Y332726D01*
X-70931Y339874D01*
X-73667Y346479D01*
X-78721Y351533D01*
X-85326Y354269D01*
X-92474Y354269D01*
X-99079Y351533D01*
X-104133Y346479D01*
X-106869Y339874D01*
X-106869Y332726D01*
X-104133Y326121D01*
X-99079Y321067D01*
X-92474Y318331D01*
G37*
G36*
X426948Y294990D02*
X432476Y294990D01*
X432476Y302006D01*
X425460Y302006D01*
X425460Y296478D01*
X426948Y294990D01*
G37*
G36*
X84653Y21178D02*
X93147Y21178D01*
X101351Y23376D01*
X108707Y27623D01*
X114713Y33629D01*
X118960Y40985D01*
X121158Y49189D01*
X121158Y57683D01*
X118960Y65887D01*
X114713Y73243D01*
X108707Y79249D01*
X101351Y83496D01*
X93147Y85694D01*
X84653Y85694D01*
X76449Y83496D01*
X69093Y79249D01*
X63087Y73243D01*
X58840Y65887D01*
X56642Y57683D01*
X56642Y49189D01*
X58840Y40985D01*
X63087Y33629D01*
X69093Y27623D01*
X76449Y23376D01*
X84653Y21178D01*
G37*
G36*
X-118480Y-6350D02*
X-110120Y-6350D01*
X-102045Y-4186D01*
X-94805Y-6D01*
X-88894Y5905D01*
X-84714Y13145D01*
X-82550Y21220D01*
X-82550Y29580D01*
X-84714Y37655D01*
X-88894Y44895D01*
X-94805Y50806D01*
X-102045Y54986D01*
X-110120Y57150D01*
X-118480Y57150D01*
X-126555Y54986D01*
X-133795Y50806D01*
X-139706Y44895D01*
X-143886Y37655D01*
X-146050Y29580D01*
X-146050Y21220D01*
X-143886Y13145D01*
X-139706Y5905D01*
X-133795Y-6D01*
X-126555Y-4186D01*
X-118480Y-6350D01*
G37*
%LPD*%
G36*
X752006Y272409D02*
X751412Y272288D01*
X475807Y272288D01*
X475280Y272382D01*
X474764Y272701D01*
X474413Y273195D01*
X474283Y273788D01*
X474394Y274384D01*
X474729Y274890D01*
X726189Y526350D01*
X726672Y526675D01*
X727267Y526796D01*
X1061212Y526796D01*
X1061761Y526694D01*
X1062272Y526367D01*
X1062615Y525866D01*
X1062736Y525272D01*
X1062736Y442388D01*
X1062634Y441839D01*
X1062307Y441328D01*
X1061806Y440985D01*
X1061212Y440864D01*
X1055417Y440864D01*
X1054100Y439547D01*
X1053639Y439231D01*
X1053047Y439101D01*
X1052450Y439212D01*
X1052258Y439340D01*
X1047124Y439340D01*
X1047124Y424260D01*
X1052247Y424260D01*
X1052406Y424369D01*
X1052998Y424499D01*
X1053594Y424388D01*
X1054100Y424053D01*
X1055550Y422603D01*
X1055875Y422120D01*
X1055996Y421525D01*
X1055996Y416675D01*
X1055885Y416103D01*
X1055550Y415597D01*
X1054100Y414147D01*
X1053639Y413831D01*
X1053047Y413701D01*
X1052450Y413812D01*
X1052258Y413940D01*
X1047124Y413940D01*
X1047124Y398860D01*
X1052247Y398860D01*
X1052406Y398969D01*
X1052998Y399099D01*
X1053594Y398988D01*
X1054100Y398653D01*
X1055550Y397203D01*
X1055875Y396720D01*
X1055996Y396125D01*
X1055996Y392867D01*
X1055885Y392295D01*
X1055550Y391789D01*
X1039111Y375350D01*
X1038628Y375025D01*
X1038033Y374904D01*
X841086Y374904D01*
X838659Y373899D01*
X762671Y297910D01*
X762188Y297585D01*
X761593Y297464D01*
X755317Y297464D01*
X752936Y295083D01*
X752936Y280717D01*
X753175Y280478D01*
X753491Y280017D01*
X753621Y279424D01*
X753510Y278828D01*
X753175Y278322D01*
X752936Y278083D01*
X752936Y273812D01*
X752834Y273263D01*
X752507Y272752D01*
X752006Y272409D01*
G37*
%LPC*%
G36*
X1037560Y433324D02*
X1044076Y433324D01*
X1044076Y439340D01*
X1039048Y439340D01*
X1037560Y437852D01*
X1037560Y433324D01*
G37*
G36*
X1039048Y424260D02*
X1044076Y424260D01*
X1044076Y430276D01*
X1037560Y430276D01*
X1037560Y425748D01*
X1039048Y424260D01*
G37*
G36*
X1037560Y407924D02*
X1044076Y407924D01*
X1044076Y413940D01*
X1039048Y413940D01*
X1037560Y412452D01*
X1037560Y407924D01*
G37*
G36*
X1039048Y398860D02*
X1044076Y398860D01*
X1044076Y404876D01*
X1037560Y404876D01*
X1037560Y400348D01*
X1039048Y398860D01*
G37*
%LPD*%
G36*
X1368828Y-44075D02*
X1368233Y-44196D01*
X841567Y-44196D01*
X840995Y-44085D01*
X840489Y-43750D01*
X743650Y53089D01*
X743325Y53572D01*
X743204Y54167D01*
X743204Y61159D01*
X743315Y61731D01*
X743650Y62237D01*
X751459Y70045D01*
X751459Y82355D01*
X742755Y91059D01*
X732028Y91059D01*
X731479Y91161D01*
X730968Y91488D01*
X730625Y91989D01*
X730504Y92583D01*
X730504Y119888D01*
X730606Y120437D01*
X730933Y120948D01*
X731434Y121291D01*
X732028Y121412D01*
X833615Y121412D01*
X834142Y121318D01*
X834658Y120999D01*
X835009Y120505D01*
X835139Y119912D01*
X835028Y119316D01*
X834693Y118810D01*
X833216Y117333D01*
X833216Y105967D01*
X835597Y103586D01*
X841373Y103586D01*
X841945Y103475D01*
X842451Y103140D01*
X925789Y19801D01*
X928216Y18796D01*
X1061212Y18796D01*
X1061761Y18694D01*
X1062272Y18367D01*
X1062615Y17866D01*
X1062736Y17272D01*
X1062736Y46D01*
X1062768Y-485D01*
X1062855Y-963D01*
X1062998Y-1427D01*
X1063195Y-1871D01*
X1063444Y-2288D01*
X1063754Y-2688D01*
X1063945Y-2892D01*
X1089294Y-28241D01*
X1089692Y-28594D01*
X1090091Y-28871D01*
X1090520Y-29098D01*
X1090974Y-29272D01*
X1091445Y-29390D01*
X1091946Y-29455D01*
X1092225Y-29464D01*
X1174212Y-29464D01*
X1174761Y-29566D01*
X1175272Y-29893D01*
X1175615Y-30394D01*
X1175736Y-30988D01*
X1175736Y-32083D01*
X1178117Y-34464D01*
X1192483Y-34464D01*
X1193800Y-33147D01*
X1194261Y-32831D01*
X1194853Y-32701D01*
X1195450Y-32812D01*
X1195642Y-32940D01*
X1200776Y-32940D01*
X1200776Y-23876D01*
X1210340Y-23876D01*
X1210340Y-19348D01*
X1209047Y-18055D01*
X1208731Y-17594D01*
X1208601Y-17002D01*
X1208712Y-16406D01*
X1209047Y-15900D01*
X1323641Y98694D01*
X1323994Y99092D01*
X1324271Y99491D01*
X1324498Y99920D01*
X1324672Y100374D01*
X1324790Y100845D01*
X1324855Y101346D01*
X1324864Y101625D01*
X1324864Y365330D01*
X1324966Y365879D01*
X1325293Y366390D01*
X1325794Y366733D01*
X1326388Y366854D01*
X1328761Y366854D01*
X1331479Y367980D01*
X1332062Y368096D01*
X1366568Y368096D01*
X1367128Y367989D01*
X1367637Y367658D01*
X1367976Y367155D01*
X1369067Y364521D01*
X1374121Y359467D01*
X1380726Y356731D01*
X1387874Y356731D01*
X1394479Y359467D01*
X1399533Y364521D01*
X1402269Y371126D01*
X1402269Y378274D01*
X1399533Y384879D01*
X1394479Y389933D01*
X1387874Y392669D01*
X1380726Y392669D01*
X1374121Y389933D01*
X1369067Y384879D01*
X1367976Y382245D01*
X1367662Y381768D01*
X1367162Y381425D01*
X1366568Y381304D01*
X1332062Y381304D01*
X1331479Y381420D01*
X1328761Y382546D01*
X1326388Y382546D01*
X1325839Y382648D01*
X1325328Y382975D01*
X1324985Y383476D01*
X1324864Y384070D01*
X1324864Y452817D01*
X1324958Y453344D01*
X1325277Y453860D01*
X1325771Y454211D01*
X1326364Y454341D01*
X1326960Y454230D01*
X1327466Y453895D01*
X1336109Y445251D01*
X1338536Y444246D01*
X1352775Y444246D01*
X1353347Y444135D01*
X1353853Y443800D01*
X1368694Y428959D01*
X1369092Y428606D01*
X1369491Y428329D01*
X1369920Y428102D01*
X1370374Y427928D01*
X1370845Y427810D01*
X1371346Y427745D01*
X1371625Y427736D01*
X1416493Y427736D01*
X1417065Y427625D01*
X1417571Y427290D01*
X1516950Y327911D01*
X1517275Y327428D01*
X1517396Y326833D01*
X1517396Y104967D01*
X1517285Y104395D01*
X1516950Y103889D01*
X1369311Y-43750D01*
X1368828Y-44075D01*
G37*
%LPC*%
G36*
X1367855Y280924D02*
X1382776Y280924D01*
X1382776Y295845D01*
X1369343Y295845D01*
X1367855Y294357D01*
X1367855Y280924D01*
G37*
G36*
X1385824Y280924D02*
X1400745Y280924D01*
X1400745Y294357D01*
X1399257Y295845D01*
X1385824Y295845D01*
X1385824Y280924D01*
G37*
G36*
X1385824Y262955D02*
X1399257Y262955D01*
X1400745Y264443D01*
X1400745Y277876D01*
X1385824Y277876D01*
X1385824Y262955D01*
G37*
G36*
X1369343Y262955D02*
X1382776Y262955D01*
X1382776Y277876D01*
X1367855Y277876D01*
X1367855Y264443D01*
X1369343Y262955D01*
G37*
G36*
X806645Y61341D02*
X818955Y61341D01*
X827659Y70045D01*
X827659Y82355D01*
X818955Y91059D01*
X806645Y91059D01*
X797941Y82355D01*
X797941Y70045D01*
X806645Y61341D01*
G37*
G36*
X1329320Y-6350D02*
X1337680Y-6350D01*
X1345755Y-4186D01*
X1352995Y-6D01*
X1358906Y5905D01*
X1363086Y13145D01*
X1365250Y21220D01*
X1365250Y29580D01*
X1363086Y37655D01*
X1358906Y44895D01*
X1352995Y50806D01*
X1345755Y54986D01*
X1337680Y57150D01*
X1329320Y57150D01*
X1321245Y54986D01*
X1314005Y50806D01*
X1308094Y44895D01*
X1303914Y37655D01*
X1301750Y29580D01*
X1301750Y21220D01*
X1303914Y13145D01*
X1308094Y5905D01*
X1314005Y-6D01*
X1321245Y-4186D01*
X1329320Y-6350D01*
G37*
G36*
X1203824Y-32940D02*
X1208852Y-32940D01*
X1210340Y-31452D01*
X1210340Y-26924D01*
X1203824Y-26924D01*
X1203824Y-32940D01*
G37*
%LPD*%
G36*
X1186062Y-17860D02*
X1186062Y-26162D01*
X1184538Y-26162D01*
X1184538Y-17860D01*
X1178748Y-17860D01*
X1177260Y-19348D01*
X1177260Y-22860D01*
X1177089Y-23776D01*
X1176544Y-24627D01*
X1175711Y-25199D01*
X1174720Y-25400D01*
X1093252Y-25400D01*
X1092299Y-25214D01*
X1091456Y-24656D01*
X1067544Y-744D01*
X1067001Y61D01*
X1066800Y1052D01*
X1066800Y384745D01*
X1066986Y385699D01*
X1067221Y386054D01*
X1068188Y388388D01*
X1068188Y396125D01*
X1068374Y397079D01*
X1068932Y397921D01*
X1071148Y400138D01*
X1071148Y412663D01*
X1068932Y414879D01*
X1068389Y415684D01*
X1068188Y416675D01*
X1068188Y421525D01*
X1068374Y422479D01*
X1068932Y423321D01*
X1071079Y425468D01*
X1071884Y426011D01*
X1072875Y426212D01*
X1113998Y426212D01*
X1114577Y426145D01*
X1115496Y425724D01*
X1116177Y424977D01*
X1116514Y424024D01*
X1116452Y423015D01*
X1114171Y414503D01*
X1114171Y403569D01*
X1117001Y393006D01*
X1122468Y383537D01*
X1130201Y375804D01*
X1139670Y370337D01*
X1150233Y367507D01*
X1161167Y367507D01*
X1171730Y370337D01*
X1181199Y375804D01*
X1188932Y383537D01*
X1194399Y393006D01*
X1197229Y403569D01*
X1197229Y414503D01*
X1194399Y425066D01*
X1188932Y434535D01*
X1181199Y442268D01*
X1171730Y447735D01*
X1161167Y450565D01*
X1150233Y450565D01*
X1139670Y447735D01*
X1130201Y442268D01*
X1126065Y438132D01*
X1125260Y437589D01*
X1124269Y437388D01*
X1072875Y437388D01*
X1071921Y437574D01*
X1071079Y438132D01*
X1069363Y439848D01*
X1069340Y439848D01*
X1068424Y440019D01*
X1067573Y440564D01*
X1067001Y441397D01*
X1066800Y442388D01*
X1066800Y659348D01*
X1066986Y660301D01*
X1067544Y661144D01*
X1067624Y661224D01*
X1068355Y661734D01*
X1069339Y661967D01*
X1070336Y661797D01*
X1071187Y661252D01*
X1071759Y660419D01*
X1071960Y659428D01*
X1071960Y658048D01*
X1073448Y656560D01*
X1078738Y656560D01*
X1078738Y665362D01*
X1087040Y665362D01*
X1087040Y671247D01*
X1086721Y671713D01*
X1086504Y672700D01*
X1086689Y673694D01*
X1087247Y674537D01*
X1087548Y674838D01*
X1087548Y680096D01*
X1087734Y681049D01*
X1088292Y681892D01*
X1092086Y685686D01*
X1092192Y685823D01*
X1092200Y685913D01*
X1092200Y698339D01*
X1092178Y698510D01*
X1092120Y698580D01*
X723881Y1066819D01*
X723354Y1067588D01*
X723137Y1068575D01*
X723322Y1069569D01*
X723881Y1070411D01*
X729494Y1076025D01*
X733758Y1083410D01*
X735965Y1091646D01*
X735965Y1095148D01*
X702818Y1095148D01*
X702818Y1096672D01*
X735965Y1096672D01*
X735965Y1100174D01*
X733758Y1108410D01*
X729494Y1115795D01*
X723465Y1121824D01*
X716994Y1125560D01*
X716556Y1125880D01*
X715958Y1126695D01*
X715725Y1127679D01*
X715895Y1128676D01*
X716440Y1129527D01*
X717273Y1130099D01*
X718264Y1130300D01*
X773648Y1130300D01*
X774601Y1130114D01*
X775444Y1129556D01*
X1131813Y773187D01*
X1132339Y772419D01*
X1132556Y771432D01*
X1132371Y770438D01*
X1131813Y769595D01*
X1130700Y768483D01*
X1126587Y761359D01*
X1124458Y753413D01*
X1124458Y745187D01*
X1126587Y737241D01*
X1130700Y730117D01*
X1136517Y724300D01*
X1143641Y720187D01*
X1151587Y718058D01*
X1159813Y718058D01*
X1167759Y720187D01*
X1174883Y724300D01*
X1175995Y725413D01*
X1176764Y725939D01*
X1177751Y726156D01*
X1178745Y725971D01*
X1179587Y725413D01*
X1314468Y590532D01*
X1315011Y589727D01*
X1315212Y588736D01*
X1315212Y468788D01*
X1316063Y466735D01*
X1320056Y462741D01*
X1320599Y461936D01*
X1320800Y460945D01*
X1320800Y377602D01*
X1320607Y376630D01*
X1320370Y376059D01*
X1320370Y373341D01*
X1320607Y372770D01*
X1320800Y371798D01*
X1320800Y102652D01*
X1320614Y101699D01*
X1320056Y100856D01*
X1202592Y-16608D01*
X1201787Y-17151D01*
X1200796Y-17352D01*
X1195538Y-17352D01*
X1195237Y-17653D01*
X1194469Y-18179D01*
X1193481Y-18396D01*
X1192488Y-18211D01*
X1191958Y-17860D01*
X1186062Y-17860D01*
G37*
%LPC*%
G36*
X1124966Y673862D02*
X1154938Y673862D01*
X1154938Y703834D01*
X1151654Y703834D01*
X1143837Y701740D01*
X1136829Y697693D01*
X1131107Y691971D01*
X1127060Y684963D01*
X1124966Y677146D01*
X1124966Y673862D01*
G37*
G36*
X1156462Y673862D02*
X1186434Y673862D01*
X1186434Y677146D01*
X1184340Y684963D01*
X1180293Y691971D01*
X1174571Y697693D01*
X1167563Y701740D01*
X1159746Y703834D01*
X1156462Y703834D01*
X1156462Y673862D01*
G37*
G36*
X1156462Y642366D02*
X1159746Y642366D01*
X1167563Y644460D01*
X1174571Y648507D01*
X1180293Y654229D01*
X1184340Y661237D01*
X1186434Y669054D01*
X1186434Y672338D01*
X1156462Y672338D01*
X1156462Y642366D01*
G37*
G36*
X1151654Y642366D02*
X1154938Y642366D01*
X1154938Y672338D01*
X1124966Y672338D01*
X1124966Y669054D01*
X1127060Y661237D01*
X1131107Y654229D01*
X1136829Y648507D01*
X1143837Y644460D01*
X1151654Y642366D01*
G37*
G36*
X1080262Y656560D02*
X1085552Y656560D01*
X1087040Y658048D01*
X1087040Y663838D01*
X1080262Y663838D01*
X1080262Y656560D01*
G37*
G36*
X1114679Y572262D02*
X1154938Y572262D01*
X1154938Y612521D01*
X1150299Y612521D01*
X1139867Y609726D01*
X1130513Y604325D01*
X1122875Y596687D01*
X1117475Y587333D01*
X1114679Y576901D01*
X1114679Y572262D01*
G37*
G36*
X1156462Y572262D02*
X1196721Y572262D01*
X1196721Y576901D01*
X1193926Y587333D01*
X1188525Y596687D01*
X1180887Y604325D01*
X1171533Y609726D01*
X1161101Y612521D01*
X1156462Y612521D01*
X1156462Y572262D01*
G37*
G36*
X1156462Y530479D02*
X1161101Y530479D01*
X1171533Y533275D01*
X1180887Y538675D01*
X1188525Y546313D01*
X1193926Y555667D01*
X1196721Y566099D01*
X1196721Y570738D01*
X1156462Y570738D01*
X1156462Y530479D01*
G37*
G36*
X1150299Y530479D02*
X1154938Y530479D01*
X1154938Y570738D01*
X1114679Y570738D01*
X1114679Y566099D01*
X1117475Y555667D01*
X1122875Y546313D01*
X1130513Y538675D01*
X1139867Y533275D01*
X1150299Y530479D01*
G37*
G36*
X1151587Y276194D02*
X1159813Y276194D01*
X1167759Y278323D01*
X1174883Y282436D01*
X1180700Y288253D01*
X1184813Y295377D01*
X1186942Y303323D01*
X1186942Y311549D01*
X1184813Y319495D01*
X1180700Y326619D01*
X1174883Y332436D01*
X1167759Y336549D01*
X1159813Y338678D01*
X1151587Y338678D01*
X1143641Y336549D01*
X1136517Y332436D01*
X1130700Y326619D01*
X1126587Y319495D01*
X1124458Y311549D01*
X1124458Y303323D01*
X1126587Y295377D01*
X1130700Y288253D01*
X1136517Y282436D01*
X1143641Y278323D01*
X1151587Y276194D01*
G37*
G36*
X1151587Y199994D02*
X1159813Y199994D01*
X1167759Y202123D01*
X1174883Y206236D01*
X1180700Y212053D01*
X1184813Y219177D01*
X1186942Y227123D01*
X1186942Y235349D01*
X1184813Y243295D01*
X1180700Y250419D01*
X1174883Y256236D01*
X1167759Y260349D01*
X1159813Y262478D01*
X1151587Y262478D01*
X1143641Y260349D01*
X1136517Y256236D01*
X1130700Y250419D01*
X1126587Y243295D01*
X1124458Y235349D01*
X1124458Y227123D01*
X1126587Y219177D01*
X1130700Y212053D01*
X1136517Y206236D01*
X1143641Y202123D01*
X1151587Y199994D01*
G37*
G36*
X1124966Y155798D02*
X1154938Y155798D01*
X1154938Y185770D01*
X1151654Y185770D01*
X1143837Y183676D01*
X1136829Y179629D01*
X1131107Y173907D01*
X1127060Y166899D01*
X1124966Y159082D01*
X1124966Y155798D01*
G37*
G36*
X1156462Y155798D02*
X1186434Y155798D01*
X1186434Y159082D01*
X1184340Y166899D01*
X1180293Y173907D01*
X1174571Y179629D01*
X1167563Y183676D01*
X1159746Y185770D01*
X1156462Y185770D01*
X1156462Y155798D01*
G37*
G36*
X1156462Y124302D02*
X1159746Y124302D01*
X1167563Y126396D01*
X1174571Y130443D01*
X1180293Y136165D01*
X1184340Y143173D01*
X1186434Y150990D01*
X1186434Y154274D01*
X1156462Y154274D01*
X1156462Y124302D01*
G37*
G36*
X1151654Y124302D02*
X1154938Y124302D01*
X1154938Y154274D01*
X1124966Y154274D01*
X1124966Y150990D01*
X1127060Y143173D01*
X1131107Y136165D01*
X1136829Y130443D01*
X1143837Y126396D01*
X1151654Y124302D01*
G37*
G36*
X1114679Y54198D02*
X1154938Y54198D01*
X1154938Y94457D01*
X1150299Y94457D01*
X1139867Y91662D01*
X1130513Y86261D01*
X1122875Y78623D01*
X1117475Y69269D01*
X1114679Y58837D01*
X1114679Y54198D01*
G37*
G36*
X1156462Y54198D02*
X1196721Y54198D01*
X1196721Y58837D01*
X1193926Y69269D01*
X1188525Y78623D01*
X1180887Y86261D01*
X1171533Y91662D01*
X1161101Y94457D01*
X1156462Y94457D01*
X1156462Y54198D01*
G37*
G36*
X1156462Y12415D02*
X1161101Y12415D01*
X1171533Y15211D01*
X1180887Y20611D01*
X1188525Y28249D01*
X1193926Y37603D01*
X1196721Y48035D01*
X1196721Y52674D01*
X1156462Y52674D01*
X1156462Y12415D01*
G37*
G36*
X1150299Y12415D02*
X1154938Y12415D01*
X1154938Y52674D01*
X1114679Y52674D01*
X1114679Y48035D01*
X1117475Y37603D01*
X1122875Y28249D01*
X1130513Y20611D01*
X1139867Y15211D01*
X1150299Y12415D01*
G37*
%LPD*%
G36*
X1473139Y432001D02*
X1472148Y431800D01*
X1431355Y431800D01*
X1430401Y431986D01*
X1429559Y432544D01*
X1406515Y455587D01*
X1404462Y456438D01*
X1400127Y456438D01*
X1399249Y456594D01*
X1398389Y457126D01*
X1397804Y457950D01*
X1397587Y458938D01*
X1397773Y459931D01*
X1398191Y460563D01*
X1400745Y466729D01*
X1400745Y469238D01*
X1367855Y469238D01*
X1367855Y466729D01*
X1370398Y460589D01*
X1370779Y460043D01*
X1371012Y459059D01*
X1370842Y458062D01*
X1370298Y457211D01*
X1369464Y456639D01*
X1368473Y456438D01*
X1348740Y456438D01*
X1347824Y456609D01*
X1346973Y457154D01*
X1346401Y457987D01*
X1346200Y458978D01*
X1346200Y545048D01*
X1346386Y546001D01*
X1346944Y546844D01*
X1363519Y563419D01*
X1364250Y563929D01*
X1365234Y564162D01*
X1366231Y563992D01*
X1367082Y563447D01*
X1367654Y562614D01*
X1367693Y562419D01*
X1370359Y555985D01*
X1374985Y551359D01*
X1381029Y548855D01*
X1383538Y548855D01*
X1383538Y566062D01*
X1400745Y566062D01*
X1400745Y568571D01*
X1398241Y574615D01*
X1393615Y579241D01*
X1387264Y581872D01*
X1387099Y581901D01*
X1386239Y582433D01*
X1385654Y583257D01*
X1385437Y584245D01*
X1385623Y585238D01*
X1386181Y586081D01*
X1447686Y647586D01*
X1447792Y647723D01*
X1447800Y647813D01*
X1447800Y965039D01*
X1447778Y965210D01*
X1447720Y965280D01*
X1237664Y1175336D01*
X1237017Y1176436D01*
X1236939Y1177444D01*
X1237260Y1178403D01*
X1240961Y1184814D01*
X1243203Y1193180D01*
X1243203Y1201841D01*
X1240961Y1210206D01*
X1236631Y1217707D01*
X1230507Y1223831D01*
X1223006Y1228161D01*
X1214641Y1230403D01*
X1205980Y1230403D01*
X1197614Y1228161D01*
X1191203Y1224460D01*
X1189973Y1224120D01*
X1188979Y1224305D01*
X1188136Y1224864D01*
X1169144Y1243856D01*
X1168601Y1244661D01*
X1168400Y1245652D01*
X1168400Y1319748D01*
X1168586Y1320701D01*
X1169144Y1321544D01*
X1205756Y1358156D01*
X1206561Y1358699D01*
X1207552Y1358900D01*
X1256248Y1358900D01*
X1257201Y1358714D01*
X1258044Y1358156D01*
X1547896Y1068304D01*
X1548439Y1067499D01*
X1548640Y1066508D01*
X1548640Y508292D01*
X1548454Y507339D01*
X1547896Y506496D01*
X1473944Y432544D01*
X1473139Y432001D01*
G37*
%LPC*%
G36*
X1177925Y1299872D02*
X1209548Y1299872D01*
X1209548Y1331495D01*
X1206046Y1331495D01*
X1197810Y1329288D01*
X1190425Y1325024D01*
X1184396Y1318995D01*
X1180132Y1311610D01*
X1177925Y1303374D01*
X1177925Y1299872D01*
G37*
G36*
X1211072Y1299872D02*
X1242695Y1299872D01*
X1242695Y1303374D01*
X1240488Y1311610D01*
X1236224Y1318995D01*
X1230195Y1325024D01*
X1222810Y1329288D01*
X1214574Y1331495D01*
X1211072Y1331495D01*
X1211072Y1299872D01*
G37*
G36*
X1211072Y1266725D02*
X1214574Y1266725D01*
X1222810Y1268932D01*
X1230195Y1273196D01*
X1236224Y1279225D01*
X1240488Y1286610D01*
X1242695Y1294846D01*
X1242695Y1298348D01*
X1211072Y1298348D01*
X1211072Y1266725D01*
G37*
G36*
X1206046Y1266725D02*
X1209548Y1266725D01*
X1209548Y1298348D01*
X1177925Y1298348D01*
X1177925Y1294846D01*
X1180132Y1286610D01*
X1184396Y1279225D01*
X1190425Y1273196D01*
X1197810Y1268932D01*
X1206046Y1266725D01*
G37*
G36*
X1330590Y1111250D02*
X1338950Y1111250D01*
X1347025Y1113414D01*
X1354265Y1117594D01*
X1360176Y1123505D01*
X1364356Y1130745D01*
X1366520Y1138820D01*
X1366520Y1147180D01*
X1364356Y1155255D01*
X1360176Y1162495D01*
X1354265Y1168406D01*
X1347025Y1172586D01*
X1338950Y1174750D01*
X1330590Y1174750D01*
X1322515Y1172586D01*
X1315275Y1168406D01*
X1309364Y1162495D01*
X1305184Y1155255D01*
X1303020Y1147180D01*
X1303020Y1138820D01*
X1305184Y1130745D01*
X1309364Y1123505D01*
X1315275Y1117594D01*
X1322515Y1113414D01*
X1330590Y1111250D01*
G37*
G36*
X1385062Y548855D02*
X1387571Y548855D01*
X1393615Y551359D01*
X1398241Y555985D01*
X1400745Y562029D01*
X1400745Y564538D01*
X1385062Y564538D01*
X1385062Y548855D01*
G37*
G36*
X1367855Y470762D02*
X1383538Y470762D01*
X1383538Y486445D01*
X1381029Y486445D01*
X1374985Y483941D01*
X1370359Y479315D01*
X1367855Y473271D01*
X1367855Y470762D01*
G37*
G36*
X1385062Y470762D02*
X1400745Y470762D01*
X1400745Y473271D01*
X1398241Y479315D01*
X1393615Y483941D01*
X1387571Y486445D01*
X1385062Y486445D01*
X1385062Y470762D01*
G37*
%LPD*%
G36*
X716366Y125597D02*
X715772Y125476D01*
X447828Y125476D01*
X447279Y125578D01*
X446768Y125905D01*
X446425Y126406D01*
X446304Y127000D01*
X446304Y128615D01*
X445198Y131285D01*
X443155Y133328D01*
X440485Y134434D01*
X427228Y134434D01*
X426679Y134536D01*
X426168Y134863D01*
X425825Y135364D01*
X425704Y135958D01*
X425704Y141014D01*
X424699Y143441D01*
X401050Y167089D01*
X400725Y167572D01*
X400604Y168167D01*
X400604Y172783D01*
X399590Y173797D01*
X399265Y174280D01*
X399144Y174875D01*
X399144Y178054D01*
X399246Y178603D01*
X399573Y179114D01*
X400074Y179457D01*
X400668Y179578D01*
X401538Y179578D01*
X402121Y179462D01*
X404839Y178336D01*
X407961Y178336D01*
X410679Y179462D01*
X411262Y179578D01*
X419819Y179578D01*
X420391Y179467D01*
X420897Y179132D01*
X422356Y177673D01*
X422672Y177212D01*
X422802Y176620D01*
X422691Y176023D01*
X422388Y175567D01*
X422388Y170688D01*
X457468Y170688D01*
X457468Y175565D01*
X457184Y175979D01*
X457054Y176571D01*
X457165Y177167D01*
X457500Y177673D01*
X458992Y179165D01*
X458992Y193199D01*
X457500Y194691D01*
X457184Y195152D01*
X457054Y195744D01*
X457165Y196341D01*
X457468Y196797D01*
X457468Y201676D01*
X422388Y201676D01*
X422388Y196799D01*
X422672Y196385D01*
X422802Y195793D01*
X422691Y195197D01*
X422356Y194691D01*
X420897Y193232D01*
X420414Y192907D01*
X419819Y192786D01*
X411262Y192786D01*
X410679Y192902D01*
X407961Y194028D01*
X404839Y194028D01*
X402711Y193147D01*
X402177Y193031D01*
X401579Y193133D01*
X401068Y193460D01*
X400725Y193960D01*
X400604Y194555D01*
X400604Y198183D01*
X399590Y199197D01*
X399265Y199680D01*
X399144Y200275D01*
X399144Y206125D01*
X399255Y206697D01*
X399590Y207203D01*
X400604Y208217D01*
X400604Y219073D01*
X400694Y219588D01*
X401008Y220107D01*
X401500Y220461D01*
X402092Y220596D01*
X402689Y220490D01*
X403197Y220159D01*
X403536Y219656D01*
X404829Y216536D01*
X407036Y214329D01*
X409919Y213134D01*
X413041Y213134D01*
X413919Y213498D01*
X414503Y213614D01*
X419819Y213614D01*
X420391Y213503D01*
X420897Y213168D01*
X422356Y211709D01*
X422672Y211248D01*
X422802Y210656D01*
X422691Y210059D01*
X422388Y209603D01*
X422388Y204724D01*
X457468Y204724D01*
X457468Y209601D01*
X457184Y210015D01*
X457054Y210607D01*
X457165Y211203D01*
X457500Y211709D01*
X458992Y213201D01*
X458992Y227235D01*
X458578Y227649D01*
X458262Y228110D01*
X458132Y228703D01*
X458243Y229299D01*
X458578Y229805D01*
X458992Y230219D01*
X458992Y244253D01*
X456611Y246634D01*
X450153Y246634D01*
X449626Y246728D01*
X449110Y247047D01*
X448759Y247541D01*
X448629Y248134D01*
X448740Y248730D01*
X449075Y249236D01*
X467617Y267778D01*
X468100Y268103D01*
X468695Y268224D01*
X752936Y268224D01*
X753485Y268122D01*
X753996Y267795D01*
X754339Y267294D01*
X754460Y266700D01*
X754460Y264348D01*
X755948Y262860D01*
X760476Y262860D01*
X760476Y272424D01*
X763524Y272424D01*
X763524Y262860D01*
X768052Y262860D01*
X769540Y264348D01*
X769540Y266700D01*
X769642Y267249D01*
X769969Y267760D01*
X770470Y268103D01*
X771064Y268224D01*
X853440Y268224D01*
X853989Y268122D01*
X854500Y267795D01*
X854843Y267294D01*
X854964Y266700D01*
X854964Y127000D01*
X854862Y126451D01*
X854535Y125940D01*
X854034Y125597D01*
X853440Y125476D01*
X853344Y125476D01*
X852795Y125578D01*
X852284Y125905D01*
X851941Y126406D01*
X851820Y127000D01*
X851820Y128126D01*
X834740Y128126D01*
X834740Y127000D01*
X834638Y126451D01*
X834311Y125940D01*
X833810Y125597D01*
X833216Y125476D01*
X732028Y125476D01*
X731479Y125578D01*
X730968Y125905D01*
X730625Y126406D01*
X730504Y127000D01*
X730504Y198395D01*
X730615Y198967D01*
X730950Y199473D01*
X732964Y201487D01*
X732964Y215853D01*
X732725Y216092D01*
X732409Y216553D01*
X732279Y217146D01*
X732390Y217742D01*
X732725Y218248D01*
X732966Y218489D01*
X733467Y218822D01*
X734063Y218935D01*
X751606Y218709D01*
X752135Y218607D01*
X752646Y218280D01*
X752989Y217780D01*
X753110Y217185D01*
X753110Y175260D01*
X753008Y174711D01*
X752681Y174200D01*
X752180Y173857D01*
X751586Y173736D01*
X751427Y173736D01*
X749046Y171355D01*
X749046Y162401D01*
X750124Y161323D01*
X750449Y160840D01*
X750570Y160245D01*
X750570Y159004D01*
X768858Y159004D01*
X768858Y160245D01*
X768969Y160817D01*
X769304Y161323D01*
X770382Y162401D01*
X770382Y171355D01*
X768001Y173736D01*
X767842Y173736D01*
X767293Y173838D01*
X766782Y174165D01*
X766439Y174666D01*
X766318Y175260D01*
X766318Y214092D01*
X766420Y214641D01*
X766747Y215152D01*
X767248Y215495D01*
X767842Y215616D01*
X768683Y215616D01*
X771064Y217997D01*
X771064Y232363D01*
X769747Y233680D01*
X769431Y234141D01*
X769301Y234733D01*
X769412Y235330D01*
X769540Y235522D01*
X769540Y240656D01*
X754460Y240656D01*
X754460Y235533D01*
X754569Y235374D01*
X754699Y234782D01*
X754588Y234186D01*
X754253Y233680D01*
X752934Y232362D01*
X752433Y232028D01*
X751837Y231915D01*
X734288Y232141D01*
X733736Y232252D01*
X733230Y232587D01*
X730583Y235234D01*
X717217Y235234D01*
X714836Y232853D01*
X714836Y218487D01*
X715075Y218248D01*
X715391Y217787D01*
X715521Y217194D01*
X715410Y216598D01*
X715075Y216092D01*
X714836Y215853D01*
X714836Y201487D01*
X716850Y199473D01*
X717175Y198990D01*
X717296Y198395D01*
X717296Y127000D01*
X717194Y126451D01*
X716867Y125940D01*
X716366Y125597D01*
G37*
%LPC*%
G36*
X478650Y204724D02*
X531716Y204724D01*
X531716Y259740D01*
X480138Y259740D01*
X478650Y258252D01*
X478650Y204724D01*
G37*
G36*
X534764Y204724D02*
X587830Y204724D01*
X587830Y258252D01*
X586342Y259740D01*
X534764Y259740D01*
X534764Y204724D01*
G37*
G36*
X754460Y243704D02*
X760476Y243704D01*
X760476Y250220D01*
X755948Y250220D01*
X754460Y248732D01*
X754460Y243704D01*
G37*
G36*
X763524Y243704D02*
X769540Y243704D01*
X769540Y248732D01*
X768052Y250220D01*
X763524Y250220D01*
X763524Y243704D01*
G37*
G36*
X778859Y160020D02*
X795433Y160020D01*
X797814Y162401D01*
X797814Y165543D01*
X797925Y166115D01*
X798260Y166621D01*
X805809Y174170D01*
X806292Y174495D01*
X806887Y174616D01*
X812685Y174616D01*
X813257Y174505D01*
X813763Y174170D01*
X815213Y172720D01*
X815529Y172259D01*
X815659Y171667D01*
X815548Y171070D01*
X815420Y170878D01*
X815420Y165744D01*
X830500Y165744D01*
X830500Y170867D01*
X830391Y171026D01*
X830261Y171618D01*
X830372Y172214D01*
X830707Y172720D01*
X832024Y174037D01*
X832024Y181950D01*
X832104Y182352D01*
X832104Y198338D01*
X832220Y198921D01*
X833346Y201639D01*
X833346Y204761D01*
X832152Y207644D01*
X829944Y209852D01*
X827061Y211046D01*
X823939Y211046D01*
X821056Y209852D01*
X818849Y207644D01*
X817654Y204761D01*
X817654Y201639D01*
X818780Y198921D01*
X818896Y198338D01*
X818896Y192308D01*
X818794Y191759D01*
X818467Y191248D01*
X817966Y190905D01*
X817372Y190784D01*
X816277Y190784D01*
X813763Y188270D01*
X813280Y187945D01*
X812685Y187824D01*
X802206Y187824D01*
X799779Y186819D01*
X787143Y174182D01*
X786660Y173857D01*
X786065Y173736D01*
X778859Y173736D01*
X776478Y171355D01*
X776478Y162401D01*
X778859Y160020D01*
G37*
G36*
X480138Y146660D02*
X531716Y146660D01*
X531716Y201676D01*
X478650Y201676D01*
X478650Y148148D01*
X480138Y146660D01*
G37*
G36*
X534764Y146660D02*
X586342Y146660D01*
X587830Y148148D01*
X587830Y201676D01*
X534764Y201676D01*
X534764Y146660D01*
G37*
G36*
X441452Y161290D02*
X455980Y161290D01*
X457468Y162778D01*
X457468Y167640D01*
X441452Y167640D01*
X441452Y161290D01*
G37*
G36*
X423876Y161290D02*
X438404Y161290D01*
X438404Y167640D01*
X422388Y167640D01*
X422388Y162778D01*
X423876Y161290D01*
G37*
G36*
X837909Y139474D02*
X841031Y139474D01*
X843914Y140669D01*
X846122Y142876D01*
X847316Y145759D01*
X847316Y148881D01*
X846122Y151764D01*
X843914Y153972D01*
X841031Y155166D01*
X837909Y155166D01*
X834844Y153896D01*
X834687Y153791D01*
X834093Y153670D01*
X830181Y153670D01*
X829655Y153764D01*
X829139Y154083D01*
X828788Y154577D01*
X828658Y155170D01*
X828769Y155766D01*
X829104Y156272D01*
X830500Y157668D01*
X830500Y162696D01*
X815420Y162696D01*
X815420Y157668D01*
X816816Y156272D01*
X817122Y155833D01*
X817262Y155243D01*
X817160Y154645D01*
X816833Y154134D01*
X816333Y153791D01*
X815739Y153670D01*
X797335Y153670D01*
X796763Y153781D01*
X796257Y154116D01*
X795433Y154940D01*
X778766Y154940D01*
X778568Y154807D01*
X777973Y154686D01*
X770382Y154686D01*
X769833Y154788D01*
X769322Y155115D01*
X768979Y155616D01*
X768910Y155956D01*
X750570Y155956D01*
X750570Y154715D01*
X750459Y154143D01*
X750124Y153637D01*
X749046Y152559D01*
X749046Y143605D01*
X751427Y141224D01*
X768094Y141224D01*
X768292Y141357D01*
X768887Y141478D01*
X777973Y141478D01*
X778545Y141367D01*
X778761Y141224D01*
X785065Y141224D01*
X785648Y141108D01*
X786594Y140716D01*
X789222Y140716D01*
X789555Y140854D01*
X790138Y140970D01*
X834093Y140970D01*
X834665Y140859D01*
X834829Y140750D01*
X837909Y139474D01*
G37*
G36*
X834740Y131174D02*
X841756Y131174D01*
X841756Y136190D01*
X836228Y136190D01*
X834740Y134702D01*
X834740Y131174D01*
G37*
G36*
X844804Y131174D02*
X851820Y131174D01*
X851820Y134702D01*
X850332Y136190D01*
X844804Y136190D01*
X844804Y131174D01*
G37*
%LPD*%
G36*
X405246Y125597D02*
X404652Y125476D01*
X382828Y125476D01*
X382279Y125578D01*
X381768Y125905D01*
X381425Y126406D01*
X381304Y127000D01*
X381304Y128615D01*
X380198Y131285D01*
X378155Y133328D01*
X375485Y134434D01*
X346995Y134434D01*
X346023Y134031D01*
X345489Y133916D01*
X344891Y134018D01*
X344380Y134345D01*
X344037Y134845D01*
X343916Y135439D01*
X343916Y169676D01*
X344018Y170225D01*
X344345Y170736D01*
X344846Y171079D01*
X345440Y171200D01*
X350142Y171200D01*
X351630Y172688D01*
X351630Y182216D01*
X337566Y182216D01*
X337566Y185264D01*
X351630Y185264D01*
X351630Y194792D01*
X350142Y196280D01*
X345440Y196280D01*
X344891Y196382D01*
X344380Y196709D01*
X344037Y197210D01*
X343916Y197804D01*
X343916Y212152D01*
X344018Y212701D01*
X344345Y213212D01*
X344846Y213555D01*
X345440Y213676D01*
X350773Y213676D01*
X353154Y216057D01*
X353154Y239423D01*
X350715Y241862D01*
X350479Y241906D01*
X349968Y242233D01*
X349625Y242734D01*
X349504Y243328D01*
X349504Y249138D01*
X349620Y249721D01*
X350746Y252439D01*
X350746Y255561D01*
X349552Y258444D01*
X347344Y260652D01*
X344857Y261682D01*
X344380Y261995D01*
X344037Y262496D01*
X343916Y263090D01*
X343916Y266700D01*
X344018Y267249D01*
X344345Y267760D01*
X344846Y268103D01*
X345440Y268224D01*
X384412Y268224D01*
X384961Y268122D01*
X385472Y267795D01*
X385815Y267294D01*
X385936Y266700D01*
X385936Y251075D01*
X385825Y250503D01*
X385490Y249997D01*
X384476Y248983D01*
X384476Y233617D01*
X385490Y232603D01*
X385815Y232120D01*
X385936Y231525D01*
X385936Y225675D01*
X385825Y225103D01*
X385490Y224597D01*
X384476Y223583D01*
X384476Y208217D01*
X385490Y207203D01*
X385815Y206720D01*
X385936Y206125D01*
X385936Y200275D01*
X385825Y199703D01*
X385490Y199197D01*
X384476Y198183D01*
X384476Y182817D01*
X385490Y181803D01*
X385815Y181320D01*
X385936Y180725D01*
X385936Y174875D01*
X385825Y174303D01*
X385490Y173797D01*
X384476Y172783D01*
X384476Y157417D01*
X386857Y155036D01*
X393793Y155036D01*
X394365Y154925D01*
X394871Y154590D01*
X412050Y137411D01*
X412375Y136928D01*
X412496Y136333D01*
X412496Y135660D01*
X412389Y135099D01*
X412058Y134591D01*
X411555Y134252D01*
X409325Y133328D01*
X407282Y131285D01*
X406176Y128615D01*
X406176Y127000D01*
X406074Y126451D01*
X405747Y125940D01*
X405246Y125597D01*
G37*
%LPC*%
G36*
X368000Y242824D02*
X373016Y242824D01*
X373016Y249840D01*
X369488Y249840D01*
X368000Y248352D01*
X368000Y242824D01*
G37*
G36*
X376064Y242824D02*
X381080Y242824D01*
X381080Y248352D01*
X379592Y249840D01*
X376064Y249840D01*
X376064Y242824D01*
G37*
G36*
X369488Y232760D02*
X373016Y232760D01*
X373016Y239776D01*
X368000Y239776D01*
X368000Y234248D01*
X369488Y232760D01*
G37*
G36*
X376064Y232760D02*
X379592Y232760D01*
X381080Y234248D01*
X381080Y239776D01*
X376064Y239776D01*
X376064Y232760D01*
G37*
G36*
X376064Y217424D02*
X381080Y217424D01*
X381080Y222952D01*
X379592Y224440D01*
X376064Y224440D01*
X376064Y217424D01*
G37*
G36*
X368000Y217424D02*
X373016Y217424D01*
X373016Y224440D01*
X369488Y224440D01*
X368000Y222952D01*
X368000Y217424D01*
G37*
G36*
X376064Y207360D02*
X379592Y207360D01*
X381080Y208848D01*
X381080Y214376D01*
X376064Y214376D01*
X376064Y207360D01*
G37*
G36*
X369488Y207360D02*
X373016Y207360D01*
X373016Y214376D01*
X368000Y214376D01*
X368000Y208848D01*
X369488Y207360D01*
G37*
G36*
X368000Y192024D02*
X373016Y192024D01*
X373016Y199040D01*
X369488Y199040D01*
X368000Y197552D01*
X368000Y192024D01*
G37*
G36*
X376064Y192024D02*
X381080Y192024D01*
X381080Y197552D01*
X379592Y199040D01*
X376064Y199040D01*
X376064Y192024D01*
G37*
G36*
X376064Y181960D02*
X379592Y181960D01*
X381080Y183448D01*
X381080Y188976D01*
X376064Y188976D01*
X376064Y181960D01*
G37*
G36*
X369488Y181960D02*
X373016Y181960D01*
X373016Y188976D01*
X368000Y188976D01*
X368000Y183448D01*
X369488Y181960D01*
G37*
G36*
X368000Y166624D02*
X373016Y166624D01*
X373016Y173640D01*
X369488Y173640D01*
X368000Y172152D01*
X368000Y166624D01*
G37*
G36*
X376064Y166624D02*
X381080Y166624D01*
X381080Y172152D01*
X379592Y173640D01*
X376064Y173640D01*
X376064Y166624D01*
G37*
G36*
X376064Y156560D02*
X379592Y156560D01*
X381080Y158048D01*
X381080Y163576D01*
X376064Y163576D01*
X376064Y156560D01*
G37*
G36*
X369488Y156560D02*
X373016Y156560D01*
X373016Y163576D01*
X368000Y163576D01*
X368000Y158048D01*
X369488Y156560D01*
G37*
%LPD*%
G36*
X1405328Y609801D02*
X1404337Y609600D01*
X1359952Y609600D01*
X1358999Y609786D01*
X1358156Y610344D01*
X1346944Y621556D01*
X1346401Y622361D01*
X1346200Y623352D01*
X1346200Y990439D01*
X1346178Y990610D01*
X1346120Y990680D01*
X1295514Y1041286D01*
X1295377Y1041392D01*
X1295287Y1041400D01*
X1158240Y1041400D01*
X1157324Y1041571D01*
X1156473Y1042116D01*
X1155901Y1042949D01*
X1155700Y1043940D01*
X1155700Y1116548D01*
X1155886Y1117501D01*
X1156444Y1118344D01*
X1193056Y1154956D01*
X1193861Y1155499D01*
X1194852Y1155700D01*
X1251937Y1155700D01*
X1252891Y1155514D01*
X1253733Y1154956D01*
X1444008Y964681D01*
X1444551Y963876D01*
X1444752Y962885D01*
X1444752Y650015D01*
X1444566Y649061D01*
X1444008Y648219D01*
X1406133Y610344D01*
X1405328Y609801D01*
G37*
%LPC*%
G36*
X1177925Y1096672D02*
X1209548Y1096672D01*
X1209548Y1128295D01*
X1206046Y1128295D01*
X1197810Y1126088D01*
X1190425Y1121824D01*
X1184396Y1115795D01*
X1180132Y1108410D01*
X1177925Y1100174D01*
X1177925Y1096672D01*
G37*
G36*
X1211072Y1096672D02*
X1242695Y1096672D01*
X1242695Y1100174D01*
X1240488Y1108410D01*
X1236224Y1115795D01*
X1230195Y1121824D01*
X1222810Y1126088D01*
X1214574Y1128295D01*
X1211072Y1128295D01*
X1211072Y1096672D01*
G37*
G36*
X1211072Y1063525D02*
X1214574Y1063525D01*
X1222810Y1065732D01*
X1230195Y1069996D01*
X1236224Y1076025D01*
X1240488Y1083410D01*
X1242695Y1091646D01*
X1242695Y1095148D01*
X1211072Y1095148D01*
X1211072Y1063525D01*
G37*
G36*
X1206046Y1063525D02*
X1209548Y1063525D01*
X1209548Y1095148D01*
X1177925Y1095148D01*
X1177925Y1091646D01*
X1180132Y1083410D01*
X1184396Y1076025D01*
X1190425Y1069996D01*
X1197810Y1065732D01*
X1206046Y1063525D01*
G37*
G36*
X1367855Y756662D02*
X1383538Y756662D01*
X1383538Y772345D01*
X1381029Y772345D01*
X1374985Y769841D01*
X1370359Y765215D01*
X1367855Y759171D01*
X1367855Y756662D01*
G37*
G36*
X1385062Y756662D02*
X1400745Y756662D01*
X1400745Y759171D01*
X1398241Y765215D01*
X1393615Y769841D01*
X1387571Y772345D01*
X1385062Y772345D01*
X1385062Y756662D01*
G37*
G36*
X1385062Y739455D02*
X1387571Y739455D01*
X1393615Y741959D01*
X1398241Y746585D01*
X1400745Y752629D01*
X1400745Y755138D01*
X1385062Y755138D01*
X1385062Y739455D01*
G37*
G36*
X1381029Y739455D02*
X1383538Y739455D01*
X1383538Y755138D01*
X1367855Y755138D01*
X1367855Y752629D01*
X1370359Y746585D01*
X1374985Y741959D01*
X1381029Y739455D01*
G37*
G36*
X1367855Y661362D02*
X1383538Y661362D01*
X1383538Y677045D01*
X1381029Y677045D01*
X1374985Y674541D01*
X1370359Y669915D01*
X1367855Y663871D01*
X1367855Y661362D01*
G37*
G36*
X1385062Y661362D02*
X1400745Y661362D01*
X1400745Y663871D01*
X1398241Y669915D01*
X1393615Y674541D01*
X1387571Y677045D01*
X1385062Y677045D01*
X1385062Y661362D01*
G37*
G36*
X1385062Y644155D02*
X1387571Y644155D01*
X1393615Y646659D01*
X1398241Y651285D01*
X1400745Y657329D01*
X1400745Y659838D01*
X1385062Y659838D01*
X1385062Y644155D01*
G37*
G36*
X1381029Y644155D02*
X1383538Y644155D01*
X1383538Y659838D01*
X1367855Y659838D01*
X1367855Y657329D01*
X1370359Y651285D01*
X1374985Y646659D01*
X1381029Y644155D01*
G37*
%LPD*%
G36*
X421614Y1182003D02*
X421405Y1184285D01*
X421777Y1184351D01*
X422124Y1184440D01*
X422448Y1184552D01*
X422747Y1184686D01*
X423023Y1184843D01*
X423274Y1185022D01*
X423502Y1185223D01*
X423706Y1185447D01*
X423885Y1185694D01*
X424041Y1185963D01*
X424173Y1186255D01*
X424281Y1186569D01*
X424365Y1186906D01*
X424425Y1187265D01*
X424460Y1187647D01*
X424472Y1188051D01*
X424460Y1188457D01*
X424421Y1188841D01*
X424357Y1189202D01*
X424267Y1189540D01*
X424151Y1189857D01*
X424010Y1190150D01*
X423843Y1190422D01*
X423650Y1190671D01*
X423433Y1190893D01*
X423190Y1191087D01*
X422922Y1191250D01*
X422629Y1191384D01*
X422312Y1191488D01*
X421969Y1191562D01*
X421602Y1191606D01*
X421209Y1191621D01*
X420866Y1191604D01*
X420542Y1191553D01*
X420238Y1191469D01*
X419953Y1191350D01*
X419688Y1191197D01*
X419441Y1191011D01*
X419215Y1190790D01*
X419007Y1190536D01*
X418822Y1190249D01*
X418661Y1189933D01*
X418525Y1189586D01*
X418414Y1189209D01*
X418327Y1188802D01*
X418265Y1188365D01*
X418228Y1187898D01*
X418216Y1187401D01*
X418216Y1186150D01*
X416302Y1186150D01*
X416302Y1187352D01*
X416290Y1187793D01*
X416252Y1188209D01*
X416191Y1188599D01*
X416104Y1188964D01*
X415993Y1189303D01*
X415857Y1189617D01*
X415696Y1189905D01*
X415511Y1190168D01*
X415303Y1190402D01*
X415077Y1190605D01*
X414832Y1190777D01*
X414568Y1190917D01*
X414284Y1191027D01*
X413982Y1191105D01*
X413661Y1191152D01*
X413321Y1191167D01*
X412983Y1191155D01*
X412664Y1191116D01*
X412363Y1191053D01*
X412080Y1190963D01*
X411816Y1190849D01*
X411569Y1190709D01*
X411341Y1190543D01*
X411131Y1190352D01*
X410943Y1190135D01*
X410779Y1189894D01*
X410641Y1189628D01*
X410528Y1189338D01*
X410440Y1189023D01*
X410378Y1188683D01*
X410340Y1188318D01*
X410327Y1187929D01*
X410339Y1187572D01*
X410374Y1187234D01*
X410433Y1186912D01*
X410514Y1186608D01*
X410620Y1186322D01*
X410748Y1186053D01*
X410900Y1185801D01*
X411076Y1185567D01*
X411272Y1185353D01*
X411488Y1185163D01*
X411723Y1184997D01*
X411977Y1184854D01*
X412251Y1184735D01*
X412543Y1184639D01*
X412855Y1184567D01*
X413186Y1184518D01*
X413014Y1182298D01*
X412498Y1182379D01*
X412011Y1182500D01*
X411553Y1182660D01*
X411125Y1182860D01*
X410725Y1183100D01*
X410355Y1183380D01*
X410014Y1183699D01*
X409702Y1184058D01*
X409423Y1184450D01*
X409181Y1184870D01*
X408977Y1185316D01*
X408809Y1185789D01*
X408679Y1186290D01*
X408586Y1186817D01*
X408530Y1187372D01*
X408512Y1187953D01*
X408531Y1188585D01*
X408587Y1189181D01*
X408682Y1189741D01*
X408814Y1190264D01*
X408984Y1190751D01*
X409191Y1191202D01*
X409437Y1191617D01*
X409720Y1191995D01*
X410037Y1192333D01*
X410384Y1192626D01*
X410760Y1192874D01*
X411166Y1193077D01*
X411602Y1193234D01*
X412068Y1193347D01*
X412563Y1193414D01*
X413088Y1193437D01*
X413492Y1193423D01*
X413877Y1193379D01*
X414243Y1193307D01*
X414589Y1193205D01*
X414916Y1193075D01*
X415223Y1192916D01*
X415512Y1192728D01*
X415781Y1192511D01*
X416029Y1192266D01*
X416257Y1191995D01*
X416464Y1191698D01*
X416650Y1191374D01*
X416815Y1191025D01*
X416959Y1190649D01*
X417083Y1190246D01*
X417185Y1189818D01*
X417234Y1189818D01*
X417300Y1190289D01*
X417394Y1190733D01*
X417515Y1191151D01*
X417664Y1191542D01*
X417840Y1191905D01*
X418044Y1192242D01*
X418276Y1192553D01*
X418535Y1192836D01*
X418816Y1193089D01*
X419116Y1193308D01*
X419433Y1193494D01*
X419768Y1193646D01*
X420120Y1193764D01*
X420490Y1193848D01*
X420878Y1193899D01*
X421283Y1193915D01*
X421578Y1193910D01*
X421864Y1193892D01*
X422411Y1193820D01*
X422925Y1193702D01*
X423405Y1193535D01*
X423851Y1193321D01*
X424264Y1193060D01*
X424643Y1192751D01*
X424988Y1192394D01*
X425295Y1191994D01*
X425562Y1191552D01*
X425788Y1191070D01*
X425972Y1190548D01*
X426116Y1189985D01*
X426218Y1189381D01*
X426280Y1188736D01*
X426300Y1188051D01*
X426282Y1187412D01*
X426226Y1186805D01*
X426134Y1186232D01*
X426004Y1185691D01*
X425838Y1185184D01*
X425634Y1184710D01*
X425394Y1184269D01*
X425117Y1183862D01*
X424803Y1183491D01*
X424454Y1183159D01*
X424069Y1182867D01*
X423649Y1182615D01*
X423193Y1182403D01*
X422702Y1182230D01*
X422176Y1182097D01*
X421614Y1182003D01*
G37*
G36*
X426055Y1168991D02*
X424178Y1168991D01*
X424178Y1173396D01*
X410879Y1173396D01*
X413664Y1169494D01*
X411579Y1169494D01*
X408769Y1173580D01*
X408769Y1175616D01*
X424178Y1175616D01*
X424178Y1179824D01*
X426055Y1179824D01*
X426055Y1168991D01*
G37*
G36*
X426055Y1162403D02*
X423368Y1162403D01*
X423368Y1164795D01*
X426055Y1164795D01*
X426055Y1162403D01*
G37*
G36*
X315806Y738212D02*
X314728Y738235D01*
X314215Y738263D01*
X313719Y738303D01*
X313241Y738354D01*
X312780Y738417D01*
X312337Y738490D01*
X311911Y738576D01*
X311503Y738672D01*
X311112Y738780D01*
X310738Y738899D01*
X310382Y739030D01*
X310043Y739172D01*
X309722Y739325D01*
X309419Y739490D01*
X309132Y739666D01*
X308863Y739854D01*
X308612Y740056D01*
X308378Y740270D01*
X308161Y740498D01*
X307961Y740739D01*
X307779Y740993D01*
X307614Y741261D01*
X307467Y741541D01*
X307337Y741835D01*
X307224Y742142D01*
X307129Y742462D01*
X307050Y742795D01*
X306990Y743142D01*
X306946Y743502D01*
X306920Y743874D01*
X306912Y744260D01*
X306920Y744636D01*
X306947Y744999D01*
X306991Y745350D01*
X307052Y745688D01*
X307131Y746013D01*
X307227Y746326D01*
X307341Y746627D01*
X307473Y746915D01*
X307622Y747190D01*
X307789Y747453D01*
X307973Y747704D01*
X308175Y747942D01*
X308394Y748167D01*
X308631Y748380D01*
X308885Y748581D01*
X309157Y748769D01*
X309446Y748945D01*
X309752Y749110D01*
X310075Y749263D01*
X310414Y749405D01*
X310771Y749535D01*
X311144Y749655D01*
X311534Y749763D01*
X311942Y749859D01*
X312366Y749944D01*
X312807Y750018D01*
X313264Y750081D01*
X313739Y750132D01*
X314739Y750200D01*
X315806Y750223D01*
X316339Y750217D01*
X316857Y750199D01*
X317358Y750169D01*
X317843Y750127D01*
X318313Y750073D01*
X318766Y750008D01*
X319203Y749930D01*
X319624Y749841D01*
X320030Y749739D01*
X320419Y749626D01*
X320792Y749501D01*
X321150Y749363D01*
X321491Y749214D01*
X321816Y749053D01*
X322125Y748880D01*
X322419Y748695D01*
X322695Y748499D01*
X322953Y748291D01*
X323194Y748071D01*
X323417Y747841D01*
X323622Y747599D01*
X323809Y747345D01*
X323978Y747081D01*
X324130Y746804D01*
X324264Y746517D01*
X324380Y746218D01*
X324478Y745908D01*
X324558Y745586D01*
X324620Y745254D01*
X324665Y744909D01*
X324691Y744554D01*
X324700Y744187D01*
X324691Y743820D01*
X324665Y743465D01*
X324621Y743121D01*
X324559Y742789D01*
X324479Y742468D01*
X324381Y742160D01*
X324266Y741862D01*
X324133Y741577D01*
X323982Y741303D01*
X323814Y741040D01*
X323628Y740789D01*
X323424Y740550D01*
X323202Y740322D01*
X322963Y740106D01*
X322706Y739902D01*
X322431Y739709D01*
X322139Y739528D01*
X321831Y739358D01*
X321506Y739200D01*
X321166Y739054D01*
X320809Y738920D01*
X320435Y738797D01*
X320046Y738686D01*
X319640Y738586D01*
X319218Y738499D01*
X318779Y738423D01*
X318324Y738358D01*
X317853Y738306D01*
X317366Y738265D01*
X316862Y738236D01*
X316342Y738218D01*
X315806Y738212D01*
G37*
%LPC*%
G36*
X315806Y740445D02*
X316695Y740459D01*
X317523Y740501D01*
X318289Y740572D01*
X318993Y740670D01*
X319635Y740797D01*
X320216Y740952D01*
X320735Y741135D01*
X321192Y741347D01*
X321591Y741589D01*
X321938Y741864D01*
X322231Y742172D01*
X322471Y742514D01*
X322657Y742888D01*
X322730Y743088D01*
X322790Y743296D01*
X322837Y743512D01*
X322870Y743737D01*
X322890Y743970D01*
X322897Y744211D01*
X322890Y744451D01*
X322870Y744683D01*
X322836Y744906D01*
X322788Y745121D01*
X322727Y745329D01*
X322652Y745528D01*
X322564Y745718D01*
X322461Y745901D01*
X322216Y746242D01*
X321917Y746551D01*
X321563Y746826D01*
X321155Y747070D01*
X320690Y747282D01*
X320167Y747467D01*
X319586Y747623D01*
X318947Y747751D01*
X318249Y747850D01*
X317493Y747921D01*
X316679Y747963D01*
X315806Y747978D01*
X314903Y747964D01*
X314064Y747923D01*
X313290Y747856D01*
X312580Y747761D01*
X311934Y747640D01*
X311353Y747491D01*
X310836Y747315D01*
X310384Y747113D01*
X309990Y746879D01*
X309648Y746610D01*
X309359Y746306D01*
X309123Y745967D01*
X308939Y745593D01*
X308867Y745393D01*
X308808Y745184D01*
X308762Y744966D01*
X308729Y744740D01*
X308709Y744504D01*
X308703Y744260D01*
X308709Y744010D01*
X308729Y743769D01*
X308761Y743537D01*
X308806Y743314D01*
X308865Y743100D01*
X308936Y742894D01*
X309117Y742511D01*
X309350Y742163D01*
X309634Y741851D01*
X309971Y741575D01*
X310359Y741334D01*
X310806Y741126D01*
X311321Y740945D01*
X311901Y740792D01*
X312549Y740667D01*
X313263Y740570D01*
X314044Y740501D01*
X314892Y740459D01*
X315806Y740445D01*
G37*
%LPD*%
G36*
X320014Y759125D02*
X319805Y761407D01*
X320177Y761473D01*
X320524Y761562D01*
X320848Y761674D01*
X321147Y761808D01*
X321423Y761965D01*
X321674Y762144D01*
X321902Y762345D01*
X322106Y762569D01*
X322285Y762816D01*
X322441Y763085D01*
X322573Y763377D01*
X322681Y763691D01*
X322765Y764028D01*
X322825Y764387D01*
X322860Y764769D01*
X322872Y765173D01*
X322860Y765579D01*
X322821Y765963D01*
X322757Y766324D01*
X322667Y766662D01*
X322551Y766979D01*
X322410Y767272D01*
X322243Y767544D01*
X322050Y767793D01*
X321833Y768015D01*
X321590Y768208D01*
X321322Y768372D01*
X321029Y768506D01*
X320712Y768610D01*
X320369Y768684D01*
X320002Y768728D01*
X319609Y768743D01*
X319266Y768726D01*
X318942Y768675D01*
X318638Y768591D01*
X318353Y768472D01*
X318088Y768319D01*
X317841Y768133D01*
X317615Y767912D01*
X317407Y767658D01*
X317222Y767371D01*
X317061Y767055D01*
X316925Y766708D01*
X316814Y766331D01*
X316727Y765924D01*
X316665Y765487D01*
X316628Y765020D01*
X316616Y764523D01*
X316616Y763272D01*
X314702Y763272D01*
X314702Y764474D01*
X314690Y764915D01*
X314652Y765331D01*
X314591Y765721D01*
X314504Y766086D01*
X314393Y766425D01*
X314257Y766739D01*
X314096Y767027D01*
X313911Y767290D01*
X313703Y767524D01*
X313477Y767727D01*
X313232Y767899D01*
X312968Y768039D01*
X312684Y768149D01*
X312382Y768227D01*
X312061Y768274D01*
X311721Y768289D01*
X311383Y768277D01*
X311064Y768238D01*
X310763Y768175D01*
X310480Y768085D01*
X310216Y767971D01*
X309969Y767830D01*
X309741Y767665D01*
X309531Y767474D01*
X309343Y767257D01*
X309179Y767016D01*
X309041Y766750D01*
X308928Y766460D01*
X308840Y766145D01*
X308778Y765805D01*
X308740Y765440D01*
X308727Y765051D01*
X308739Y764694D01*
X308774Y764356D01*
X308833Y764034D01*
X308914Y763730D01*
X309020Y763444D01*
X309148Y763175D01*
X309300Y762923D01*
X309476Y762689D01*
X309672Y762475D01*
X309888Y762285D01*
X310123Y762119D01*
X310377Y761976D01*
X310651Y761857D01*
X310943Y761761D01*
X311255Y761689D01*
X311586Y761640D01*
X311414Y759420D01*
X310898Y759501D01*
X310411Y759622D01*
X309953Y759782D01*
X309525Y759982D01*
X309125Y760222D01*
X308755Y760502D01*
X308414Y760821D01*
X308102Y761180D01*
X307823Y761572D01*
X307581Y761992D01*
X307377Y762438D01*
X307209Y762911D01*
X307079Y763412D01*
X306986Y763939D01*
X306930Y764494D01*
X306912Y765075D01*
X306931Y765707D01*
X306987Y766303D01*
X307082Y766863D01*
X307214Y767386D01*
X307384Y767873D01*
X307591Y768324D01*
X307837Y768739D01*
X308120Y769117D01*
X308437Y769455D01*
X308784Y769748D01*
X309160Y769996D01*
X309566Y770199D01*
X310002Y770356D01*
X310468Y770469D01*
X310963Y770536D01*
X311488Y770559D01*
X311892Y770544D01*
X312277Y770501D01*
X312643Y770429D01*
X312989Y770327D01*
X313316Y770197D01*
X313623Y770038D01*
X313912Y769850D01*
X314181Y769633D01*
X314429Y769388D01*
X314657Y769117D01*
X314864Y768820D01*
X315050Y768496D01*
X315215Y768147D01*
X315359Y767771D01*
X315483Y767368D01*
X315585Y766940D01*
X315634Y766940D01*
X315700Y767411D01*
X315794Y767855D01*
X315915Y768273D01*
X316064Y768664D01*
X316240Y769027D01*
X316444Y769364D01*
X316676Y769675D01*
X316935Y769958D01*
X317216Y770211D01*
X317516Y770430D01*
X317833Y770616D01*
X318168Y770768D01*
X318520Y770886D01*
X318890Y770970D01*
X319278Y771021D01*
X319683Y771037D01*
X319978Y771031D01*
X320264Y771014D01*
X320811Y770942D01*
X321325Y770823D01*
X321805Y770657D01*
X322251Y770443D01*
X322664Y770182D01*
X323043Y769873D01*
X323388Y769516D01*
X323695Y769116D01*
X323962Y768674D01*
X324188Y768192D01*
X324372Y767670D01*
X324516Y767107D01*
X324618Y766503D01*
X324680Y765858D01*
X324700Y765173D01*
X324682Y764534D01*
X324626Y763927D01*
X324534Y763353D01*
X324404Y762813D01*
X324238Y762306D01*
X324034Y761832D01*
X323794Y761391D01*
X323517Y760984D01*
X323203Y760613D01*
X322854Y760281D01*
X322469Y759989D01*
X322049Y759737D01*
X321593Y759525D01*
X321102Y759352D01*
X320576Y759219D01*
X320014Y759125D01*
G37*
G36*
X324455Y774051D02*
X322578Y774051D01*
X322578Y778455D01*
X309279Y778455D01*
X312064Y774554D01*
X309979Y774554D01*
X307169Y778639D01*
X307169Y780676D01*
X322578Y780676D01*
X322578Y784883D01*
X324455Y784883D01*
X324455Y774051D01*
G37*
G36*
X324455Y753494D02*
X321768Y753494D01*
X321768Y755886D01*
X324455Y755886D01*
X324455Y753494D01*
G37*
G36*
X-179494Y595318D02*
X-180572Y595341D01*
X-181085Y595370D01*
X-181581Y595409D01*
X-182059Y595460D01*
X-182520Y595523D01*
X-182963Y595597D01*
X-183389Y595682D01*
X-183797Y595778D01*
X-184188Y595886D01*
X-184562Y596006D01*
X-184918Y596136D01*
X-185257Y596278D01*
X-185578Y596431D01*
X-185882Y596596D01*
X-186168Y596772D01*
X-186437Y596960D01*
X-186688Y597162D01*
X-186922Y597377D01*
X-187139Y597604D01*
X-187339Y597846D01*
X-187521Y598100D01*
X-187686Y598367D01*
X-187833Y598648D01*
X-187963Y598941D01*
X-188076Y599248D01*
X-188171Y599568D01*
X-188250Y599902D01*
X-188310Y600248D01*
X-188354Y600608D01*
X-188380Y600981D01*
X-188388Y601367D01*
X-188380Y601742D01*
X-188353Y602105D01*
X-188309Y602456D01*
X-188248Y602794D01*
X-188169Y603119D01*
X-188073Y603432D01*
X-187959Y603733D01*
X-187827Y604021D01*
X-187678Y604297D01*
X-187511Y604560D01*
X-187327Y604810D01*
X-187125Y605048D01*
X-186906Y605274D01*
X-186669Y605487D01*
X-186415Y605687D01*
X-186143Y605875D01*
X-185854Y606051D01*
X-185548Y606216D01*
X-185225Y606369D01*
X-184886Y606511D01*
X-184529Y606642D01*
X-184156Y606761D01*
X-183766Y606869D01*
X-183358Y606965D01*
X-182934Y607051D01*
X-182494Y607124D01*
X-182036Y607187D01*
X-181561Y607238D01*
X-180561Y607306D01*
X-179494Y607329D01*
X-178961Y607323D01*
X-178443Y607305D01*
X-177942Y607275D01*
X-177457Y607233D01*
X-176987Y607180D01*
X-176534Y607114D01*
X-176097Y607037D01*
X-175676Y606947D01*
X-175270Y606846D01*
X-174881Y606732D01*
X-174508Y606607D01*
X-174150Y606470D01*
X-173809Y606321D01*
X-173484Y606159D01*
X-173175Y605986D01*
X-172881Y605801D01*
X-172605Y605605D01*
X-172347Y605397D01*
X-172106Y605178D01*
X-171883Y604947D01*
X-171678Y604705D01*
X-171491Y604452D01*
X-171322Y604187D01*
X-171170Y603911D01*
X-171036Y603623D01*
X-170921Y603324D01*
X-170823Y603014D01*
X-170742Y602693D01*
X-170680Y602360D01*
X-170635Y602016D01*
X-170609Y601660D01*
X-170600Y601293D01*
X-170609Y600926D01*
X-170635Y600571D01*
X-170679Y600227D01*
X-170742Y599895D01*
X-170821Y599575D01*
X-170919Y599266D01*
X-171034Y598969D01*
X-171167Y598683D01*
X-171318Y598409D01*
X-171486Y598146D01*
X-171672Y597896D01*
X-171876Y597656D01*
X-172098Y597429D01*
X-172337Y597212D01*
X-172594Y597008D01*
X-172869Y596815D01*
X-173161Y596634D01*
X-173469Y596464D01*
X-173794Y596306D01*
X-174134Y596160D01*
X-174491Y596026D01*
X-174865Y595903D01*
X-175254Y595792D01*
X-175660Y595693D01*
X-176082Y595605D01*
X-176521Y595529D01*
X-176976Y595465D01*
X-177447Y595412D01*
X-177934Y595371D01*
X-178438Y595342D01*
X-178958Y595324D01*
X-179494Y595318D01*
G37*
%LPC*%
G36*
X-179494Y597551D02*
X-178605Y597565D01*
X-177777Y597608D01*
X-177011Y597678D01*
X-176307Y597777D01*
X-175665Y597903D01*
X-175084Y598058D01*
X-174565Y598242D01*
X-174108Y598453D01*
X-173709Y598695D01*
X-173362Y598970D01*
X-173069Y599278D01*
X-172829Y599620D01*
X-172643Y599995D01*
X-172570Y600194D01*
X-172510Y600402D01*
X-172463Y600619D01*
X-172430Y600843D01*
X-172410Y601076D01*
X-172403Y601317D01*
X-172410Y601557D01*
X-172430Y601789D01*
X-172464Y602012D01*
X-172512Y602228D01*
X-172573Y602435D01*
X-172648Y602634D01*
X-172736Y602825D01*
X-172839Y603007D01*
X-173084Y603348D01*
X-173383Y603657D01*
X-173737Y603933D01*
X-174145Y604176D01*
X-174610Y604389D01*
X-175133Y604573D01*
X-175714Y604729D01*
X-176353Y604857D01*
X-177051Y604956D01*
X-177807Y605027D01*
X-178621Y605070D01*
X-179494Y605084D01*
X-180397Y605070D01*
X-181236Y605030D01*
X-182010Y604962D01*
X-182720Y604868D01*
X-183366Y604746D01*
X-183947Y604597D01*
X-184464Y604422D01*
X-184916Y604219D01*
X-185310Y603985D01*
X-185652Y603716D01*
X-185941Y603412D01*
X-186177Y603073D01*
X-186361Y602699D01*
X-186433Y602499D01*
X-186492Y602290D01*
X-186538Y602072D01*
X-186571Y601846D01*
X-186591Y601611D01*
X-186597Y601367D01*
X-186591Y601116D01*
X-186571Y600875D01*
X-186539Y600643D01*
X-186494Y600420D01*
X-186435Y600206D01*
X-186364Y600001D01*
X-186183Y599617D01*
X-185950Y599269D01*
X-185666Y598957D01*
X-185329Y598681D01*
X-184941Y598441D01*
X-184494Y598232D01*
X-183979Y598052D01*
X-183399Y597899D01*
X-182751Y597774D01*
X-182037Y597676D01*
X-181256Y597607D01*
X-180408Y597565D01*
X-179494Y597551D01*
G37*
%LPD*%
G36*
X-174759Y560007D02*
X-176476Y560007D01*
X-188131Y567920D01*
X-188131Y570239D01*
X-176501Y570239D01*
X-176501Y572668D01*
X-174759Y572668D01*
X-174759Y570239D01*
X-170845Y570239D01*
X-170845Y568153D01*
X-174759Y568153D01*
X-174759Y560007D01*
G37*
%LPC*%
G36*
X-176501Y562044D02*
X-176501Y568153D01*
X-185640Y568153D01*
X-184990Y567810D01*
X-184499Y567531D01*
X-184180Y567331D01*
X-177654Y562903D01*
X-176746Y562240D01*
X-176501Y562044D01*
G37*
%LPD*%
G36*
X-174759Y580945D02*
X-176476Y580945D01*
X-188131Y588858D01*
X-188131Y591176D01*
X-176501Y591176D01*
X-176501Y593605D01*
X-174759Y593605D01*
X-174759Y591176D01*
X-170845Y591176D01*
X-170845Y589091D01*
X-174759Y589091D01*
X-174759Y580945D01*
G37*
%LPC*%
G36*
X-176501Y582981D02*
X-176501Y589091D01*
X-185640Y589091D01*
X-184990Y588747D01*
X-184499Y588468D01*
X-184180Y588269D01*
X-177654Y583840D01*
X-176746Y583178D01*
X-176501Y582981D01*
G37*
%LPD*%
G36*
X-170845Y575694D02*
X-173532Y575694D01*
X-173532Y578086D01*
X-170845Y578086D01*
X-170845Y575694D01*
G37*
G36*
X137950Y-70700D02*
X137456Y-70687D01*
X136988Y-70647D01*
X136545Y-70580D01*
X136126Y-70487D01*
X135733Y-70367D01*
X135365Y-70221D01*
X135023Y-70048D01*
X134705Y-69848D01*
X134411Y-69618D01*
X134138Y-69356D01*
X133887Y-69061D01*
X133658Y-68733D01*
X133450Y-68372D01*
X133264Y-67979D01*
X133099Y-67553D01*
X132957Y-67094D01*
X135067Y-66762D01*
X135156Y-67024D01*
X135257Y-67268D01*
X135371Y-67496D01*
X135498Y-67707D01*
X135637Y-67901D01*
X135788Y-68078D01*
X135952Y-68238D01*
X136128Y-68382D01*
X136317Y-68508D01*
X136518Y-68618D01*
X136732Y-68711D01*
X136958Y-68787D01*
X137196Y-68846D01*
X137447Y-68888D01*
X137711Y-68913D01*
X137987Y-68922D01*
X138221Y-68915D01*
X138449Y-68894D01*
X138670Y-68859D01*
X138884Y-68811D01*
X139091Y-68749D01*
X139292Y-68673D01*
X139673Y-68480D01*
X140028Y-68231D01*
X140356Y-67928D01*
X140657Y-67569D01*
X140931Y-67155D01*
X141176Y-66690D01*
X141390Y-66177D01*
X141573Y-65618D01*
X141725Y-65011D01*
X141846Y-64357D01*
X141936Y-63656D01*
X141995Y-62908D01*
X142023Y-62113D01*
X141889Y-62382D01*
X141734Y-62638D01*
X141556Y-62880D01*
X141357Y-63108D01*
X141136Y-63323D01*
X140893Y-63524D01*
X140629Y-63712D01*
X140342Y-63885D01*
X140041Y-64042D01*
X139733Y-64178D01*
X139417Y-64293D01*
X139094Y-64387D01*
X138764Y-64460D01*
X138426Y-64512D01*
X138081Y-64544D01*
X137729Y-64554D01*
X137441Y-64548D01*
X137161Y-64529D01*
X136888Y-64498D01*
X136622Y-64454D01*
X136112Y-64330D01*
X135631Y-64155D01*
X135180Y-63931D01*
X134757Y-63657D01*
X134364Y-63333D01*
X134000Y-62959D01*
X133672Y-62544D01*
X133388Y-62097D01*
X133147Y-61616D01*
X132951Y-61104D01*
X132798Y-60558D01*
X132688Y-59980D01*
X132623Y-59370D01*
X132601Y-58727D01*
X132607Y-58392D01*
X132625Y-58067D01*
X132696Y-57444D01*
X132815Y-56856D01*
X132981Y-56305D01*
X133195Y-55791D01*
X133457Y-55312D01*
X133766Y-54870D01*
X134122Y-54464D01*
X134521Y-54100D01*
X134957Y-53785D01*
X135430Y-53518D01*
X135941Y-53300D01*
X136489Y-53130D01*
X137073Y-53009D01*
X137380Y-52966D01*
X137695Y-52936D01*
X138020Y-52918D01*
X138355Y-52912D01*
X138710Y-52920D01*
X139054Y-52945D01*
X139387Y-52987D01*
X139709Y-53045D01*
X140020Y-53120D01*
X140320Y-53212D01*
X140610Y-53320D01*
X140888Y-53445D01*
X141156Y-53587D01*
X141412Y-53746D01*
X141658Y-53921D01*
X141892Y-54112D01*
X142116Y-54321D01*
X142329Y-54546D01*
X142531Y-54788D01*
X142722Y-55046D01*
X142902Y-55322D01*
X143070Y-55614D01*
X143227Y-55922D01*
X143372Y-56248D01*
X143505Y-56590D01*
X143627Y-56949D01*
X143737Y-57325D01*
X143835Y-57718D01*
X143922Y-58127D01*
X143998Y-58553D01*
X144062Y-58996D01*
X144114Y-59456D01*
X144154Y-59932D01*
X144183Y-60426D01*
X144207Y-61463D01*
X144200Y-62011D01*
X144181Y-62544D01*
X144149Y-63060D01*
X144105Y-63560D01*
X144048Y-64045D01*
X143978Y-64513D01*
X143895Y-64965D01*
X143800Y-65401D01*
X143692Y-65820D01*
X143572Y-66224D01*
X143438Y-66612D01*
X143292Y-66983D01*
X143133Y-67339D01*
X142962Y-67678D01*
X142778Y-68001D01*
X142581Y-68308D01*
X142372Y-68598D01*
X142153Y-68869D01*
X141923Y-69121D01*
X141682Y-69355D01*
X141430Y-69570D01*
X141168Y-69766D01*
X140895Y-69943D01*
X140610Y-70102D01*
X140316Y-70242D01*
X140010Y-70364D01*
X139694Y-70467D01*
X139366Y-70551D01*
X139028Y-70616D01*
X138680Y-70663D01*
X138320Y-70691D01*
X137950Y-70700D01*
G37*
%LPC*%
G36*
X138257Y-62812D02*
X138494Y-62805D01*
X138727Y-62785D01*
X138955Y-62751D01*
X139180Y-62703D01*
X139616Y-62567D01*
X140035Y-62377D01*
X140425Y-62136D01*
X140770Y-61851D01*
X141072Y-61520D01*
X141330Y-61144D01*
X141440Y-60941D01*
X141536Y-60731D01*
X141618Y-60514D01*
X141684Y-60291D01*
X141736Y-60061D01*
X141772Y-59823D01*
X141795Y-59579D01*
X141802Y-59328D01*
X141787Y-58819D01*
X141742Y-58336D01*
X141667Y-57878D01*
X141563Y-57446D01*
X141428Y-57040D01*
X141264Y-56658D01*
X141069Y-56303D01*
X140845Y-55973D01*
X140596Y-55675D01*
X140326Y-55417D01*
X140036Y-55199D01*
X139726Y-55020D01*
X139395Y-54881D01*
X139044Y-54782D01*
X138673Y-54723D01*
X138281Y-54703D01*
X137893Y-54720D01*
X137526Y-54771D01*
X137180Y-54856D01*
X136855Y-54974D01*
X136551Y-55127D01*
X136268Y-55314D01*
X136007Y-55534D01*
X135766Y-55789D01*
X135550Y-56072D01*
X135364Y-56379D01*
X135205Y-56711D01*
X135076Y-57066D01*
X134975Y-57445D01*
X134904Y-57848D01*
X134860Y-58276D01*
X134846Y-58727D01*
X134860Y-59187D01*
X134904Y-59622D01*
X134975Y-60032D01*
X135076Y-60418D01*
X135205Y-60779D01*
X135364Y-61116D01*
X135550Y-61427D01*
X135766Y-61714D01*
X136006Y-61971D01*
X136267Y-62194D01*
X136548Y-62383D01*
X136849Y-62538D01*
X137170Y-62658D01*
X137512Y-62743D01*
X137874Y-62795D01*
X138257Y-62812D01*
G37*
%LPD*%
G36*
X123232Y-70455D02*
X112400Y-70455D01*
X112400Y-68578D01*
X116804Y-68578D01*
X116804Y-55279D01*
X112903Y-58064D01*
X112903Y-55979D01*
X116988Y-53169D01*
X119024Y-53169D01*
X119024Y-68578D01*
X123232Y-68578D01*
X123232Y-70455D01*
G37*
G36*
X-242994Y595318D02*
X-244072Y595341D01*
X-244585Y595370D01*
X-245081Y595409D01*
X-245559Y595460D01*
X-246020Y595523D01*
X-246463Y595597D01*
X-246889Y595682D01*
X-247297Y595778D01*
X-247688Y595886D01*
X-248062Y596006D01*
X-248418Y596136D01*
X-248757Y596278D01*
X-249078Y596431D01*
X-249382Y596596D01*
X-249668Y596772D01*
X-249937Y596960D01*
X-250188Y597162D01*
X-250422Y597377D01*
X-250639Y597604D01*
X-250839Y597846D01*
X-251021Y598100D01*
X-251186Y598367D01*
X-251333Y598648D01*
X-251463Y598941D01*
X-251576Y599248D01*
X-251671Y599568D01*
X-251750Y599902D01*
X-251810Y600248D01*
X-251854Y600608D01*
X-251880Y600981D01*
X-251888Y601367D01*
X-251880Y601742D01*
X-251853Y602105D01*
X-251809Y602456D01*
X-251748Y602794D01*
X-251669Y603119D01*
X-251573Y603432D01*
X-251459Y603733D01*
X-251327Y604021D01*
X-251178Y604297D01*
X-251011Y604560D01*
X-250827Y604810D01*
X-250625Y605048D01*
X-250406Y605274D01*
X-250169Y605487D01*
X-249915Y605687D01*
X-249643Y605875D01*
X-249354Y606051D01*
X-249048Y606216D01*
X-248725Y606369D01*
X-248386Y606511D01*
X-248029Y606642D01*
X-247656Y606761D01*
X-247266Y606869D01*
X-246858Y606965D01*
X-246434Y607051D01*
X-245994Y607124D01*
X-245536Y607187D01*
X-245061Y607238D01*
X-244061Y607306D01*
X-242994Y607329D01*
X-242461Y607323D01*
X-241943Y607305D01*
X-241442Y607275D01*
X-240957Y607233D01*
X-240487Y607180D01*
X-240034Y607114D01*
X-239597Y607037D01*
X-239176Y606947D01*
X-238770Y606846D01*
X-238381Y606732D01*
X-238008Y606607D01*
X-237650Y606470D01*
X-237309Y606321D01*
X-236984Y606159D01*
X-236675Y605986D01*
X-236381Y605801D01*
X-236105Y605605D01*
X-235847Y605397D01*
X-235606Y605178D01*
X-235383Y604947D01*
X-235178Y604705D01*
X-234991Y604452D01*
X-234822Y604187D01*
X-234670Y603911D01*
X-234536Y603623D01*
X-234421Y603324D01*
X-234323Y603014D01*
X-234242Y602693D01*
X-234180Y602360D01*
X-234135Y602016D01*
X-234109Y601660D01*
X-234100Y601293D01*
X-234109Y600926D01*
X-234135Y600571D01*
X-234179Y600227D01*
X-234242Y599895D01*
X-234321Y599575D01*
X-234419Y599266D01*
X-234534Y598969D01*
X-234667Y598683D01*
X-234818Y598409D01*
X-234986Y598146D01*
X-235172Y597896D01*
X-235376Y597656D01*
X-235598Y597429D01*
X-235837Y597212D01*
X-236094Y597008D01*
X-236369Y596815D01*
X-236661Y596634D01*
X-236969Y596464D01*
X-237294Y596306D01*
X-237634Y596160D01*
X-237991Y596026D01*
X-238365Y595903D01*
X-238754Y595792D01*
X-239160Y595693D01*
X-239582Y595605D01*
X-240021Y595529D01*
X-240476Y595465D01*
X-240947Y595412D01*
X-241434Y595371D01*
X-241938Y595342D01*
X-242458Y595324D01*
X-242994Y595318D01*
G37*
%LPC*%
G36*
X-242994Y597551D02*
X-242105Y597565D01*
X-241277Y597608D01*
X-240511Y597678D01*
X-239807Y597777D01*
X-239165Y597903D01*
X-238584Y598058D01*
X-238065Y598242D01*
X-237608Y598453D01*
X-237209Y598695D01*
X-236862Y598970D01*
X-236569Y599278D01*
X-236329Y599620D01*
X-236143Y599995D01*
X-236070Y600194D01*
X-236010Y600402D01*
X-235963Y600619D01*
X-235930Y600843D01*
X-235910Y601076D01*
X-235903Y601317D01*
X-235910Y601557D01*
X-235930Y601789D01*
X-235964Y602012D01*
X-236012Y602228D01*
X-236073Y602435D01*
X-236148Y602634D01*
X-236236Y602825D01*
X-236339Y603007D01*
X-236584Y603348D01*
X-236883Y603657D01*
X-237237Y603933D01*
X-237645Y604176D01*
X-238110Y604389D01*
X-238633Y604573D01*
X-239214Y604729D01*
X-239853Y604857D01*
X-240551Y604956D01*
X-241307Y605027D01*
X-242121Y605070D01*
X-242994Y605084D01*
X-243897Y605070D01*
X-244736Y605030D01*
X-245510Y604962D01*
X-246220Y604868D01*
X-246866Y604746D01*
X-247447Y604597D01*
X-247964Y604422D01*
X-248416Y604219D01*
X-248810Y603985D01*
X-249152Y603716D01*
X-249441Y603412D01*
X-249677Y603073D01*
X-249861Y602699D01*
X-249933Y602499D01*
X-249992Y602290D01*
X-250038Y602072D01*
X-250071Y601846D01*
X-250091Y601611D01*
X-250097Y601367D01*
X-250091Y601116D01*
X-250071Y600875D01*
X-250039Y600643D01*
X-249994Y600420D01*
X-249935Y600206D01*
X-249864Y600001D01*
X-249683Y599617D01*
X-249450Y599269D01*
X-249166Y598957D01*
X-248829Y598681D01*
X-248441Y598441D01*
X-247994Y598232D01*
X-247479Y598052D01*
X-246899Y597899D01*
X-246251Y597774D01*
X-245537Y597676D01*
X-244756Y597607D01*
X-243908Y597565D01*
X-242994Y597551D01*
G37*
%LPD*%
G36*
X129141Y-70455D02*
X126749Y-70455D01*
X126749Y-67768D01*
X129141Y-67768D01*
X129141Y-70455D01*
G37*
G36*
X-188342Y73429D02*
X-188757Y73445D01*
X-189155Y73490D01*
X-189536Y73566D01*
X-189900Y73672D01*
X-190247Y73808D01*
X-190578Y73975D01*
X-190891Y74171D01*
X-191188Y74399D01*
X-191462Y74649D01*
X-191708Y74917D01*
X-191925Y75201D01*
X-192114Y75503D01*
X-192275Y75821D01*
X-192407Y76156D01*
X-192511Y76508D01*
X-192587Y76877D01*
X-192636Y76877D01*
X-192731Y76533D01*
X-192850Y76208D01*
X-192993Y75902D01*
X-193160Y75615D01*
X-193352Y75346D01*
X-193567Y75095D01*
X-193807Y74863D01*
X-194071Y74650D01*
X-194353Y74459D01*
X-194647Y74293D01*
X-194953Y74153D01*
X-195270Y74038D01*
X-195600Y73949D01*
X-195941Y73885D01*
X-196294Y73847D01*
X-196660Y73834D01*
X-197142Y73857D01*
X-197600Y73927D01*
X-198036Y74042D01*
X-198448Y74204D01*
X-198836Y74412D01*
X-199201Y74666D01*
X-199543Y74966D01*
X-199862Y75313D01*
X-200149Y75698D01*
X-200398Y76115D01*
X-200609Y76564D01*
X-200782Y77044D01*
X-200916Y77556D01*
X-201012Y78099D01*
X-201069Y78674D01*
X-201088Y79281D01*
X-201070Y79902D01*
X-201013Y80490D01*
X-200919Y81044D01*
X-200788Y81565D01*
X-200619Y82052D01*
X-200412Y82505D01*
X-200168Y82925D01*
X-199886Y83311D01*
X-199572Y83658D01*
X-199232Y83958D01*
X-198865Y84212D01*
X-198472Y84420D01*
X-198053Y84582D01*
X-197607Y84697D01*
X-197134Y84766D01*
X-196635Y84790D01*
X-196270Y84777D01*
X-195917Y84738D01*
X-195575Y84674D01*
X-195246Y84584D01*
X-194928Y84469D01*
X-194622Y84327D01*
X-194328Y84160D01*
X-194046Y83968D01*
X-193783Y83753D01*
X-193546Y83519D01*
X-193525Y83494D01*
X-193334Y83267D01*
X-193148Y82995D01*
X-192987Y82705D01*
X-192853Y82397D01*
X-192744Y82069D01*
X-192660Y81723D01*
X-192611Y81723D01*
X-192530Y82125D01*
X-192422Y82505D01*
X-192287Y82861D01*
X-192125Y83195D01*
X-191936Y83505D01*
X-191720Y83793D01*
X-191477Y84057D01*
X-191259Y84252D01*
X-191206Y84299D01*
X-190914Y84515D01*
X-190603Y84701D01*
X-190275Y84860D01*
X-189929Y84989D01*
X-189565Y85090D01*
X-189183Y85161D01*
X-188784Y85205D01*
X-188366Y85219D01*
X-188071Y85213D01*
X-187785Y85195D01*
X-187236Y85124D01*
X-186721Y85005D01*
X-186238Y84839D01*
X-185788Y84625D01*
X-185371Y84363D01*
X-184988Y84054D01*
X-184637Y83698D01*
X-184323Y83297D01*
X-184052Y82854D01*
X-183822Y82370D01*
X-183634Y81845D01*
X-183488Y81279D01*
X-183383Y80671D01*
X-183321Y80021D01*
X-183300Y79330D01*
X-183320Y78656D01*
X-183382Y78020D01*
X-183484Y77421D01*
X-183628Y76860D01*
X-183812Y76337D01*
X-184038Y75851D01*
X-184305Y75403D01*
X-184612Y74994D01*
X-184958Y74627D01*
X-185338Y74309D01*
X-185752Y74040D01*
X-186201Y73820D01*
X-186684Y73649D01*
X-187202Y73527D01*
X-187474Y73484D01*
X-187755Y73454D01*
X-188044Y73435D01*
X-188342Y73429D01*
G37*
%LPC*%
G36*
X-188526Y75711D02*
X-188094Y75725D01*
X-187689Y75768D01*
X-187313Y75839D01*
X-186964Y75939D01*
X-186643Y76067D01*
X-186350Y76224D01*
X-186085Y76409D01*
X-185848Y76622D01*
X-185639Y76864D01*
X-185458Y77135D01*
X-185304Y77433D01*
X-185179Y77761D01*
X-185081Y78117D01*
X-185012Y78501D01*
X-184970Y78914D01*
X-184956Y79355D01*
X-184969Y79791D01*
X-185010Y80199D01*
X-185077Y80578D01*
X-185172Y80928D01*
X-185294Y81250D01*
X-185442Y81542D01*
X-185618Y81806D01*
X-185821Y82042D01*
X-186053Y82249D01*
X-186317Y82428D01*
X-186613Y82580D01*
X-186942Y82704D01*
X-187302Y82801D01*
X-187694Y82870D01*
X-188119Y82911D01*
X-188575Y82925D01*
X-188964Y82910D01*
X-189329Y82865D01*
X-189669Y82790D01*
X-189984Y82686D01*
X-190275Y82551D01*
X-190540Y82387D01*
X-190782Y82192D01*
X-190998Y81968D01*
X-191189Y81717D01*
X-191355Y81441D01*
X-191495Y81142D01*
X-191610Y80818D01*
X-191699Y80470D01*
X-191763Y80098D01*
X-191801Y79702D01*
X-191814Y79281D01*
X-191800Y78873D01*
X-191759Y78487D01*
X-191690Y78124D01*
X-191594Y77785D01*
X-191471Y77468D01*
X-191320Y77174D01*
X-191142Y76904D01*
X-190937Y76656D01*
X-190707Y76434D01*
X-190457Y76243D01*
X-190186Y76080D01*
X-189895Y75947D01*
X-189584Y75844D01*
X-189252Y75770D01*
X-188899Y75726D01*
X-188526Y75711D01*
G37*
G36*
X-196512Y76092D02*
X-196152Y76105D01*
X-195814Y76144D01*
X-195498Y76210D01*
X-195204Y76302D01*
X-194932Y76420D01*
X-194682Y76564D01*
X-194455Y76735D01*
X-194249Y76932D01*
X-194066Y77153D01*
X-193908Y77395D01*
X-193774Y77660D01*
X-193665Y77946D01*
X-193579Y78253D01*
X-193519Y78582D01*
X-193482Y78933D01*
X-193470Y79306D01*
X-193481Y79684D01*
X-193515Y80038D01*
X-193571Y80370D01*
X-193649Y80678D01*
X-193750Y80963D01*
X-193874Y81225D01*
X-194019Y81464D01*
X-194188Y81680D01*
X-194381Y81871D01*
X-194602Y82037D01*
X-194851Y82177D01*
X-195128Y82292D01*
X-195432Y82381D01*
X-195764Y82444D01*
X-196124Y82483D01*
X-196512Y82495D01*
X-196867Y82483D01*
X-197200Y82445D01*
X-197509Y82382D01*
X-197795Y82295D01*
X-198059Y82182D01*
X-198299Y82043D01*
X-198517Y81880D01*
X-198711Y81692D01*
X-198883Y81478D01*
X-199032Y81240D01*
X-199158Y80976D01*
X-199261Y80687D01*
X-199341Y80374D01*
X-199399Y80035D01*
X-199433Y79670D01*
X-199444Y79281D01*
X-199433Y78903D01*
X-199398Y78549D01*
X-199341Y78217D01*
X-199260Y77909D01*
X-199157Y77624D01*
X-199030Y77362D01*
X-198881Y77123D01*
X-198708Y76907D01*
X-198513Y76716D01*
X-198295Y76550D01*
X-198054Y76410D01*
X-197791Y76295D01*
X-197505Y76206D01*
X-197197Y76143D01*
X-196866Y76104D01*
X-196512Y76092D01*
G37*
%LPD*%
G36*
X-187986Y52357D02*
X-188195Y54639D01*
X-187823Y54705D01*
X-187476Y54794D01*
X-187152Y54906D01*
X-186853Y55040D01*
X-186577Y55196D01*
X-186326Y55375D01*
X-186098Y55577D01*
X-185894Y55801D01*
X-185715Y56048D01*
X-185559Y56317D01*
X-185427Y56609D01*
X-185319Y56923D01*
X-185235Y57260D01*
X-185176Y57619D01*
X-185140Y58001D01*
X-185128Y58405D01*
X-185140Y58811D01*
X-185179Y59194D01*
X-185243Y59555D01*
X-185333Y59894D01*
X-185449Y60210D01*
X-185590Y60504D01*
X-185757Y60775D01*
X-185950Y61024D01*
X-186167Y61247D01*
X-186410Y61440D01*
X-186678Y61604D01*
X-186971Y61737D01*
X-187288Y61841D01*
X-187631Y61916D01*
X-187998Y61960D01*
X-188391Y61975D01*
X-188734Y61958D01*
X-189058Y61907D01*
X-189362Y61822D01*
X-189647Y61704D01*
X-189912Y61551D01*
X-190159Y61364D01*
X-190386Y61144D01*
X-190593Y60889D01*
X-190778Y60603D01*
X-190939Y60286D01*
X-191075Y59940D01*
X-191186Y59563D01*
X-191273Y59156D01*
X-191335Y58719D01*
X-191372Y58252D01*
X-191384Y57755D01*
X-191384Y56504D01*
X-193298Y56504D01*
X-193298Y57706D01*
X-193310Y58147D01*
X-193348Y58563D01*
X-193409Y58953D01*
X-193496Y59318D01*
X-193607Y59657D01*
X-193743Y59970D01*
X-193904Y60259D01*
X-194089Y60521D01*
X-194297Y60756D01*
X-194523Y60959D01*
X-194768Y61131D01*
X-195033Y61271D01*
X-195316Y61381D01*
X-195618Y61459D01*
X-195939Y61506D01*
X-196279Y61521D01*
X-196617Y61508D01*
X-196936Y61470D01*
X-197237Y61406D01*
X-197520Y61317D01*
X-197784Y61202D01*
X-198031Y61062D01*
X-198259Y60897D01*
X-198469Y60705D01*
X-198657Y60489D01*
X-198821Y60248D01*
X-198959Y59982D01*
X-199072Y59692D01*
X-199160Y59376D01*
X-199222Y59036D01*
X-199260Y58672D01*
X-199273Y58282D01*
X-199261Y57926D01*
X-199226Y57587D01*
X-199167Y57266D01*
X-199086Y56962D01*
X-198980Y56676D01*
X-198852Y56407D01*
X-198700Y56155D01*
X-198524Y55921D01*
X-198328Y55707D01*
X-198112Y55517D01*
X-197877Y55351D01*
X-197623Y55208D01*
X-197349Y55088D01*
X-197057Y54993D01*
X-196745Y54920D01*
X-196414Y54872D01*
X-196586Y52651D01*
X-197102Y52733D01*
X-197589Y52853D01*
X-198047Y53014D01*
X-198475Y53214D01*
X-198875Y53454D01*
X-199245Y53734D01*
X-199586Y54053D01*
X-199898Y54412D01*
X-200177Y54804D01*
X-200419Y55223D01*
X-200623Y55670D01*
X-200791Y56143D01*
X-200921Y56644D01*
X-201014Y57171D01*
X-201070Y57725D01*
X-201088Y58307D01*
X-201069Y58939D01*
X-201013Y59535D01*
X-200918Y60095D01*
X-200786Y60618D01*
X-200616Y61105D01*
X-200409Y61556D01*
X-200163Y61971D01*
X-199880Y62349D01*
X-199563Y62687D01*
X-199216Y62980D01*
X-198840Y63228D01*
X-198434Y63430D01*
X-197998Y63588D01*
X-197533Y63701D01*
X-197037Y63768D01*
X-196512Y63791D01*
X-196108Y63776D01*
X-195723Y63733D01*
X-195357Y63660D01*
X-195011Y63559D01*
X-194684Y63429D01*
X-194377Y63270D01*
X-194088Y63082D01*
X-193820Y62865D01*
X-193571Y62620D01*
X-193343Y62349D01*
X-193136Y62052D01*
X-192950Y61728D01*
X-192785Y61378D01*
X-192641Y61002D01*
X-192517Y60600D01*
X-192415Y60172D01*
X-192366Y60172D01*
X-192300Y60643D01*
X-192206Y61087D01*
X-192085Y61505D01*
X-191936Y61895D01*
X-191760Y62259D01*
X-191556Y62596D01*
X-191324Y62906D01*
X-191065Y63190D01*
X-190784Y63443D01*
X-190484Y63662D01*
X-190167Y63847D01*
X-189832Y63999D01*
X-189480Y64117D01*
X-189110Y64202D01*
X-188723Y64252D01*
X-188317Y64269D01*
X-188022Y64263D01*
X-187736Y64245D01*
X-187189Y64174D01*
X-186675Y64055D01*
X-186195Y63889D01*
X-185749Y63675D01*
X-185336Y63414D01*
X-184957Y63105D01*
X-184612Y62748D01*
X-184305Y62347D01*
X-184038Y61906D01*
X-183812Y61424D01*
X-183628Y60902D01*
X-183484Y60338D01*
X-183382Y59735D01*
X-183320Y59090D01*
X-183300Y58405D01*
X-183318Y57765D01*
X-183374Y57159D01*
X-183466Y56585D01*
X-183596Y56045D01*
X-183762Y55538D01*
X-183966Y55064D01*
X-184206Y54623D01*
X-184484Y54216D01*
X-184797Y53844D01*
X-185146Y53513D01*
X-185531Y53221D01*
X-185951Y52969D01*
X-186407Y52756D01*
X-186898Y52583D01*
X-187424Y52450D01*
X-187986Y52357D01*
G37*
G36*
X-183545Y88220D02*
X-185422Y88220D01*
X-185422Y92624D01*
X-198721Y92624D01*
X-195936Y88723D01*
X-198021Y88723D01*
X-200831Y92808D01*
X-200831Y94845D01*
X-185422Y94845D01*
X-185422Y99053D01*
X-183545Y99053D01*
X-183545Y88220D01*
G37*
G36*
X-183545Y67663D02*
X-186232Y67663D01*
X-186232Y70055D01*
X-183545Y70055D01*
X-183545Y67663D01*
G37*
G36*
X-217594Y52381D02*
X-218672Y52404D01*
X-219185Y52433D01*
X-219681Y52472D01*
X-220159Y52523D01*
X-220620Y52586D01*
X-221063Y52660D01*
X-221489Y52745D01*
X-221897Y52841D01*
X-222288Y52949D01*
X-222662Y53069D01*
X-223018Y53199D01*
X-223357Y53341D01*
X-223678Y53494D01*
X-223982Y53659D01*
X-224268Y53835D01*
X-224537Y54024D01*
X-224788Y54225D01*
X-225022Y54440D01*
X-225239Y54668D01*
X-225439Y54909D01*
X-225621Y55163D01*
X-225786Y55430D01*
X-225933Y55711D01*
X-226063Y56004D01*
X-226176Y56311D01*
X-226271Y56631D01*
X-226350Y56965D01*
X-226410Y57311D01*
X-226454Y57671D01*
X-226480Y58044D01*
X-226488Y58430D01*
X-226480Y58805D01*
X-226453Y59168D01*
X-226409Y59519D01*
X-226348Y59857D01*
X-226269Y60182D01*
X-226173Y60496D01*
X-226059Y60796D01*
X-225927Y61084D01*
X-225778Y61360D01*
X-225611Y61623D01*
X-225427Y61873D01*
X-225225Y62111D01*
X-225006Y62337D01*
X-224769Y62550D01*
X-224515Y62750D01*
X-224243Y62938D01*
X-223954Y63114D01*
X-223648Y63279D01*
X-223325Y63432D01*
X-222986Y63574D01*
X-222629Y63705D01*
X-222256Y63824D01*
X-221866Y63932D01*
X-221458Y64028D01*
X-221034Y64114D01*
X-220594Y64187D01*
X-220136Y64250D01*
X-219661Y64301D01*
X-218661Y64369D01*
X-217594Y64392D01*
X-217061Y64386D01*
X-216543Y64368D01*
X-216042Y64338D01*
X-215557Y64296D01*
X-215087Y64243D01*
X-214634Y64177D01*
X-214197Y64100D01*
X-213776Y64010D01*
X-213370Y63909D01*
X-212981Y63795D01*
X-212608Y63670D01*
X-212250Y63533D01*
X-211909Y63384D01*
X-211584Y63222D01*
X-211275Y63049D01*
X-210981Y62865D01*
X-210705Y62668D01*
X-210447Y62460D01*
X-210206Y62241D01*
X-209983Y62010D01*
X-209778Y61768D01*
X-209591Y61515D01*
X-209422Y61250D01*
X-209270Y60974D01*
X-209136Y60686D01*
X-209021Y60387D01*
X-208923Y60077D01*
X-208842Y59756D01*
X-208780Y59423D01*
X-208735Y59079D01*
X-208709Y58723D01*
X-208700Y58356D01*
X-208709Y57989D01*
X-208735Y57634D01*
X-208779Y57290D01*
X-208842Y56958D01*
X-208921Y56638D01*
X-209019Y56329D01*
X-209134Y56032D01*
X-209267Y55746D01*
X-209418Y55472D01*
X-209586Y55209D01*
X-209772Y54959D01*
X-209976Y54719D01*
X-210198Y54492D01*
X-210437Y54276D01*
X-210694Y54071D01*
X-210969Y53878D01*
X-211261Y53697D01*
X-211569Y53527D01*
X-211894Y53370D01*
X-212234Y53223D01*
X-212591Y53089D01*
X-212965Y52966D01*
X-213354Y52855D01*
X-213760Y52756D01*
X-214182Y52668D01*
X-214621Y52592D01*
X-215076Y52528D01*
X-215547Y52475D01*
X-216034Y52434D01*
X-216538Y52405D01*
X-217058Y52387D01*
X-217594Y52381D01*
G37*
%LPC*%
G36*
X-217594Y54614D02*
X-216705Y54628D01*
X-215877Y54671D01*
X-215111Y54741D01*
X-214407Y54840D01*
X-213765Y54966D01*
X-213184Y55121D01*
X-212665Y55305D01*
X-212208Y55516D01*
X-211809Y55758D01*
X-211462Y56033D01*
X-211169Y56341D01*
X-210929Y56683D01*
X-210743Y57058D01*
X-210670Y57257D01*
X-210610Y57465D01*
X-210563Y57682D01*
X-210530Y57906D01*
X-210510Y58139D01*
X-210503Y58381D01*
X-210510Y58620D01*
X-210530Y58852D01*
X-210564Y59075D01*
X-210612Y59291D01*
X-210673Y59498D01*
X-210748Y59697D01*
X-210836Y59888D01*
X-210939Y60070D01*
X-211184Y60411D01*
X-211483Y60720D01*
X-211837Y60996D01*
X-212245Y61239D01*
X-212710Y61452D01*
X-213233Y61636D01*
X-213814Y61792D01*
X-214453Y61920D01*
X-215151Y62019D01*
X-215907Y62090D01*
X-216721Y62133D01*
X-217594Y62147D01*
X-218497Y62133D01*
X-219336Y62093D01*
X-220110Y62025D01*
X-220820Y61931D01*
X-221466Y61809D01*
X-222047Y61660D01*
X-222564Y61485D01*
X-223016Y61282D01*
X-223410Y61048D01*
X-223752Y60779D01*
X-224041Y60475D01*
X-224277Y60136D01*
X-224461Y59762D01*
X-224533Y59562D01*
X-224592Y59353D01*
X-224638Y59135D01*
X-224671Y58909D01*
X-224691Y58674D01*
X-224697Y58430D01*
X-224691Y58180D01*
X-224671Y57938D01*
X-224639Y57706D01*
X-224594Y57483D01*
X-224535Y57269D01*
X-224464Y57064D01*
X-224283Y56680D01*
X-224050Y56332D01*
X-223766Y56020D01*
X-223429Y55744D01*
X-223041Y55504D01*
X-222594Y55295D01*
X-222079Y55115D01*
X-221499Y54962D01*
X-220851Y54837D01*
X-220137Y54739D01*
X-219356Y54670D01*
X-218508Y54628D01*
X-217594Y54614D01*
G37*
%LPD*%
G36*
X-212809Y87312D02*
X-213067Y89545D01*
X-212757Y89641D01*
X-212466Y89754D01*
X-212196Y89884D01*
X-211945Y90032D01*
X-211715Y90197D01*
X-211505Y90378D01*
X-211314Y90577D01*
X-211144Y90793D01*
X-210994Y91027D01*
X-210864Y91277D01*
X-210753Y91544D01*
X-210663Y91829D01*
X-210593Y92131D01*
X-210543Y92450D01*
X-210513Y92786D01*
X-210503Y93140D01*
X-210520Y93572D01*
X-210570Y93981D01*
X-210654Y94365D01*
X-210771Y94725D01*
X-210922Y95061D01*
X-211107Y95373D01*
X-211325Y95661D01*
X-211577Y95924D01*
X-211857Y96160D01*
X-212163Y96365D01*
X-212495Y96537D01*
X-212851Y96679D01*
X-213232Y96789D01*
X-213639Y96868D01*
X-214070Y96915D01*
X-214527Y96930D01*
X-214925Y96915D01*
X-215304Y96867D01*
X-215663Y96788D01*
X-216002Y96677D01*
X-216322Y96535D01*
X-216623Y96361D01*
X-216903Y96155D01*
X-217165Y95918D01*
X-217400Y95654D01*
X-217605Y95368D01*
X-217778Y95060D01*
X-217919Y94730D01*
X-218029Y94378D01*
X-218108Y94003D01*
X-218155Y93607D01*
X-218171Y93189D01*
X-218153Y92749D01*
X-218100Y92324D01*
X-218012Y91914D01*
X-217888Y91520D01*
X-217723Y91134D01*
X-217508Y90747D01*
X-217244Y90361D01*
X-216932Y89974D01*
X-216932Y87815D01*
X-226231Y88392D01*
X-226231Y98219D01*
X-224354Y98219D01*
X-224354Y90404D01*
X-218870Y90073D01*
X-219129Y90442D01*
X-219353Y90834D01*
X-219543Y91247D01*
X-219698Y91683D01*
X-219819Y92140D01*
X-219905Y92619D01*
X-219957Y93120D01*
X-219974Y93643D01*
X-219951Y94264D01*
X-219880Y94854D01*
X-219764Y95411D01*
X-219600Y95935D01*
X-219389Y96427D01*
X-219132Y96887D01*
X-218828Y97314D01*
X-218477Y97709D01*
X-218089Y98065D01*
X-217672Y98372D01*
X-217227Y98633D01*
X-216754Y98846D01*
X-216252Y99011D01*
X-215722Y99130D01*
X-215163Y99201D01*
X-214576Y99225D01*
X-214239Y99218D01*
X-213910Y99199D01*
X-213591Y99167D01*
X-213281Y99123D01*
X-212980Y99066D01*
X-212688Y98996D01*
X-212405Y98913D01*
X-212132Y98818D01*
X-211612Y98590D01*
X-211128Y98310D01*
X-210681Y97980D01*
X-210270Y97599D01*
X-209902Y97173D01*
X-209583Y96708D01*
X-209313Y96203D01*
X-209092Y95659D01*
X-208920Y95076D01*
X-208853Y94770D01*
X-208798Y94453D01*
X-208755Y94127D01*
X-208724Y93792D01*
X-208706Y93446D01*
X-208700Y93090D01*
X-208716Y92501D01*
X-208766Y91940D01*
X-208848Y91409D01*
X-208963Y90907D01*
X-209112Y90434D01*
X-209293Y89990D01*
X-209507Y89575D01*
X-209755Y89189D01*
X-210033Y88835D01*
X-210341Y88515D01*
X-210679Y88229D01*
X-211046Y87978D01*
X-211443Y87760D01*
X-211869Y87577D01*
X-212324Y87427D01*
X-212809Y87312D01*
G37*
G36*
X-208945Y74251D02*
X-210822Y74251D01*
X-210822Y78656D01*
X-224121Y78656D01*
X-221336Y74754D01*
X-223421Y74754D01*
X-226231Y78840D01*
X-226231Y80876D01*
X-210822Y80876D01*
X-210822Y85084D01*
X-208945Y85084D01*
X-208945Y74251D01*
G37*
G36*
X-208945Y67663D02*
X-211632Y67663D01*
X-211632Y70055D01*
X-208945Y70055D01*
X-208945Y67663D01*
G37*
G36*
X-56172Y-33558D02*
X-56689Y-33556D01*
X-57191Y-33541D01*
X-57678Y-33513D01*
X-58148Y-33474D01*
X-58603Y-33422D01*
X-59043Y-33357D01*
X-59467Y-33280D01*
X-59875Y-33191D01*
X-60267Y-33089D01*
X-60644Y-32975D01*
X-61005Y-32848D01*
X-61351Y-32709D01*
X-61680Y-32558D01*
X-61995Y-32394D01*
X-62293Y-32218D01*
X-62575Y-32030D01*
X-62840Y-31829D01*
X-63087Y-31617D01*
X-63317Y-31393D01*
X-63529Y-31158D01*
X-63723Y-30910D01*
X-63900Y-30650D01*
X-64060Y-30379D01*
X-64202Y-30095D01*
X-64327Y-29800D01*
X-64434Y-29493D01*
X-64524Y-29174D01*
X-64596Y-28843D01*
X-64651Y-28500D01*
X-64688Y-28146D01*
X-64708Y-27779D01*
X-64710Y-27412D01*
X-64694Y-27056D01*
X-64660Y-26711D01*
X-64608Y-26378D01*
X-64537Y-26055D01*
X-64449Y-25743D01*
X-64343Y-25443D01*
X-64218Y-25153D01*
X-64076Y-24875D01*
X-63915Y-24608D01*
X-63736Y-24351D01*
X-63540Y-24106D01*
X-63325Y-23872D01*
X-63092Y-23649D01*
X-62841Y-23437D01*
X-62572Y-23236D01*
X-62286Y-23046D01*
X-61983Y-22867D01*
X-61663Y-22700D01*
X-61327Y-22544D01*
X-60974Y-22399D01*
X-60605Y-22265D01*
X-60218Y-22142D01*
X-59816Y-22031D01*
X-59396Y-21931D01*
X-58960Y-21842D01*
X-58508Y-21764D01*
X-58038Y-21698D01*
X-57552Y-21642D01*
X-57050Y-21598D01*
X-56531Y-21565D01*
X-55995Y-21543D01*
X-54916Y-21534D01*
X-54402Y-21547D01*
X-53906Y-21572D01*
X-53426Y-21609D01*
X-52964Y-21658D01*
X-52519Y-21719D01*
X-52091Y-21791D01*
X-51679Y-21875D01*
X-51285Y-21972D01*
X-50909Y-22080D01*
X-50549Y-22200D01*
X-50206Y-22332D01*
X-49881Y-22475D01*
X-49572Y-22631D01*
X-49281Y-22798D01*
X-49006Y-22979D01*
X-48749Y-23173D01*
X-48508Y-23380D01*
X-48285Y-23602D01*
X-48078Y-23837D01*
X-47889Y-24085D01*
X-47716Y-24348D01*
X-47560Y-24624D01*
X-47422Y-24913D01*
X-47300Y-25217D01*
X-47195Y-25534D01*
X-47107Y-25865D01*
X-47036Y-26209D01*
X-46982Y-26567D01*
X-46945Y-26939D01*
X-46925Y-27325D01*
X-46922Y-27701D01*
X-46938Y-28064D01*
X-46971Y-28416D01*
X-47023Y-28756D01*
X-47092Y-29084D01*
X-47179Y-29399D01*
X-47284Y-29703D01*
X-47407Y-29995D01*
X-47548Y-30275D01*
X-47707Y-30543D01*
X-47883Y-30798D01*
X-48078Y-31042D01*
X-48290Y-31274D01*
X-48521Y-31494D01*
X-48769Y-31702D01*
X-49035Y-31898D01*
X-49319Y-32083D01*
X-49620Y-32256D01*
X-49938Y-32419D01*
X-50273Y-32571D01*
X-50626Y-32712D01*
X-50995Y-32843D01*
X-51382Y-32962D01*
X-51786Y-33071D01*
X-52208Y-33168D01*
X-52646Y-33255D01*
X-53102Y-33331D01*
X-53575Y-33396D01*
X-54572Y-33494D01*
X-55638Y-33548D01*
X-56172Y-33558D01*
G37*
%LPC*%
G36*
X-56578Y-31316D02*
X-55705Y-31304D01*
X-54803Y-31264D01*
X-53965Y-31199D01*
X-53193Y-31108D01*
X-52486Y-30993D01*
X-51845Y-30852D01*
X-51268Y-30686D01*
X-50757Y-30495D01*
X-50311Y-30279D01*
X-49924Y-30034D01*
X-49590Y-29755D01*
X-49311Y-29442D01*
X-49085Y-29097D01*
X-48912Y-28717D01*
X-48846Y-28515D01*
X-48793Y-28304D01*
X-48753Y-28085D01*
X-48727Y-27858D01*
X-48715Y-27622D01*
X-48715Y-27378D01*
X-48729Y-27128D01*
X-48756Y-26888D01*
X-48795Y-26657D01*
X-48847Y-26435D01*
X-48911Y-26223D01*
X-48989Y-26020D01*
X-49181Y-25641D01*
X-49424Y-25301D01*
X-49718Y-24997D01*
X-50062Y-24731D01*
X-50457Y-24503D01*
X-50911Y-24307D01*
X-51430Y-24142D01*
X-52015Y-24007D01*
X-52666Y-23901D01*
X-53383Y-23825D01*
X-54166Y-23778D01*
X-55014Y-23762D01*
X-55928Y-23775D01*
X-56817Y-23816D01*
X-57643Y-23882D01*
X-58406Y-23976D01*
X-59107Y-24095D01*
X-59745Y-24241D01*
X-60321Y-24413D01*
X-60834Y-24611D01*
X-61285Y-24836D01*
X-61677Y-25090D01*
X-62015Y-25375D01*
X-62299Y-25692D01*
X-62529Y-26041D01*
X-62704Y-26421D01*
X-62771Y-26622D01*
X-62825Y-26832D01*
X-62865Y-27050D01*
X-62892Y-27275D01*
X-62905Y-27509D01*
X-62905Y-27750D01*
X-62891Y-27990D01*
X-62863Y-28220D01*
X-62823Y-28443D01*
X-62769Y-28657D01*
X-62701Y-28862D01*
X-62621Y-29059D01*
X-62527Y-29247D01*
X-62419Y-29426D01*
X-62164Y-29760D01*
X-61856Y-30059D01*
X-61494Y-30325D01*
X-61078Y-30556D01*
X-60608Y-30755D01*
X-60080Y-30923D01*
X-59494Y-31062D01*
X-58851Y-31171D01*
X-58151Y-31249D01*
X-57393Y-31298D01*
X-56578Y-31316D01*
G37*
%LPD*%
G36*
X-58727Y-68445D02*
X-59014Y-68436D01*
X-59565Y-68381D01*
X-60084Y-68278D01*
X-60571Y-68126D01*
X-61027Y-67925D01*
X-61451Y-67676D01*
X-61844Y-67379D01*
X-62205Y-67033D01*
X-62530Y-66641D01*
X-62815Y-66207D01*
X-63059Y-65730D01*
X-63263Y-65211D01*
X-63426Y-64649D01*
X-63548Y-64044D01*
X-63630Y-63397D01*
X-63671Y-62707D01*
X-63671Y-62032D01*
X-63628Y-61394D01*
X-63543Y-60793D01*
X-63417Y-60228D01*
X-63248Y-59699D01*
X-63036Y-59207D01*
X-62783Y-58752D01*
X-62488Y-58333D01*
X-62153Y-57956D01*
X-61783Y-57627D01*
X-61377Y-57346D01*
X-60935Y-57113D01*
X-60456Y-56928D01*
X-59942Y-56790D01*
X-59672Y-56740D01*
X-59392Y-56701D01*
X-59104Y-56674D01*
X-58806Y-56659D01*
X-58391Y-56662D01*
X-57992Y-56695D01*
X-57609Y-56760D01*
X-57242Y-56855D01*
X-56891Y-56981D01*
X-56555Y-57137D01*
X-56236Y-57325D01*
X-55933Y-57543D01*
X-55651Y-57786D01*
X-55398Y-58046D01*
X-55172Y-58324D01*
X-54974Y-58619D01*
X-54804Y-58933D01*
X-54662Y-59264D01*
X-54548Y-59612D01*
X-54461Y-59979D01*
X-54412Y-59977D01*
X-54328Y-59631D01*
X-54218Y-59303D01*
X-54084Y-58993D01*
X-53925Y-58700D01*
X-53742Y-58426D01*
X-53534Y-58169D01*
X-53301Y-57930D01*
X-53043Y-57709D01*
X-52767Y-57510D01*
X-52479Y-57335D01*
X-52177Y-57186D01*
X-51863Y-57062D01*
X-51536Y-56963D01*
X-51197Y-56889D01*
X-50845Y-56840D01*
X-50480Y-56817D01*
X-49998Y-56826D01*
X-49537Y-56881D01*
X-49099Y-56984D01*
X-48682Y-57133D01*
X-48288Y-57329D01*
X-47915Y-57572D01*
X-47564Y-57863D01*
X-47236Y-58199D01*
X-46937Y-58576D01*
X-46676Y-58986D01*
X-46452Y-59428D01*
X-46265Y-59903D01*
X-46115Y-60410D01*
X-46004Y-60951D01*
X-45929Y-61524D01*
X-45892Y-62130D01*
X-45892Y-62751D01*
X-45931Y-63340D01*
X-46009Y-63897D01*
X-46125Y-64421D01*
X-46279Y-64913D01*
X-46472Y-65372D01*
X-46704Y-65799D01*
X-46974Y-66194D01*
X-47277Y-66550D01*
X-47609Y-66860D01*
X-47968Y-67125D01*
X-48354Y-67344D01*
X-48769Y-67518D01*
X-49211Y-67647D01*
X-49682Y-67730D01*
X-50180Y-67768D01*
X-50545Y-67766D01*
X-50899Y-67738D01*
X-51243Y-67684D01*
X-51575Y-67604D01*
X-51896Y-67498D01*
X-52205Y-67366D01*
X-52504Y-67207D01*
X-52792Y-67023D01*
X-53061Y-66816D01*
X-53305Y-66590D01*
X-53327Y-66566D01*
X-53525Y-66344D01*
X-53719Y-66078D01*
X-53888Y-65793D01*
X-54032Y-65488D01*
X-54150Y-65164D01*
X-54244Y-64820D01*
X-54293Y-64822D01*
X-54362Y-65226D01*
X-54459Y-65609D01*
X-54583Y-65969D01*
X-54735Y-66308D01*
X-54915Y-66624D01*
X-55123Y-66917D01*
X-55358Y-67189D01*
X-55569Y-67390D01*
X-55621Y-67439D01*
X-55907Y-67663D01*
X-56211Y-67859D01*
X-56535Y-68027D01*
X-56877Y-68166D01*
X-57238Y-68278D01*
X-57617Y-68361D01*
X-58015Y-68416D01*
X-58432Y-68443D01*
X-58727Y-68445D01*
G37*
%LPC*%
G36*
X-58292Y-66143D02*
X-57903Y-66117D01*
X-57540Y-66061D01*
X-57202Y-65976D01*
X-56890Y-65862D01*
X-56604Y-65719D01*
X-56343Y-65547D01*
X-56108Y-65345D01*
X-55898Y-65115D01*
X-55715Y-64858D01*
X-55557Y-64578D01*
X-55426Y-64274D01*
X-55321Y-63947D01*
X-55242Y-63597D01*
X-55189Y-63223D01*
X-55163Y-62826D01*
X-55162Y-62405D01*
X-55188Y-61997D01*
X-55241Y-61613D01*
X-55320Y-61252D01*
X-55426Y-60916D01*
X-55559Y-60603D01*
X-55718Y-60314D01*
X-55904Y-60048D01*
X-56117Y-59807D01*
X-56353Y-59592D01*
X-56609Y-59408D01*
X-56884Y-59254D01*
X-57179Y-59130D01*
X-57493Y-59036D01*
X-57828Y-58972D01*
X-58181Y-58938D01*
X-58555Y-58934D01*
X-58986Y-58961D01*
X-59389Y-59016D01*
X-59764Y-59098D01*
X-60109Y-59208D01*
X-60426Y-59346D01*
X-60714Y-59511D01*
X-60973Y-59704D01*
X-61204Y-59924D01*
X-61406Y-60172D01*
X-61579Y-60448D01*
X-61724Y-60751D01*
X-61839Y-61082D01*
X-61926Y-61441D01*
X-61985Y-61827D01*
X-62014Y-62241D01*
X-62015Y-62682D01*
X-61989Y-63118D01*
X-61936Y-63524D01*
X-61857Y-63901D01*
X-61752Y-64248D01*
X-61621Y-64566D01*
X-61464Y-64854D01*
X-61280Y-65113D01*
X-61071Y-65342D01*
X-60833Y-65542D01*
X-60563Y-65714D01*
X-60263Y-65857D01*
X-59931Y-65971D01*
X-59568Y-66057D01*
X-59174Y-66114D01*
X-58748Y-66143D01*
X-58292Y-66143D01*
G37*
G36*
X-50370Y-65479D02*
X-50016Y-65455D01*
X-49685Y-65408D01*
X-49378Y-65336D01*
X-49094Y-65240D01*
X-48834Y-65119D01*
X-48598Y-64974D01*
X-48385Y-64804D01*
X-48196Y-64610D01*
X-48031Y-64392D01*
X-47889Y-64149D01*
X-47771Y-63881D01*
X-47677Y-63590D01*
X-47606Y-63274D01*
X-47559Y-62933D01*
X-47535Y-62568D01*
X-47535Y-62179D01*
X-47558Y-61801D01*
X-47603Y-61448D01*
X-47670Y-61118D01*
X-47760Y-60812D01*
X-47872Y-60530D01*
X-48006Y-60272D01*
X-48162Y-60038D01*
X-48341Y-59828D01*
X-48542Y-59642D01*
X-48765Y-59483D01*
X-49010Y-59350D01*
X-49276Y-59243D01*
X-49564Y-59163D01*
X-49875Y-59108D01*
X-50207Y-59080D01*
X-50560Y-59077D01*
X-50920Y-59101D01*
X-51257Y-59151D01*
X-51571Y-59226D01*
X-51862Y-59326D01*
X-52130Y-59452D01*
X-52376Y-59604D01*
X-52598Y-59782D01*
X-52798Y-59985D01*
X-52974Y-60211D01*
X-53125Y-60458D01*
X-53251Y-60726D01*
X-53352Y-61015D01*
X-53428Y-61325D01*
X-53479Y-61656D01*
X-53505Y-62008D01*
X-53506Y-62381D01*
X-53484Y-62758D01*
X-53440Y-63111D01*
X-53374Y-63441D01*
X-53286Y-63747D01*
X-53177Y-64029D01*
X-53046Y-64287D01*
X-52893Y-64522D01*
X-52718Y-64732D01*
X-52520Y-64917D01*
X-52294Y-65077D01*
X-52041Y-65209D01*
X-51761Y-65316D01*
X-51454Y-65396D01*
X-51120Y-65450D01*
X-50759Y-65477D01*
X-50370Y-65479D01*
G37*
%LPD*%
G36*
X-63670Y-54488D02*
X-63991Y-43660D01*
X-62115Y-43604D01*
X-61984Y-48007D01*
X-48692Y-47612D01*
X-51591Y-43795D01*
X-49506Y-43733D01*
X-46577Y-47734D01*
X-46516Y-49769D01*
X-61918Y-50226D01*
X-61794Y-54432D01*
X-63670Y-54488D01*
G37*
G36*
X-64116Y-39466D02*
X-64187Y-37075D01*
X-61501Y-36995D01*
X-61430Y-39386D01*
X-64116Y-39466D01*
G37*
G36*
X-238259Y560007D02*
X-239976Y560007D01*
X-251631Y567920D01*
X-251631Y570239D01*
X-240001Y570239D01*
X-240001Y572668D01*
X-238259Y572668D01*
X-238259Y570239D01*
X-234345Y570239D01*
X-234345Y568153D01*
X-238259Y568153D01*
X-238259Y560007D01*
G37*
%LPC*%
G36*
X-240001Y562044D02*
X-240001Y568153D01*
X-249140Y568153D01*
X-248490Y567810D01*
X-247999Y567531D01*
X-247680Y567331D01*
X-241154Y562903D01*
X-240246Y562240D01*
X-240001Y562044D01*
G37*
%LPD*%
G36*
X-249754Y581656D02*
X-251631Y581656D01*
X-251631Y593078D01*
X-249840Y593078D01*
X-247925Y591850D01*
X-246230Y590818D01*
X-244754Y589979D01*
X-244098Y589633D01*
X-243497Y589336D01*
X-242354Y588824D01*
X-241785Y588594D01*
X-241218Y588381D01*
X-240653Y588185D01*
X-240090Y588005D01*
X-239529Y587843D01*
X-238970Y587698D01*
X-238409Y587570D01*
X-237844Y587460D01*
X-237273Y587366D01*
X-236697Y587289D01*
X-236117Y587229D01*
X-235531Y587187D01*
X-234941Y587161D01*
X-234345Y587152D01*
X-234345Y584846D01*
X-235179Y584868D01*
X-236023Y584934D01*
X-236878Y585044D01*
X-237745Y585197D01*
X-238622Y585395D01*
X-239510Y585636D01*
X-240409Y585922D01*
X-241319Y586251D01*
X-242252Y586631D01*
X-243220Y587071D01*
X-244222Y587569D01*
X-245259Y588126D01*
X-246331Y588742D01*
X-247437Y589417D01*
X-248578Y590151D01*
X-249754Y590943D01*
X-249754Y581656D01*
G37*
G36*
X-234345Y575694D02*
X-237032Y575694D01*
X-237032Y578086D01*
X-234345Y578086D01*
X-234345Y575694D01*
G37*
G36*
X417406Y1147121D02*
X416328Y1147144D01*
X415815Y1147173D01*
X415319Y1147212D01*
X414841Y1147263D01*
X414380Y1147326D01*
X413937Y1147400D01*
X413511Y1147485D01*
X413103Y1147581D01*
X412712Y1147689D01*
X412338Y1147809D01*
X411982Y1147939D01*
X411643Y1148081D01*
X411322Y1148234D01*
X411019Y1148399D01*
X410732Y1148575D01*
X410463Y1148764D01*
X410212Y1148965D01*
X409978Y1149180D01*
X409761Y1149408D01*
X409561Y1149649D01*
X409379Y1149903D01*
X409214Y1150170D01*
X409067Y1150451D01*
X408937Y1150744D01*
X408824Y1151051D01*
X408729Y1151371D01*
X408650Y1151705D01*
X408590Y1152051D01*
X408546Y1152411D01*
X408520Y1152784D01*
X408512Y1153170D01*
X408520Y1153545D01*
X408547Y1153908D01*
X408591Y1154259D01*
X408652Y1154597D01*
X408731Y1154922D01*
X408827Y1155236D01*
X408941Y1155536D01*
X409073Y1155824D01*
X409222Y1156100D01*
X409389Y1156363D01*
X409573Y1156613D01*
X409775Y1156851D01*
X409994Y1157077D01*
X410231Y1157290D01*
X410485Y1157490D01*
X410757Y1157678D01*
X411046Y1157854D01*
X411352Y1158019D01*
X411675Y1158172D01*
X412014Y1158314D01*
X412371Y1158445D01*
X412744Y1158564D01*
X413134Y1158672D01*
X413542Y1158768D01*
X413966Y1158854D01*
X414407Y1158927D01*
X414864Y1158990D01*
X415339Y1159041D01*
X416339Y1159109D01*
X417406Y1159132D01*
X417939Y1159126D01*
X418457Y1159108D01*
X418958Y1159078D01*
X419443Y1159036D01*
X419913Y1158983D01*
X420366Y1158917D01*
X420803Y1158840D01*
X421224Y1158750D01*
X421630Y1158649D01*
X422019Y1158535D01*
X422392Y1158410D01*
X422750Y1158273D01*
X423091Y1158124D01*
X423416Y1157962D01*
X423725Y1157789D01*
X424019Y1157605D01*
X424295Y1157408D01*
X424553Y1157200D01*
X424794Y1156981D01*
X425017Y1156750D01*
X425222Y1156508D01*
X425409Y1156255D01*
X425578Y1155990D01*
X425730Y1155714D01*
X425864Y1155426D01*
X425980Y1155127D01*
X426078Y1154817D01*
X426158Y1154496D01*
X426220Y1154163D01*
X426265Y1153819D01*
X426291Y1153463D01*
X426300Y1153096D01*
X426291Y1152729D01*
X426265Y1152374D01*
X426221Y1152030D01*
X426159Y1151698D01*
X426079Y1151378D01*
X425981Y1151069D01*
X425866Y1150772D01*
X425733Y1150486D01*
X425582Y1150212D01*
X425414Y1149949D01*
X425228Y1149699D01*
X425024Y1149459D01*
X424802Y1149232D01*
X424563Y1149016D01*
X424306Y1148811D01*
X424031Y1148618D01*
X423739Y1148437D01*
X423431Y1148267D01*
X423106Y1148110D01*
X422766Y1147963D01*
X422409Y1147829D01*
X422035Y1147706D01*
X421646Y1147595D01*
X421240Y1147496D01*
X420818Y1147408D01*
X420379Y1147332D01*
X419924Y1147268D01*
X419453Y1147215D01*
X418966Y1147174D01*
X418462Y1147145D01*
X417942Y1147127D01*
X417406Y1147121D01*
G37*
%LPC*%
G36*
X417406Y1149354D02*
X418295Y1149368D01*
X419123Y1149411D01*
X419889Y1149481D01*
X420593Y1149580D01*
X421235Y1149706D01*
X421816Y1149861D01*
X422335Y1150045D01*
X422792Y1150256D01*
X423191Y1150498D01*
X423538Y1150773D01*
X423831Y1151081D01*
X424071Y1151423D01*
X424257Y1151798D01*
X424330Y1151997D01*
X424390Y1152205D01*
X424437Y1152422D01*
X424470Y1152646D01*
X424490Y1152879D01*
X424497Y1153121D01*
X424490Y1153360D01*
X424470Y1153592D01*
X424436Y1153815D01*
X424388Y1154031D01*
X424327Y1154238D01*
X424252Y1154437D01*
X424164Y1154628D01*
X424061Y1154810D01*
X423816Y1155151D01*
X423517Y1155460D01*
X423163Y1155736D01*
X422755Y1155979D01*
X422290Y1156192D01*
X421767Y1156376D01*
X421186Y1156532D01*
X420547Y1156660D01*
X419849Y1156759D01*
X419093Y1156830D01*
X418279Y1156873D01*
X417406Y1156887D01*
X416503Y1156873D01*
X415664Y1156833D01*
X414890Y1156765D01*
X414180Y1156671D01*
X413534Y1156549D01*
X412953Y1156400D01*
X412436Y1156225D01*
X411984Y1156022D01*
X411590Y1155788D01*
X411248Y1155519D01*
X410959Y1155215D01*
X410723Y1154876D01*
X410539Y1154502D01*
X410467Y1154302D01*
X410408Y1154093D01*
X410362Y1153875D01*
X410329Y1153649D01*
X410309Y1153414D01*
X410303Y1153170D01*
X410309Y1152920D01*
X410329Y1152678D01*
X410361Y1152446D01*
X410406Y1152223D01*
X410465Y1152009D01*
X410536Y1151804D01*
X410717Y1151420D01*
X410950Y1151072D01*
X411234Y1150760D01*
X411571Y1150484D01*
X411959Y1150244D01*
X412406Y1150035D01*
X412921Y1149855D01*
X413501Y1149702D01*
X414149Y1149577D01*
X414863Y1149479D01*
X415644Y1149410D01*
X416492Y1149368D01*
X417406Y1149354D01*
G37*
%LPD*%
G36*
X152176Y-70455D02*
X149870Y-70455D01*
X149892Y-69621D01*
X149958Y-68777D01*
X150067Y-67922D01*
X150221Y-67055D01*
X150419Y-66178D01*
X150660Y-65290D01*
X150945Y-64391D01*
X151275Y-63481D01*
X151655Y-62548D01*
X152095Y-61580D01*
X152593Y-60578D01*
X153150Y-59541D01*
X153766Y-58469D01*
X154441Y-57363D01*
X155175Y-56222D01*
X155967Y-55046D01*
X146680Y-55046D01*
X146680Y-53169D01*
X158102Y-53169D01*
X158102Y-54960D01*
X156874Y-56875D01*
X155841Y-58570D01*
X155003Y-60046D01*
X154657Y-60702D01*
X154360Y-61303D01*
X153848Y-62446D01*
X153618Y-63015D01*
X153405Y-63582D01*
X153208Y-64147D01*
X153029Y-64710D01*
X152867Y-65271D01*
X152722Y-65830D01*
X152594Y-66391D01*
X152483Y-66956D01*
X152389Y-67527D01*
X152313Y-68103D01*
X152253Y-68683D01*
X152210Y-69269D01*
X152185Y-69859D01*
X152176Y-70455D01*
G37*
D10*
X-165100Y1181100D02*
X-248100Y1181100D01*
X-248100Y-12700D02*
X-165100Y-12700D01*
X-228600Y-12050D02*
X-228600Y1180450D01*
X-231792Y1155100D01*
X-225408Y1155100D01*
X-228600Y1180450D01*
X-229900Y1155100D01*
X-227300Y1155100D02*
X-228600Y1180450D01*
X-231200Y1155100D01*
X-226000Y1155100D02*
X-228600Y1180450D01*
X-231792Y13300D02*
X-228600Y-12050D01*
X-231792Y13300D02*
X-225408Y13300D01*
X-228600Y-12050D01*
X-229900Y13300D01*
X-227300Y13300D02*
X-228600Y-12050D01*
X-231200Y13300D01*
X-226000Y13300D02*
X-228600Y-12050D01*
X384810Y1120140D02*
X451300Y1120140D01*
X451300Y1087120D02*
X384810Y1087120D01*
X431800Y1086470D02*
X431800Y1035120D01*
X431800Y1120790D02*
X431800Y1195679D01*
X428608Y1146140D02*
X431800Y1120790D01*
X428608Y1146140D02*
X434992Y1146140D01*
X431800Y1120790D01*
X430500Y1146140D01*
X433100Y1146140D02*
X431800Y1120790D01*
X429200Y1146140D01*
X434400Y1146140D02*
X431800Y1120790D01*
X431800Y1086470D02*
X428608Y1061120D01*
X434992Y1061120D01*
X431800Y1086470D01*
X430500Y1061120D01*
X433100Y1061120D02*
X431800Y1086470D01*
X429200Y1061120D01*
X434400Y1061120D02*
X431800Y1086470D01*
X386080Y801370D02*
X310700Y801370D01*
X310700Y722630D02*
X386080Y722630D01*
X330200Y723280D02*
X330200Y800720D01*
X327008Y775370D01*
X333392Y775370D01*
X330200Y800720D01*
X328900Y775370D01*
X331500Y775370D02*
X330200Y800720D01*
X327600Y775370D01*
X332800Y775370D02*
X330200Y800720D01*
X327008Y748630D02*
X330200Y723280D01*
X327008Y748630D02*
X333392Y748630D01*
X330200Y723280D01*
X328900Y748630D01*
X331500Y748630D02*
X330200Y723280D01*
X327600Y748630D01*
X332800Y748630D02*
X330200Y723280D01*
X-139700Y25400D02*
X-184600Y25400D01*
X-184600Y1143000D02*
X-139700Y1143000D01*
X-165100Y1142350D02*
X-165100Y26050D01*
X-168292Y51400D01*
X-161908Y51400D01*
X-165100Y26050D01*
X-166400Y51400D01*
X-163800Y51400D02*
X-165100Y26050D01*
X-167700Y51400D01*
X-162500Y51400D02*
X-165100Y26050D01*
X-168292Y1117000D02*
X-165100Y1142350D01*
X-168292Y1117000D02*
X-161908Y1117000D01*
X-165100Y1142350D01*
X-166400Y1117000D01*
X-163800Y1117000D02*
X-165100Y1142350D01*
X-167700Y1117000D01*
X-162500Y1117000D02*
X-165100Y1142350D01*
X-139700Y587392D02*
X-139700Y581008D01*
X-142892Y584200D02*
X-136508Y584200D01*
X-114300Y0D02*
X-114300Y-95700D01*
X384810Y-95700D02*
X384810Y0D01*
X384160Y-76200D02*
X-113650Y-76200D01*
X-88300Y-73008D01*
X-88300Y-79392D01*
X-113650Y-76200D01*
X-88300Y-74900D01*
X-88300Y-77500D02*
X-113650Y-76200D01*
X-88300Y-73600D01*
X-88300Y-78800D02*
X-113650Y-76200D01*
X358810Y-73008D02*
X384160Y-76200D01*
X358810Y-73008D02*
X358810Y-79392D01*
X384160Y-76200D01*
X358810Y-74900D01*
X358810Y-77500D02*
X384160Y-76200D01*
X358810Y-73600D01*
X358810Y-78800D02*
X384160Y-76200D01*
X135255Y-3192D02*
X135255Y3192D01*
X132063Y0D02*
X138447Y0D01*
X-152400Y-12700D02*
X-197300Y-12700D01*
X-197300Y25400D02*
X-152400Y25400D01*
X-177800Y-13350D02*
X-177800Y-64700D01*
X-177800Y26050D02*
X-177800Y100939D01*
X-177800Y-13350D02*
X-180992Y-38700D01*
X-174608Y-38700D01*
X-177800Y-13350D01*
X-179100Y-38700D01*
X-176500Y-38700D02*
X-177800Y-13350D01*
X-180400Y-38700D01*
X-175200Y-38700D02*
X-177800Y-13350D01*
X-177800Y26050D02*
X-180992Y51400D01*
X-174608Y51400D01*
X-177800Y26050D01*
X-179100Y51400D01*
X-176500Y51400D02*
X-177800Y26050D01*
X-180400Y51400D01*
X-175200Y51400D02*
X-177800Y26050D01*
X-152400Y9542D02*
X-152400Y3158D01*
X-155592Y6350D02*
X-149208Y6350D01*
X-152400Y-12700D02*
X-222700Y-12700D01*
X-222700Y25400D02*
X-152400Y25400D01*
X-203200Y-13350D02*
X-203200Y-64700D01*
X-203200Y26050D02*
X-203200Y100939D01*
X-203200Y-13350D02*
X-206392Y-38700D01*
X-200008Y-38700D01*
X-203200Y-13350D01*
X-204500Y-38700D01*
X-201900Y-38700D02*
X-203200Y-13350D01*
X-205800Y-38700D01*
X-200600Y-38700D02*
X-203200Y-13350D01*
X-203200Y26050D02*
X-206392Y51400D01*
X-200008Y51400D01*
X-203200Y26050D01*
X-204500Y51400D01*
X-201900Y51400D02*
X-203200Y26050D01*
X-205800Y51400D01*
X-200600Y51400D02*
X-203200Y26050D01*
X-152400Y9542D02*
X-152400Y3158D01*
X-155592Y6350D02*
X-149208Y6350D01*
X-113030Y3810D02*
X-51662Y5563D01*
X-52932Y50013D02*
X-114300Y48260D01*
X-72443Y50106D02*
X-73909Y101435D01*
X-71136Y4357D02*
X-68997Y-70501D01*
X-67221Y-20892D02*
X-71136Y4357D01*
X-67221Y-20892D02*
X-73603Y-21074D01*
X-71136Y4357D01*
X-69112Y-20946D01*
X-71711Y-21020D02*
X-71136Y4357D01*
X-67813Y-20909D01*
X-73011Y-21057D02*
X-71136Y4357D01*
X-72443Y50106D02*
X-69976Y75537D01*
X-76358Y75355D01*
X-72443Y50106D01*
X-71867Y75483D01*
X-74466Y75409D02*
X-72443Y50106D01*
X-70568Y75520D01*
X-75766Y75372D02*
X-72443Y50106D01*
X-113665Y29227D02*
X-113665Y22843D01*
X-116857Y26035D02*
X-110473Y26035D01*
D11*
X339090Y227740D03*
X339090Y183740D03*
D12*
X374040Y127170D02*
X374040Y78570D01*
X348440Y78570D01*
X348440Y127170D01*
X374040Y127170D01*
X374040Y84650D02*
X348440Y84650D01*
X348440Y90730D02*
X374040Y90730D01*
X374040Y96810D02*
X348440Y96810D01*
X348440Y102890D02*
X374040Y102890D01*
X374040Y108970D02*
X348440Y108970D01*
X348440Y115050D02*
X374040Y115050D01*
X374040Y121130D02*
X348440Y121130D01*
X439040Y127170D02*
X439040Y78570D01*
X413440Y78570D01*
X413440Y127170D01*
X439040Y127170D01*
X439040Y84650D02*
X413440Y84650D01*
X413440Y90730D02*
X439040Y90730D01*
X439040Y96810D02*
X413440Y96810D01*
X413440Y102890D02*
X439040Y102890D01*
X439040Y108970D02*
X413440Y108970D01*
X413440Y115050D02*
X439040Y115050D01*
X439040Y121130D02*
X413440Y121130D01*
D13*
X455000Y303530D03*
X434000Y303530D03*
D14*
X723900Y225670D03*
X723900Y208670D03*
X762000Y242180D03*
X762000Y225180D03*
X762000Y287900D03*
X762000Y270900D03*
D15*
X436000Y323850D03*
X453000Y323850D03*
D16*
X533240Y203200D03*
D17*
X439928Y237236D03*
X439928Y220218D03*
X439928Y203200D03*
X439928Y186182D03*
X439928Y169164D03*
D18*
X392540Y190500D03*
X374540Y190500D03*
X392540Y165100D03*
X374540Y165100D03*
X392540Y215900D03*
X374540Y215900D03*
X392540Y241300D03*
X374540Y241300D03*
D19*
X843280Y111650D03*
X843280Y129650D03*
D14*
X822960Y181220D03*
X822960Y164220D03*
D20*
X-23730Y1325280D03*
X26670Y1325280D03*
X77070Y1325280D03*
X-23730Y1250280D03*
X26670Y1250280D03*
X77070Y1250280D03*
X-176330Y1250280D03*
X-176330Y1325280D03*
X-176330Y1287780D03*
D21*
X759714Y166878D03*
X759714Y157480D03*
X759714Y148082D03*
X787146Y148082D03*
X787146Y166878D03*
D15*
X1062600Y406400D03*
X1045600Y406400D03*
X1185300Y-25400D03*
X1202300Y-25400D03*
X1062600Y431800D03*
X1045600Y431800D03*
D14*
X1308100Y982100D03*
X1308100Y999100D03*
X1079500Y664600D03*
X1079500Y681600D03*
X1282700Y982100D03*
X1282700Y999100D03*
D15*
X33900Y762000D03*
X16900Y762000D03*
X211700Y596900D03*
X194700Y596900D03*
X211700Y825500D03*
X194700Y825500D03*
D14*
X774700Y1223400D03*
X774700Y1240400D03*
X812800Y1223400D03*
X812800Y1240400D03*
X850900Y1223400D03*
X850900Y1240400D03*
X889000Y1223400D03*
X889000Y1240400D03*
D15*
X194700Y635000D03*
X211700Y635000D03*
X194700Y787400D03*
X211700Y787400D03*
D22*
X1384300Y279400D03*
D23*
X1384300Y374700D03*
X1384300Y470000D03*
X1384300Y565300D03*
X1384300Y660600D03*
X1384300Y755900D03*
D22*
X-88900Y812800D03*
D23*
X-88900Y717500D03*
X-88900Y622200D03*
X-88900Y526900D03*
X-88900Y431600D03*
X-88900Y336300D03*
D24*
X703580Y1095910D03*
X703580Y1160680D03*
X702310Y1230530D03*
X702310Y1299110D03*
X1210310Y1299110D03*
X1210310Y1197510D03*
X1210310Y1095910D03*
D25*
X956310Y1348640D03*
X956310Y1045110D03*
D15*
X1204350Y1029970D03*
X1221350Y1029970D03*
D26*
X812800Y76200D03*
X736600Y76200D03*
D27*
X88900Y927100D03*
D28*
X88900Y825500D03*
X88900Y673100D03*
X88900Y571500D03*
D29*
X1155700Y927100D03*
D28*
X1155700Y825500D03*
X1155700Y749300D03*
X1155700Y673100D03*
D29*
X1155700Y571500D03*
D27*
X88900Y409036D03*
D28*
X88900Y307436D03*
X88900Y155036D03*
X88900Y53436D03*
D29*
X1155700Y409036D03*
D28*
X1155700Y307436D03*
X1155700Y231236D03*
X1155700Y155036D03*
D29*
X1155700Y53436D03*
D30*
X929530Y25400D02*
X843280Y111650D01*
X929530Y25400D02*
X1127664Y25400D01*
X1155700Y53436D01*
X1155700Y155036D01*
X1155700Y571500D02*
X1155700Y673100D01*
X1147200Y664600D02*
X1079500Y664600D01*
X1147200Y664600D02*
X1155700Y673100D01*
X1155700Y571500D02*
X1117600Y533400D01*
X723900Y533400D01*
X439928Y249428D01*
X439928Y237236D01*
X1016000Y461400D02*
X1045600Y431800D01*
X1016000Y461400D02*
X1016000Y508000D01*
D31*
X1016000Y508000D03*
X1016000Y558800D03*
D30*
X1016000Y647700D01*
X1049900Y681600D01*
X1079500Y681600D01*
X1202300Y-25400D02*
X1219200Y-25400D01*
D31*
X1219200Y-25400D03*
X749300Y-12700D03*
D30*
X774700Y1240400D02*
X715990Y1299110D01*
X702310Y1299110D01*
X850900Y1240400D02*
X889000Y1240400D01*
X850900Y1240400D02*
X812800Y1240400D01*
X774700Y1240400D01*
X1282700Y982100D02*
X1308100Y982100D01*
X1210700Y982100D01*
X1155700Y927100D01*
X842400Y368300D02*
X762000Y287900D01*
X842400Y368300D02*
X1041400Y368300D01*
X1062600Y389500D01*
X1062600Y406400D01*
X1062600Y431800D01*
X1132936Y431800D02*
X1155700Y409036D01*
X1132936Y431800D02*
X1062600Y431800D01*
X436000Y323850D02*
X425450Y323850D01*
X392540Y290940D01*
X392540Y241300D01*
X392540Y215900D01*
X392540Y190500D01*
X392540Y165100D01*
X406400Y186182D02*
X439928Y186182D01*
X406400Y186182D02*
X396858Y186182D01*
X392540Y190500D01*
X419100Y110010D02*
X426240Y102870D01*
X419100Y110010D02*
X419100Y139700D01*
X393700Y165100D01*
X392540Y165100D01*
X803520Y181220D02*
X822960Y181220D01*
X803520Y181220D02*
X789178Y166878D01*
X787146Y166878D01*
D31*
X825500Y203200D03*
D30*
X825500Y183760D01*
X822960Y181220D01*
D31*
X406400Y186182D03*
D30*
X759714Y148082D02*
X787146Y148082D01*
X787908Y147320D01*
X1327200Y374700D02*
X1384300Y374700D01*
D31*
X1327200Y374700D03*
X839470Y147320D03*
D32*
X787908Y147320D01*
D30*
X762000Y225180D02*
X723900Y225670D01*
X759714Y222894D02*
X759714Y166878D01*
X759714Y222894D02*
X762000Y225180D01*
X361240Y102870D02*
X304800Y159310D01*
X304800Y215900D01*
X317500Y228600D01*
X338230Y228600D01*
X339090Y227740D01*
X412242Y220218D02*
X439928Y220218D01*
X412242Y220218D02*
X411480Y220980D01*
D31*
X411480Y220980D03*
X342900Y254000D03*
D30*
X342900Y231550D01*
X339090Y227740D01*
X455000Y303530D02*
X455000Y321850D01*
X453000Y323850D01*
X16900Y745100D02*
X16900Y762000D01*
X16900Y745100D02*
X88900Y673100D01*
X16900Y762000D02*
X16900Y1190110D01*
X77070Y1250280D01*
X77070Y1325280D01*
X12700Y231236D02*
X88900Y155036D01*
X12700Y231236D02*
X12700Y596900D01*
X88900Y673100D01*
X88900Y825500D02*
X194700Y825500D01*
X-176330Y900230D02*
X-176330Y1250280D01*
X-176330Y900230D02*
X-88900Y812800D01*
X-88900Y717500D02*
X-203200Y831800D01*
X-203200Y1298410D01*
X-176330Y1325280D01*
X-23730Y1325280D02*
X-23730Y1250280D01*
X194700Y787400D02*
X194700Y635000D01*
X142336Y307436D02*
X88900Y307436D01*
X142336Y307436D02*
X194700Y359800D01*
X194700Y596900D01*
X703580Y1160680D02*
X711980Y1160680D01*
X774700Y1223400D01*
X812800Y1223400D01*
X850900Y1223400D01*
X889000Y1223400D01*
X211700Y635000D02*
X211700Y596900D01*
X211700Y787400D02*
X211700Y825500D01*
X723900Y208670D02*
X723900Y88900D01*
X736600Y76200D01*
X1524000Y101600D02*
X1524000Y330200D01*
X1524000Y101600D02*
X1371600Y-50800D01*
X838200Y-50800D01*
X736600Y50800D01*
X736600Y76200D01*
X1320800Y597100D02*
X1384300Y660600D01*
X1320800Y597100D02*
X1320800Y469900D01*
X1339850Y450850D01*
X1403350Y450850D01*
X1524000Y330200D01*
M02*
