G04 EAGLE Gerber RS-274X export*
G75*
%MOMM*%
%FSLAX34Y34*%
%LPD*%
%INSoldermask Top*%
%IPPOS*%
%AMOC8*
5,1,8,0,0,1.08239X$1,22.5*%
G01*
G04 Define Apertures*
%ADD10C,4.521200*%
%ADD11R,2.203200X2.203200*%
%ADD12C,0.850800*%
%ADD13R,1.403200X1.403200*%
%ADD14R,1.203200X1.303200*%
%ADD15R,1.303200X1.203200*%
%ADD16R,10.613200X11.003200*%
%ADD17R,3.203200X1.270000*%
%ADD18R,1.003200X1.403200*%
%ADD19R,1.403200X1.003200*%
%ADD20C,2.153200*%
%ADD21R,1.524000X0.762000*%
%ADD22R,2.984200X2.984200*%
%ADD23C,2.984200*%
%ADD24C,6.172200*%
%ADD25C,5.283200*%
%ADD26P,2.55682X8X22.5*%
%ADD27R,5.842000X5.842000*%
%ADD28C,5.842000*%
%ADD29C,7.899400*%
%ADD30C,0.959600*%
D10*
X-114300Y1143000D03*
X1333500Y25400D03*
X-114300Y25400D03*
X1334770Y1143000D03*
D11*
X339090Y227740D03*
X339090Y183740D03*
D12*
X374002Y127132D02*
X374002Y78608D01*
X348478Y78608D01*
X348478Y127132D01*
X374002Y127132D01*
X374002Y86691D02*
X348478Y86691D01*
X348478Y94774D02*
X374002Y94774D01*
X374002Y102857D02*
X348478Y102857D01*
X348478Y110940D02*
X374002Y110940D01*
X374002Y119023D02*
X348478Y119023D01*
X348478Y127106D02*
X374002Y127106D01*
X439002Y127132D02*
X439002Y78608D01*
X413478Y78608D01*
X413478Y127132D01*
X439002Y127132D01*
X439002Y86691D02*
X413478Y86691D01*
X413478Y94774D02*
X439002Y94774D01*
X439002Y102857D02*
X413478Y102857D01*
X413478Y110940D02*
X439002Y110940D01*
X439002Y119023D02*
X413478Y119023D01*
X413478Y127106D02*
X439002Y127106D01*
D13*
X455000Y303530D03*
X434000Y303530D03*
D14*
X723900Y225670D03*
X723900Y208670D03*
X762000Y242180D03*
X762000Y225180D03*
X762000Y287900D03*
X762000Y270900D03*
D15*
X436000Y323850D03*
X453000Y323850D03*
D16*
X533240Y203200D03*
D17*
X439928Y237236D03*
X439928Y220218D03*
X439928Y203200D03*
X439928Y186182D03*
X439928Y169164D03*
D18*
X392540Y190500D03*
X374540Y190500D03*
X392540Y165100D03*
X374540Y165100D03*
X392540Y215900D03*
X374540Y215900D03*
X392540Y241300D03*
X374540Y241300D03*
D19*
X843280Y111650D03*
X843280Y129650D03*
D14*
X822960Y181220D03*
X822960Y164220D03*
D20*
X-23730Y1325280D03*
X26670Y1325280D03*
X77070Y1325280D03*
X-23730Y1250280D03*
X26670Y1250280D03*
X77070Y1250280D03*
X-176330Y1250280D03*
X-176330Y1325280D03*
X-176330Y1287780D03*
D21*
X759714Y166878D03*
X759714Y157480D03*
X759714Y148082D03*
X787146Y148082D03*
X787146Y166878D03*
D15*
X1062600Y406400D03*
X1045600Y406400D03*
X1185300Y-25400D03*
X1202300Y-25400D03*
X1062600Y431800D03*
X1045600Y431800D03*
D14*
X1308100Y982100D03*
X1308100Y999100D03*
X1079500Y664600D03*
X1079500Y681600D03*
X1282700Y982100D03*
X1282700Y999100D03*
D15*
X33900Y762000D03*
X16900Y762000D03*
X211700Y596900D03*
X194700Y596900D03*
X211700Y825500D03*
X194700Y825500D03*
D14*
X774700Y1223400D03*
X774700Y1240400D03*
X812800Y1223400D03*
X812800Y1240400D03*
X850900Y1223400D03*
X850900Y1240400D03*
X889000Y1223400D03*
X889000Y1240400D03*
D15*
X194700Y635000D03*
X211700Y635000D03*
X194700Y787400D03*
X211700Y787400D03*
D22*
X1384300Y279400D03*
D23*
X1384300Y374700D03*
X1384300Y470000D03*
X1384300Y565300D03*
X1384300Y660600D03*
X1384300Y755900D03*
D22*
X-88900Y812800D03*
D23*
X-88900Y717500D03*
X-88900Y622200D03*
X-88900Y526900D03*
X-88900Y431600D03*
X-88900Y336300D03*
D24*
X703580Y1095910D03*
X703580Y1160680D03*
X702310Y1230530D03*
X702310Y1299110D03*
X1210310Y1299110D03*
X1210310Y1197510D03*
X1210310Y1095910D03*
D25*
X956310Y1348640D03*
X956310Y1045110D03*
D15*
X1204350Y1029970D03*
X1221350Y1029970D03*
D26*
X812800Y76200D03*
X736600Y76200D03*
D27*
X88900Y927100D03*
D28*
X88900Y825500D03*
X88900Y673100D03*
X88900Y571500D03*
D29*
X1155700Y927100D03*
D28*
X1155700Y825500D03*
X1155700Y749300D03*
X1155700Y673100D03*
D29*
X1155700Y571500D03*
D27*
X88900Y409036D03*
D28*
X88900Y307436D03*
X88900Y155036D03*
X88900Y53436D03*
D29*
X1155700Y409036D03*
D28*
X1155700Y307436D03*
X1155700Y231236D03*
X1155700Y155036D03*
D29*
X1155700Y53436D03*
D30*
X1016000Y508000D03*
X1016000Y558800D03*
X1219200Y-25400D03*
X749300Y-12700D03*
X825500Y203200D03*
X406400Y186182D03*
X1327200Y374700D03*
X839470Y147320D03*
X411480Y220980D03*
X342900Y254000D03*
M02*
